{"glyphs":{"0":{"ha":966,"x_min":65,"x_max":901,"o":"m 484 60 q 595 134 565 60 q 625 505 625 208 q 595 876 625 801 q 484 951 565 951 q 372 878 402 951 q 342 505 342 804 q 372 134 342 208 q 484 60 402 60 m 484 -20 q 173 116 281 -20 q 65 505 65 251 q 173 895 65 760 q 484 1031 281 1031 q 793 895 686 1031 q 901 505 901 760 q 793 116 901 251 q 484 -20 686 -20 z "},"1":{"ha":966,"x_min":170,"x_max":828,"o":"m 191 0 l 191 82 l 380 82 l 380 901 l 170 777 l 170 878 l 424 1031 l 637 1031 l 637 82 l 828 82 l 828 0 l 191 0 z "},"2":{"ha":966,"x_min":93,"x_max":842,"o":"m 183 762 l 102 762 l 102 981 q 266 1018 184 1006 q 429 1031 347 1031 q 731 952 623 1031 q 839 732 839 873 q 779 552 839 631 q 551 363 720 472 l 269 178 l 749 178 l 749 297 l 842 297 l 842 0 l 93 0 l 93 165 l 243 269 q 498 494 435 401 q 562 711 562 587 q 514 890 562 829 q 372 951 465 951 q 244 903 292 951 q 183 762 196 854 z "},"3":{"ha":966,"x_min":97,"x_max":878,"o":"m 119 983 q 293 1019 209 1007 q 457 1031 377 1031 q 738 965 640 1031 q 836 778 836 900 q 780 629 836 686 q 615 553 724 572 q 812 463 747 532 q 878 273 878 393 q 765 56 878 132 q 440 -20 653 -20 q 275 -6 360 -20 q 97 35 190 7 l 97 257 l 179 257 q 239 110 186 161 q 386 60 292 60 q 545 117 489 60 q 602 279 602 174 q 543 449 602 389 q 376 509 484 509 l 332 509 l 332 590 l 367 590 q 517 636 467 590 q 567 774 567 682 q 520 906 567 860 q 385 951 473 951 q 258 908 304 951 q 201 781 211 864 l 119 781 l 119 983 z "},"4":{"ha":966,"x_min":57,"x_max":909,"o":"m 886 0 l 329 0 l 329 82 l 479 82 l 479 267 l 57 267 l 57 345 l 481 1031 l 736 1031 l 736 354 l 909 354 l 909 267 l 736 267 l 736 82 l 886 82 l 886 0 m 479 354 l 479 846 l 178 354 l 479 354 z "},"5":{"ha":966,"x_min":114,"x_max":861,"o":"m 783 1013 l 783 835 l 241 835 l 241 612 q 341 665 286 647 q 457 682 396 682 q 753 588 644 682 q 861 330 861 493 q 753 73 861 165 q 449 -20 644 -20 q 284 -6 366 -20 q 114 36 203 7 l 114 257 l 195 257 q 247 109 199 157 q 389 60 295 60 q 536 126 488 60 q 585 330 585 193 q 537 532 585 465 q 395 599 490 599 q 303 577 343 599 q 228 511 262 556 l 160 511 l 160 1013 l 783 1013 z "},"6":{"ha":966,"x_min":87,"x_max":892,"o":"m 342 600 q 440 653 386 635 q 559 671 495 671 q 803 580 715 671 q 892 330 892 489 q 792 72 892 163 q 509 -20 692 -20 q 194 105 301 -20 q 87 473 87 231 q 206 890 87 749 q 558 1031 325 1031 q 689 1021 619 1031 q 839 990 759 1010 l 839 811 l 757 811 q 693 916 740 880 q 571 951 646 951 q 396 869 450 951 q 342 600 342 786 m 493 60 q 593 119 563 60 q 623 325 623 178 q 593 531 623 471 q 493 590 563 590 q 394 531 423 590 q 364 325 364 471 q 394 119 364 178 q 493 60 423 60 z "},"7":{"ha":966,"x_min":110,"x_max":851,"o":"m 851 840 l 433 0 l 296 0 l 703 821 l 203 821 l 203 684 l 110 684 l 110 1013 l 851 1013 l 851 840 z "},"8":{"ha":966,"x_min":72,"x_max":892,"o":"m 646 539 q 829 450 766 519 q 892 269 892 381 q 786 55 892 130 q 482 -20 681 -20 q 178 55 283 -20 q 72 269 72 130 q 135 450 72 381 q 318 539 198 519 q 159 621 212 564 q 106 766 106 678 q 202 963 106 895 q 482 1031 298 1031 q 762 963 665 1031 q 859 766 859 895 q 805 621 859 678 q 646 539 752 564 m 596 764 q 570 911 596 871 q 482 951 545 951 q 394 911 419 951 q 368 764 368 871 q 394 617 368 657 q 482 578 419 578 q 571 617 545 578 q 596 764 596 657 m 623 281 q 591 452 623 405 q 482 498 559 498 q 373 452 404 498 q 342 281 342 405 q 373 107 342 155 q 482 60 405 60 q 591 107 559 60 q 623 281 623 155 z "},"9":{"ha":966,"x_min":75,"x_max":879,"o":"m 473 951 q 374 892 404 951 q 345 686 345 833 q 374 480 345 540 q 473 421 404 421 q 573 480 543 421 q 603 686 603 540 q 573 892 603 833 q 473 951 543 951 m 625 412 q 525 358 580 376 q 407 340 471 340 q 164 431 252 340 q 75 681 75 522 q 174 940 75 849 q 457 1031 273 1031 q 772 905 665 1031 q 879 538 879 780 q 760 121 879 262 q 408 -20 642 -20 q 277 -9 347 -20 q 127 21 208 1 l 127 200 l 210 200 q 274 95 227 131 q 396 60 321 60 q 570 143 515 60 q 625 412 624 226 z "},"\u0000":{"ha":833,"x_min":69,"x_max":764,"o":"m 69 -245 l 69 979 l 764 979 l 764 -245 l 69 -245 m 147 -168 l 686 -168 l 686 901 l 147 901 l 147 -168 z "}," ":{"ha":484,"x_min":0,"x_max":0,"o":""},"!":{"ha":610,"x_min":176,"x_max":433,"o":"m 176 110 q 214 201 176 163 q 304 239 252 239 q 395 201 357 239 q 433 110 433 163 q 395 18 433 56 q 304 -20 357 -20 q 214 18 252 -20 q 176 110 176 56 m 178 1013 l 432 1013 l 351 441 l 351 313 l 257 313 l 257 441 l 178 1013 z "},"\"":{"ha":724,"x_min":132,"x_max":591,"o":"m 293 1013 l 293 636 l 132 636 l 132 1013 l 293 1013 m 591 1013 l 591 636 l 431 636 l 431 1013 l 591 1013 z "},"#":{"ha":1164,"x_min":94,"x_max":1069,"o":"m 694 591 l 515 591 l 468 406 l 647 406 l 694 591 m 618 997 l 553 736 l 732 736 l 798 997 l 947 997 l 882 736 l 1069 736 l 1069 591 l 846 591 l 799 406 l 991 406 l 991 260 l 764 260 l 699 0 l 549 0 l 614 260 l 435 260 l 370 0 l 218 0 l 283 260 l 94 260 l 94 406 l 317 406 l 364 591 l 172 591 l 172 736 l 401 736 l 467 997 l 618 997 z "},"$":{"ha":966,"x_min":123,"x_max":851,"o":"m 132 40 l 132 237 l 214 237 q 278 102 225 146 q 429 57 332 57 l 439 57 l 439 332 q 197 433 270 369 q 123 608 123 498 q 207 801 123 730 q 439 875 290 871 l 439 1057 l 521 1057 l 521 875 q 666 856 597 871 q 802 815 736 842 l 802 631 l 720 631 q 657 753 709 709 q 521 798 605 797 l 521 546 q 777 438 703 506 q 851 249 851 371 q 765 54 851 123 q 521 -20 680 -16 l 521 -203 l 439 -203 l 439 -20 q 288 -3 364 -18 q 132 40 211 12 m 439 799 q 348 763 381 791 q 314 693 314 734 q 343 616 314 646 q 439 568 372 587 l 439 799 m 521 57 q 625 94 589 64 q 660 174 660 123 q 627 256 660 224 q 521 310 594 289 l 521 57 z "},"%":{"ha":1320,"x_min":33,"x_max":1286,"o":"m 300 962 q 237 915 256 962 q 218 755 218 868 q 237 595 218 642 q 300 547 256 547 q 363 595 344 547 q 382 755 382 642 q 363 915 382 868 q 300 962 344 962 m 300 1031 q 498 960 429 1031 q 567 755 567 889 q 498 551 567 622 q 300 479 429 479 q 102 551 171 479 q 33 755 33 622 q 102 960 33 889 q 300 1031 171 1031 m 918 1031 l 1035 1031 l 401 -20 l 285 -20 l 918 1031 m 1019 532 q 1217 461 1149 532 q 1286 257 1286 390 q 1217 52 1286 123 q 1019 -20 1149 -20 q 822 52 890 -20 q 753 257 753 123 q 822 461 753 390 q 1019 532 890 532 m 1019 464 q 956 417 975 464 q 937 257 937 370 q 957 96 937 144 q 1019 49 976 49 q 1082 96 1063 49 q 1101 257 1101 144 q 1082 417 1101 370 q 1019 464 1063 464 z "},"&":{"ha":1254,"x_min":56,"x_max":1229,"o":"m 1229 0 l 904 0 l 818 89 q 668 7 750 35 q 489 -20 586 -20 q 171 67 286 -20 q 56 306 56 154 q 114 495 56 416 q 298 629 173 573 q 247 716 264 675 q 229 796 229 758 q 322 969 229 907 q 585 1031 416 1031 q 702 1023 635 1031 q 852 999 768 1015 l 852 787 l 765 787 q 713 910 753 871 q 602 949 674 949 q 494 916 533 949 q 454 828 454 884 q 576 642 454 766 q 596 623 589 629 l 908 296 q 972 402 949 342 q 1001 539 995 463 l 878 539 l 878 621 l 1217 621 l 1217 539 l 1097 539 q 1055 363 1086 440 q 974 228 1024 287 l 1114 82 l 1229 82 l 1229 0 m 754 155 l 371 554 q 315 457 334 509 q 296 350 296 406 q 368 161 296 235 q 551 87 440 87 q 654 104 604 87 q 754 155 704 121 z "},"'":{"ha":425,"x_min":132,"x_max":293,"o":"m 293 1013 l 293 636 l 132 636 l 132 1013 l 293 1013 z "},"(":{"ha":657,"x_min":131,"x_max":585,"o":"m 585 -216 q 243 26 356 -132 q 131 419 131 184 q 242 810 131 654 q 585 1055 353 966 l 585 974 q 430 781 477 909 q 383 419 383 653 q 430 58 383 186 q 585 -135 477 -70 l 585 -216 z "},")":{"ha":657,"x_min":71,"x_max":525,"o":"m 71 -216 l 71 -135 q 225 58 178 -70 q 272 419 272 186 q 225 781 272 653 q 71 974 178 909 l 71 1055 q 413 810 302 966 q 525 419 525 654 q 412 26 525 184 q 71 -216 299 -132 z "},"*":{"ha":726,"x_min":31,"x_max":696,"o":"m 696 822 l 452 708 l 696 593 l 629 488 l 407 650 l 425 386 l 301 386 l 319 650 l 97 488 l 31 593 l 275 708 l 31 822 l 97 929 l 319 765 l 301 1031 l 425 1031 l 407 765 l 629 929 l 696 822 z "},"+":{"ha":1164,"x_min":147,"x_max":1017,"o":"m 660 871 l 660 514 l 1017 514 l 1017 358 l 660 358 l 660 1 l 504 1 l 504 358 l 147 358 l 147 514 l 504 514 l 504 871 l 660 871 z "},",":{"ha":484,"x_min":18,"x_max":349,"o":"m 18 -134 q 122 -6 89 -77 q 155 158 155 64 l 155 216 l 349 216 l 349 211 q 286 -47 349 61 q 93 -229 223 -155 l 18 -134 z "},"-":{"ha":576,"x_min":75,"x_max":501,"o":"m 75 464 l 501 464 l 501 281 l 75 281 l 75 464 z "},".":{"ha":484,"x_min":113,"x_max":371,"o":"m 113 110 q 151 201 113 163 q 241 239 189 239 q 333 201 295 239 q 371 110 371 163 q 333 18 371 56 q 241 -20 295 -20 q 151 18 189 -20 q 113 110 113 56 z "},"/":{"ha":507,"x_min":0,"x_max":507,"o":"m 357 1013 l 507 1013 l 150 -129 l 0 -129 l 357 1013 z "},":":{"ha":513,"x_min":127,"x_max":385,"o":"m 127 551 q 165 643 127 605 q 256 681 203 681 q 347 643 309 681 q 385 551 385 604 q 347 461 385 498 q 256 424 309 424 q 165 461 202 424 q 127 551 127 498 m 127 110 q 165 201 127 163 q 256 239 203 239 q 347 201 309 239 q 385 110 385 163 q 347 18 385 56 q 256 -20 309 -20 q 165 18 203 -20 q 127 110 127 56 z "},";":{"ha":513,"x_min":36,"x_max":385,"o":"m 127 551 q 165 643 127 605 q 256 681 203 681 q 347 643 309 681 q 385 551 385 604 q 347 461 385 498 q 256 424 309 424 q 165 461 202 424 q 127 551 127 498 m 36 -127 q 140 -1 107 -71 q 174 163 174 69 l 174 222 l 367 222 q 304 -40 367 70 q 111 -224 241 -150 l 36 -127 z "},"<":{"ha":1164,"x_min":147,"x_max":1017,"o":"m 1017 664 l 353 435 l 1017 207 l 1017 45 l 147 359 l 147 513 l 1017 827 l 1017 664 z "},"=":{"ha":1164,"x_min":147,"x_max":1017,"o":"m 147 358 l 1017 358 l 1017 204 l 147 204 l 147 358 m 147 667 l 1017 667 l 1017 513 l 147 513 l 147 667 z "},">":{"ha":1164,"x_min":147,"x_max":1017,"o":"m 147 664 l 147 827 l 1017 513 l 1017 359 l 147 45 l 147 207 l 811 435 l 147 664 z "},"?":{"ha":814,"x_min":90,"x_max":751,"o":"m 232 110 q 270 201 232 163 q 361 239 308 239 q 452 201 414 239 q 490 110 490 163 q 452 18 490 56 q 361 -20 414 -20 q 270 18 308 -20 q 232 110 232 56 m 90 985 q 250 1019 174 1008 q 397 1031 326 1031 q 660 956 568 1031 q 751 742 751 881 q 663 526 751 605 q 408 435 574 447 l 408 296 l 314 296 l 314 498 q 453 590 409 528 q 497 757 497 652 q 456 904 497 854 q 334 954 414 954 q 219 909 259 954 q 172 777 178 865 l 90 777 l 90 985 z "},"@":{"ha":1389,"x_min":92,"x_max":1291,"o":"m 863 342 l 863 393 q 821 534 863 481 q 710 587 779 587 q 602 528 643 587 q 561 368 561 469 q 602 208 561 268 q 710 149 643 149 q 821 201 779 149 q 863 342 863 254 m 863 163 q 784 88 833 114 q 675 62 736 62 q 471 144 545 62 q 397 368 397 225 q 471 592 397 511 q 675 673 545 673 q 784 648 736 673 q 863 574 833 622 l 863 659 l 1011 659 l 1011 155 q 1161 261 1108 182 q 1214 460 1214 340 q 1177 636 1214 557 q 1063 781 1139 715 q 916 862 1000 833 q 737 890 832 890 q 572 867 649 890 q 432 796 496 843 q 284 613 336 724 q 232 368 232 502 q 265 170 232 263 q 358 8 298 77 q 525 -114 431 -73 q 730 -155 620 -155 q 890 -132 813 -155 q 1038 -64 968 -109 l 1076 -127 q 896 -213 989 -184 q 704 -241 802 -241 q 463 -199 572 -241 q 267 -71 353 -156 q 136 126 181 14 q 92 368 92 238 q 136 610 92 498 q 267 807 181 722 q 464 935 353 892 q 714 977 575 977 q 934 944 835 977 q 1111 844 1033 911 q 1246 673 1201 769 q 1291 458 1291 576 q 1183 167 1291 271 q 884 62 1076 62 l 863 62 l 863 163 z "},"A":{"ha":1078,"x_min":-11,"x_max":1093,"o":"m -11 0 l -11 82 l 72 82 l 453 1013 l 615 1013 l 997 82 l 1093 82 l 1093 0 l 619 0 l 619 82 l 718 82 l 635 289 l 254 289 l 170 82 l 290 82 l 290 0 l -11 0 m 288 371 l 602 371 l 446 758 l 288 371 z "},"B":{"ha":1174,"x_min":65,"x_max":1097,"o":"m 65 0 l 65 82 l 195 82 l 195 930 l 65 930 l 65 1013 l 665 1013 q 943 950 850 1013 q 1036 762 1036 888 q 972 619 1036 672 q 782 553 908 566 q 1016 471 935 538 q 1097 293 1097 404 q 984 71 1097 142 q 628 0 870 0 l 65 0 m 456 590 l 545 590 q 718 632 661 590 q 774 762 774 675 q 719 890 774 850 q 545 930 665 930 l 456 930 l 456 590 m 456 82 l 553 82 q 745 134 682 82 q 807 293 807 185 q 744 455 807 401 q 553 509 681 509 l 456 509 l 456 82 z "},"C":{"ha":1105,"x_min":58,"x_max":1035,"o":"m 1035 289 q 891 56 995 132 q 612 -20 787 -20 q 207 122 356 -20 q 58 505 58 263 q 207 889 58 748 q 612 1031 356 1031 q 800 1009 703 1031 q 1007 943 898 987 l 1007 694 l 921 694 q 825 885 895 822 q 640 949 755 949 q 420 840 492 949 q 349 505 349 731 q 420 171 349 279 q 642 62 492 62 q 807 119 743 62 q 900 289 871 175 l 1035 289 z "},"D":{"ha":1204,"x_min":65,"x_max":1146,"o":"m 456 82 l 550 82 q 782 184 709 82 q 856 507 856 286 q 783 829 856 728 q 550 930 709 930 l 456 930 l 456 82 m 65 0 l 65 82 l 195 82 l 195 930 l 65 930 l 65 1013 l 585 1013 q 1002 882 857 1013 q 1146 507 1146 752 q 1001 131 1146 261 q 585 0 857 0 l 65 0 z "},"E":{"ha":1059,"x_min":65,"x_max":987,"o":"m 65 0 l 65 82 l 195 82 l 195 930 l 65 930 l 65 1013 l 975 1013 l 975 774 l 882 774 l 882 920 l 456 920 l 456 595 l 721 595 l 721 724 l 814 724 l 814 374 l 721 374 l 721 503 l 456 503 l 456 93 l 895 93 l 895 239 l 987 239 l 987 0 l 65 0 z "},"F":{"ha":986,"x_min":65,"x_max":968,"o":"m 65 0 l 65 82 l 195 82 l 195 930 l 65 930 l 65 1013 l 968 1013 l 968 774 l 875 774 l 875 920 l 457 920 l 457 595 l 714 595 l 714 724 l 807 724 l 807 374 l 714 374 l 714 503 l 457 503 l 457 82 l 616 82 l 616 0 l 65 0 z "},"G":{"ha":1186,"x_min":58,"x_max":1076,"o":"m 956 694 q 854 889 925 829 q 653 949 783 949 q 422 842 496 949 q 349 505 349 735 q 419 170 349 277 q 639 62 490 62 q 745 75 696 62 q 833 114 793 88 l 833 392 l 711 392 l 711 473 l 1076 473 l 1076 85 q 849 6 962 32 q 616 -20 735 -20 q 207 121 356 -20 q 58 505 58 261 q 207 890 58 750 q 616 1031 356 1031 q 830 1009 725 1031 q 1042 943 935 987 l 1042 694 l 956 694 z "},"H":{"ha":1312,"x_min":65,"x_max":1250,"o":"m 65 0 l 65 82 l 195 82 l 195 930 l 65 930 l 65 1013 l 586 1013 l 586 930 l 456 930 l 456 590 l 859 590 l 859 930 l 729 930 l 729 1013 l 1250 1013 l 1250 930 l 1120 930 l 1120 82 l 1250 82 l 1250 0 l 729 0 l 729 82 l 859 82 l 859 497 l 456 497 l 456 82 l 586 82 l 586 0 l 65 0 z "},"I":{"ha":650,"x_min":65,"x_max":586,"o":"m 65 0 l 65 82 l 195 82 l 195 930 l 65 930 l 65 1013 l 586 1013 l 586 930 l 456 930 l 456 82 l 586 82 l 586 0 l 65 0 z "},"J":{"ha":657,"x_min":-102,"x_max":604,"o":"m -102 -243 l -102 -83 l -14 -83 q 17 -177 -9 -147 q 94 -207 43 -207 q 186 -156 160 -207 q 212 33 212 -106 l 212 930 l 65 930 l 65 1013 l 604 1013 l 604 930 l 475 930 l 475 28 q 392 -213 475 -137 q 127 -289 309 -289 q 14 -277 71 -289 q -102 -243 -43 -266 z "},"K":{"ha":1207,"x_min":65,"x_max":1250,"o":"m 65 0 l 65 82 l 195 82 l 195 930 l 65 930 l 65 1013 l 586 1013 l 586 930 l 456 930 l 456 561 l 885 930 l 777 930 l 777 1013 l 1154 1013 l 1154 930 l 1019 930 l 656 618 l 1150 82 l 1250 82 l 1250 0 l 907 0 l 456 492 l 456 82 l 586 82 l 586 0 l 65 0 z "},"L":{"ha":977,"x_min":65,"x_max":946,"o":"m 65 0 l 65 82 l 195 82 l 195 930 l 65 930 l 65 1013 l 586 1013 l 586 930 l 456 930 l 456 93 l 854 93 l 854 253 l 946 253 l 946 0 l 65 0 z "},"M":{"ha":1537,"x_min":58,"x_max":1472,"o":"m 58 0 l 58 82 l 187 82 l 187 930 l 58 930 l 58 1013 l 476 1013 l 765 363 l 1055 1013 l 1472 1013 l 1472 930 l 1343 930 l 1343 82 l 1472 82 l 1472 0 l 951 0 l 951 82 l 1080 82 l 1080 854 l 766 149 l 595 149 l 282 854 l 282 82 l 411 82 l 411 0 l 58 0 z "},"N":{"ha":1270,"x_min":61,"x_max":1214,"o":"m 61 0 l 61 82 l 191 82 l 191 930 l 61 930 l 61 1013 l 378 1013 l 989 296 l 989 930 l 860 930 l 860 1013 l 1214 1013 l 1214 930 l 1084 930 l 1084 0 l 907 0 l 286 732 l 286 82 l 415 82 l 415 0 l 61 0 z "},"O":{"ha":1210,"x_min":58,"x_max":1150,"o":"m 604 62 q 797 172 734 62 q 860 505 860 281 q 797 840 860 730 q 604 949 734 949 q 412 839 475 949 q 349 505 349 728 q 412 173 349 283 q 604 62 475 62 m 604 -20 q 203 120 349 -20 q 58 505 58 260 q 204 891 58 751 q 604 1031 349 1031 q 1005 891 860 1031 q 1150 505 1150 751 q 1005 120 1150 260 q 604 -20 859 -20 z "},"P":{"ha":1044,"x_min":65,"x_max":1010,"o":"m 65 0 l 65 82 l 195 82 l 195 930 l 65 930 l 65 1013 l 642 1013 q 910 932 810 1013 q 1010 717 1010 852 q 910 500 1010 581 q 642 419 810 419 l 456 419 l 456 82 l 619 82 l 619 0 l 65 0 m 456 501 l 532 501 q 672 560 620 501 q 725 717 725 618 q 673 872 725 814 q 532 930 621 930 l 456 930 l 456 501 z "},"Q":{"ha":1210,"x_min":58,"x_max":1150,"o":"m 600 -20 q 201 123 344 -16 q 58 505 58 261 q 204 891 58 751 q 604 1031 349 1031 q 1005 891 860 1031 q 1150 505 1150 751 q 1039 155 1150 290 q 721 -11 927 21 q 808 -66 757 -50 q 942 -83 860 -83 l 977 -83 l 977 -250 l 957 -250 q 742 -195 828 -250 q 600 -20 656 -139 m 604 62 q 797 172 734 62 q 860 505 860 281 q 797 840 860 730 q 604 949 734 949 q 412 839 475 949 q 349 505 349 728 q 412 173 349 283 q 604 62 475 62 z "},"R":{"ha":1154,"x_min":65,"x_max":1162,"o":"m 737 494 q 839 454 798 486 q 911 364 880 423 l 1059 82 l 1162 82 l 1162 0 l 829 0 l 668 306 q 588 427 621 401 q 497 453 555 453 l 456 453 l 456 82 l 586 82 l 586 0 l 65 0 l 65 82 l 195 82 l 195 930 l 65 930 l 65 1013 l 643 1013 q 915 942 819 1013 q 1011 741 1011 871 q 943 573 1011 635 q 737 494 875 512 m 456 534 l 545 534 q 691 586 640 534 q 742 733 742 637 q 691 880 742 829 q 545 930 640 930 l 456 930 l 456 534 z "},"S":{"ha":1003,"x_min":92,"x_max":920,"o":"m 107 49 l 107 289 l 193 289 q 286 119 213 175 q 489 62 359 62 q 649 102 594 62 q 704 220 704 142 q 667 315 704 281 q 513 378 629 349 l 361 415 q 152 520 212 453 q 92 713 92 588 q 192 947 92 863 q 472 1031 292 1031 q 657 1016 561 1031 q 856 971 753 1001 l 856 747 l 770 747 q 684 900 750 852 q 494 949 617 949 q 343 914 394 949 q 292 810 292 879 q 327 714 292 747 q 500 646 362 681 l 652 608 q 856 498 793 573 q 920 293 920 424 q 814 60 920 140 q 503 -20 708 -20 q 306 -3 404 -20 q 107 49 208 14 z "},"T":{"ha":1034,"x_min":16,"x_max":1019,"o":"m 252 0 l 252 82 l 386 82 l 386 920 l 109 920 l 109 760 l 16 760 l 16 1013 l 1019 1013 l 1019 760 l 928 760 l 928 920 l 648 920 l 648 82 l 783 82 l 783 0 l 252 0 z "},"U":{"ha":1211,"x_min":47,"x_max":1181,"o":"m 176 930 l 47 930 l 47 1013 l 568 1013 l 568 930 l 439 930 l 439 424 q 498 159 439 235 q 700 83 557 83 q 898 160 840 83 q 957 424 957 236 l 957 930 l 828 930 l 828 1013 l 1181 1013 l 1181 930 l 1051 930 l 1051 410 q 951 79 1051 178 q 614 -20 850 -20 q 277 80 378 -20 q 176 411 176 180 l 176 930 z "},"V":{"ha":1078,"x_min":-8,"x_max":1097,"o":"m 1097 1013 l 1097 930 l 1013 930 l 631 0 l 469 0 l 87 930 l -8 930 l -8 1013 l 467 1013 l 467 930 l 368 930 l 642 260 l 917 930 l 796 930 l 796 1013 l 1097 1013 z "},"W":{"ha":1560,"x_min":-12,"x_max":1576,"o":"m 1183 0 l 1008 0 l 779 737 l 550 0 l 375 0 l 86 930 l -12 930 l -12 1013 l 468 1013 l 468 930 l 359 930 l 553 309 l 771 1013 l 964 1013 l 1186 297 l 1383 930 l 1263 930 l 1263 1013 l 1576 1013 l 1576 930 l 1472 930 l 1183 0 z "},"X":{"ha":1078,"x_min":7,"x_max":1076,"o":"m 471 390 l 260 82 l 385 82 l 385 0 l 25 0 l 25 82 l 150 82 l 416 469 l 100 930 l 7 930 l 7 1013 l 510 1013 l 510 930 l 399 930 l 595 646 l 789 930 l 671 930 l 671 1013 l 1023 1013 l 1023 930 l 899 930 l 648 567 l 981 82 l 1076 82 l 1076 0 l 571 0 l 571 82 l 684 82 l 471 390 z "},"Y":{"ha":991,"x_min":-12,"x_max":1004,"o":"m 239 0 l 239 82 l 375 82 l 375 419 l 74 930 l -12 930 l -12 1013 l 473 1013 l 473 930 l 361 930 l 589 545 l 815 930 l 714 930 l 714 1013 l 1004 1013 l 1004 930 l 918 930 l 637 454 l 637 82 l 774 82 l 774 0 l 239 0 z "},"Z":{"ha":1014,"x_min":52,"x_max":964,"o":"m 52 0 l 52 96 l 656 920 l 171 920 l 171 768 l 78 768 l 78 1013 l 957 1013 l 957 917 l 359 93 l 871 93 l 871 235 l 964 235 l 964 0 l 52 0 z "},"[":{"ha":657,"x_min":174,"x_max":558,"o":"m 174 1055 l 558 1055 l 558 974 l 414 974 l 414 -102 l 558 -102 l 558 -183 l 174 -183 l 174 1055 z "},"\\":{"ha":507,"x_min":0,"x_max":507,"o":"m 150 1013 l 507 -129 l 357 -129 l 0 1013 l 150 1013 z "},"]":{"ha":657,"x_min":98,"x_max":484,"o":"m 484 1055 l 484 -183 l 98 -183 l 98 -102 l 243 -102 l 243 974 l 98 974 l 98 1055 l 484 1055 z "},"^":{"ha":1164,"x_min":140,"x_max":1023,"o":"m 660 1013 l 1023 635 l 879 635 l 582 848 l 285 635 l 140 635 l 509 1013 l 660 1013 z "},"_":{"ha":694,"x_min":0,"x_max":694,"o":"m 694 -199 l 694 -328 l 0 -328 l 0 -199 l 694 -199 z "},"`":{"ha":694,"x_min":96,"x_max":460,"o":"m 285 1111 l 460 856 l 349 856 l 96 1111 l 285 1111 z "},"a":{"ha":900,"x_min":57,"x_max":868,"o":"m 765 443 l 765 82 l 868 82 l 868 0 l 525 0 l 525 92 q 419 7 477 35 q 286 -20 361 -20 q 116 40 176 -20 q 57 210 57 99 q 142 391 57 331 q 399 452 227 452 l 525 452 l 525 494 q 484 624 525 582 q 355 665 442 665 q 244 636 283 665 q 189 539 205 606 l 113 539 l 113 694 q 246 729 177 718 q 392 741 315 741 q 675 669 585 741 q 765 443 765 597 m 525 227 l 525 371 l 435 371 q 332 334 368 371 q 296 229 296 298 q 322 127 296 161 q 401 93 348 93 q 491 130 457 93 q 525 227 525 166 z "},"b":{"ha":971,"x_min":32,"x_max":916,"o":"m 135 82 l 135 974 l 32 974 l 32 1055 l 375 1055 l 375 629 q 457 713 406 686 q 585 741 509 741 q 827 639 739 741 q 916 361 916 538 q 827 82 916 184 q 585 -20 739 -20 q 457 8 509 -20 q 375 92 406 35 l 375 0 l 32 0 l 32 82 l 135 82 m 375 325 q 407 142 375 199 q 511 86 439 86 q 615 146 585 86 q 646 361 646 205 q 615 575 646 516 q 511 635 585 635 q 407 578 439 635 q 375 396 375 522 l 375 325 z "},"c":{"ha":846,"x_min":57,"x_max":783,"o":"m 783 225 q 678 41 758 102 q 461 -20 598 -20 q 163 80 269 -20 q 57 361 57 180 q 161 640 57 540 q 452 741 266 741 q 604 726 527 741 q 760 684 680 712 l 760 484 l 684 484 q 630 620 673 575 q 510 664 587 664 q 367 596 410 664 q 325 361 325 528 q 366 127 325 197 q 501 57 408 57 q 617 100 574 57 q 671 225 661 144 l 783 225 z "},"d":{"ha":971,"x_min":57,"x_max":939,"o":"m 596 325 l 596 396 q 564 578 596 522 q 460 635 531 635 q 355 575 385 635 q 325 361 325 516 q 355 146 325 205 q 460 86 386 86 q 564 142 531 86 q 596 325 596 199 m 836 82 l 939 82 l 939 0 l 596 0 l 596 92 q 514 8 566 35 q 386 -20 462 -20 q 145 82 233 -20 q 57 361 57 184 q 145 640 57 538 q 386 741 233 741 q 514 713 462 741 q 596 629 566 686 l 596 974 l 493 974 l 493 1055 l 836 1055 l 836 82 z "},"e":{"ha":884,"x_min":57,"x_max":821,"o":"m 557 407 q 530 607 557 549 q 440 664 504 664 q 352 608 378 664 q 325 419 325 551 l 325 407 l 557 407 m 821 326 l 325 326 l 325 321 q 367 119 325 181 q 503 57 409 57 q 629 98 581 57 q 690 218 677 140 l 803 218 q 687 38 774 96 q 444 -20 600 -20 q 157 79 257 -20 q 57 361 57 178 q 159 640 57 540 q 444 741 262 741 q 719 635 623 741 q 821 326 814 530 z "},"f":{"ha":597,"x_min":43,"x_max":672,"o":"m 672 875 l 596 875 q 565 954 591 928 q 493 979 540 979 q 414 940 439 979 q 390 814 390 901 l 390 721 l 571 721 l 571 639 l 390 639 l 390 82 l 529 82 l 529 0 l 47 0 l 47 82 l 150 82 l 150 639 l 43 639 l 43 721 l 150 721 l 150 811 q 227 993 150 931 q 452 1055 303 1055 q 564 1049 509 1055 q 672 1029 619 1042 l 672 875 z "},"g":{"ha":971,"x_min":57,"x_max":939,"o":"m 836 639 l 836 9 q 728 -225 836 -142 q 422 -309 620 -309 q 277 -297 351 -309 q 125 -264 203 -286 l 125 -92 l 201 -92 q 259 -197 212 -163 q 393 -232 306 -232 q 550 -179 505 -232 q 596 9 596 -125 l 596 92 q 514 8 566 35 q 386 -20 462 -20 q 145 82 233 -20 q 57 361 57 184 q 145 640 57 538 q 386 741 233 741 q 514 713 462 741 q 596 629 566 686 l 596 721 l 939 721 l 939 639 l 836 639 m 596 396 q 564 578 596 522 q 460 635 531 635 q 355 575 385 635 q 325 361 325 516 q 355 146 325 205 q 460 86 386 86 q 564 142 531 86 q 596 325 596 199 l 596 396 z "},"h":{"ha":1010,"x_min":43,"x_max":978,"o":"m 47 0 l 47 82 l 150 82 l 150 974 l 43 974 l 43 1055 l 390 1055 l 390 619 q 489 712 433 684 q 629 741 545 741 q 813 669 751 741 q 875 458 875 597 l 875 82 l 978 82 l 978 0 l 547 0 l 547 82 l 635 82 l 635 465 q 611 592 635 557 q 530 628 588 628 q 424 575 458 628 q 390 406 390 522 l 390 82 l 478 82 l 478 0 l 47 0 z "},"i":{"ha":528,"x_min":47,"x_max":493,"o":"m 127 925 q 165 1018 127 980 q 258 1055 203 1055 q 350 1018 312 1055 q 387 925 387 980 q 350 834 387 871 q 258 796 312 796 q 165 833 203 796 q 127 925 127 871 m 390 82 l 493 82 l 493 0 l 47 0 l 47 82 l 150 82 l 150 639 l 47 639 l 47 721 l 390 721 l 390 82 z "},"j":{"ha":503,"x_min":-103,"x_max":389,"o":"m 121 925 q 158 1018 121 980 q 252 1055 196 1055 q 342 1017 304 1055 q 380 925 380 979 q 343 834 380 871 q 252 796 305 796 q 159 833 197 796 q 121 925 121 871 m 149 639 l 46 639 l 46 721 l 389 721 l 389 -85 q 310 -252 389 -195 q 79 -309 232 -309 q -7 -302 39 -309 q -103 -282 -54 -295 l -103 -129 l -26 -130 q -5 -208 -25 -184 q 60 -232 15 -232 q 129 -200 109 -232 q 149 -85 149 -168 l 149 639 z "},"k":{"ha":962,"x_min":47,"x_max":986,"o":"m 481 0 l 47 0 l 47 82 l 150 82 l 150 974 l 47 974 l 47 1055 l 390 1055 l 390 378 l 681 639 l 595 639 l 595 721 l 924 721 l 924 639 l 790 639 l 604 472 l 908 82 l 986 82 l 986 0 l 572 0 l 572 82 l 657 82 l 457 339 l 390 279 l 390 82 l 481 82 l 481 0 z "},"l":{"ha":528,"x_min":47,"x_max":493,"o":"m 390 82 l 493 82 l 493 0 l 47 0 l 47 82 l 150 82 l 150 974 l 47 974 l 47 1055 l 390 1055 l 390 82 z "},"m":{"ha":1470,"x_min":47,"x_max":1438,"o":"m 843 603 q 951 708 893 675 q 1088 741 1010 741 q 1273 670 1212 741 q 1335 458 1335 600 l 1335 82 l 1438 82 l 1438 0 l 1008 0 l 1008 82 l 1095 82 l 1095 422 q 1074 593 1095 557 q 997 628 1053 628 q 898 579 933 628 q 863 439 863 530 l 863 82 l 949 82 l 949 0 l 536 0 l 536 82 l 623 82 l 623 422 q 602 593 623 557 q 525 628 581 628 q 425 579 460 628 q 390 439 390 530 l 390 82 l 476 82 l 476 0 l 47 0 l 47 82 l 150 82 l 150 639 l 47 639 l 47 721 l 390 721 l 390 619 q 486 711 432 682 q 615 741 541 741 q 758 707 703 741 q 843 603 813 673 z "},"n":{"ha":1010,"x_min":47,"x_max":978,"o":"m 47 0 l 47 82 l 150 82 l 150 639 l 47 639 l 47 721 l 390 721 l 390 619 q 489 712 433 684 q 629 741 545 741 q 813 669 751 741 q 875 458 875 597 l 875 82 l 978 82 l 978 0 l 547 0 l 547 82 l 635 82 l 635 465 q 611 592 635 557 q 530 628 588 628 q 424 575 458 628 q 390 406 390 522 l 390 82 l 478 82 l 478 0 l 47 0 z "},"o":{"ha":926,"x_min":57,"x_max":871,"o":"m 464 57 q 571 122 540 57 q 602 361 602 187 q 571 599 602 534 q 464 664 541 664 q 356 598 387 664 q 325 361 325 533 q 356 123 325 189 q 464 57 387 57 m 464 -20 q 165 82 273 -20 q 57 361 57 183 q 165 640 57 539 q 464 741 273 741 q 763 640 655 741 q 871 361 871 539 q 763 82 871 183 q 464 -20 654 -20 z "},"p":{"ha":971,"x_min":32,"x_max":916,"o":"m 375 396 l 375 325 q 407 142 375 199 q 511 86 439 86 q 615 146 585 86 q 646 361 646 205 q 615 575 646 516 q 511 635 585 635 q 407 578 439 635 q 375 396 375 522 m 135 639 l 32 639 l 32 721 l 375 721 l 375 629 q 457 713 406 686 q 585 741 509 741 q 827 639 739 741 q 916 361 916 538 q 827 82 916 184 q 585 -20 739 -20 q 457 8 509 -20 q 375 92 406 35 l 375 -207 l 486 -207 l 486 -289 l 32 -289 l 32 -207 l 135 -207 l 135 639 z "},"q":{"ha":971,"x_min":57,"x_max":939,"o":"m 836 639 l 836 -207 l 939 -207 l 939 -289 l 485 -289 l 485 -207 l 596 -207 l 596 92 q 514 8 566 35 q 386 -20 462 -20 q 145 82 233 -20 q 57 361 57 184 q 145 640 57 538 q 386 741 233 741 q 514 713 462 741 q 596 629 566 686 l 596 721 l 939 721 l 939 639 l 836 639 m 596 396 q 564 578 596 522 q 460 635 531 635 q 355 575 385 635 q 325 361 325 516 q 355 146 325 205 q 460 86 386 86 q 564 142 531 86 q 596 325 596 199 l 596 396 z "},"r":{"ha":732,"x_min":40,"x_max":746,"o":"m 746 729 l 746 514 l 669 514 q 638 600 665 572 q 559 628 611 628 q 435 559 481 628 q 390 367 390 490 l 390 82 l 521 82 l 521 0 l 47 0 l 47 82 l 150 82 l 150 639 l 40 639 l 40 721 l 390 721 l 390 593 q 483 704 425 668 q 625 741 541 741 q 676 738 646 741 q 746 729 707 734 z "},"s":{"ha":782,"x_min":60,"x_max":725,"o":"m 65 21 l 65 222 l 142 222 q 202 99 151 142 q 340 57 253 57 q 453 82 414 57 q 492 155 492 108 q 467 222 492 199 q 371 264 442 246 l 272 289 q 110 369 160 317 q 60 509 60 420 q 141 683 60 626 q 392 741 222 741 q 528 730 456 741 q 688 697 600 720 l 688 515 l 611 515 q 558 627 605 589 q 425 664 512 664 q 314 641 352 664 q 277 572 277 617 q 298 515 277 536 q 376 479 320 494 l 475 454 q 671 366 616 418 q 725 218 725 313 q 638 38 725 96 q 367 -20 551 -20 q 224 -9 300 -20 q 65 21 149 1 z "},"t":{"ha":642,"x_min":33,"x_max":635,"o":"m 138 639 l 33 639 l 33 721 l 138 721 l 138 945 l 378 945 l 378 721 l 578 721 l 578 639 l 378 639 l 378 197 q 393 80 378 103 q 447 57 408 57 q 511 86 490 57 q 534 176 532 115 l 635 176 q 575 24 629 68 q 392 -20 522 -20 q 191 27 243 -20 q 138 197 138 73 l 138 639 z "},"u":{"ha":1010,"x_min":32,"x_max":962,"o":"m 860 721 l 860 82 l 962 82 l 962 0 l 619 0 l 619 102 q 521 9 576 37 q 380 -20 465 -20 q 197 52 259 -20 q 135 262 135 123 l 135 639 l 32 639 l 32 721 l 375 721 l 375 300 q 397 129 375 165 q 479 93 420 93 q 586 146 552 93 q 619 317 619 200 l 619 639 l 532 639 l 532 721 l 860 721 z "},"v":{"ha":807,"x_min":-25,"x_max":842,"o":"m 310 0 l 54 639 l -25 639 l -25 721 l 389 721 l 389 639 l 301 639 l 484 183 l 665 639 l 571 639 l 571 721 l 842 721 l 842 639 l 758 639 l 503 0 l 310 0 z "},"w":{"ha":1196,"x_min":-12,"x_max":1223,"o":"m 749 721 l 913 240 l 1048 639 l 954 639 l 954 721 l 1223 721 l 1223 639 l 1139 639 l 921 0 l 755 0 l 603 452 l 449 0 l 285 0 l 66 639 l -12 639 l -12 721 l 396 721 l 396 639 l 311 639 l 444 249 l 606 721 l 749 721 z "},"x":{"ha":828,"x_min":0,"x_max":838,"o":"m 488 460 l 615 639 l 526 639 l 526 721 l 807 721 l 807 639 l 711 639 l 528 382 l 742 82 l 838 82 l 838 0 l 379 0 l 379 82 l 472 82 l 336 272 l 200 82 l 297 82 l 297 0 l 0 0 l 0 82 l 103 82 l 294 351 l 87 639 l 7 639 l 7 721 l 447 721 l 447 639 l 359 639 l 488 460 z "},"y":{"ha":807,"x_min":-18,"x_max":840,"o":"m 433 -163 q 355 -275 401 -242 q 231 -309 309 -309 q 157 -301 197 -309 q 68 -279 116 -294 l 68 -129 l 144 -130 q 169 -207 146 -182 q 237 -232 192 -232 q 309 -208 281 -232 q 363 -117 336 -184 l 374 -92 l 60 639 l -18 639 l -18 721 l 397 721 l 397 639 l 311 639 l 494 212 l 665 639 l 570 639 l 570 721 l 840 721 l 840 639 l 753 639 l 433 -163 z "},"z":{"ha":789,"x_min":49,"x_max":742,"o":"m 49 0 l 49 82 l 463 642 l 151 642 l 151 518 l 71 518 l 71 721 l 742 721 l 742 640 l 328 81 l 661 81 l 661 211 l 742 211 l 742 0 l 49 0 z "},"{":{"ha":893,"x_min":117,"x_max":768,"o":"m 768 -144 l 768 -227 l 668 -227 q 452 -210 508 -227 q 363 -151 397 -193 q 335 -90 343 -127 q 326 24 326 -52 l 326 193 q 290 335 326 296 q 158 374 254 374 l 117 374 l 117 456 l 158 456 q 290 495 254 456 q 326 636 326 534 l 326 806 q 335 919 326 882 q 363 981 343 956 q 452 1039 397 1022 q 668 1055 508 1055 l 768 1055 l 768 974 l 699 974 q 595 942 623 974 q 567 818 567 910 l 567 635 q 533 481 567 527 q 412 415 500 435 q 534 347 501 392 q 567 195 567 302 l 567 11 q 595 -113 567 -81 q 699 -144 623 -144 l 768 -144 z "},"|":{"ha":505,"x_min":179,"x_max":325,"o":"m 325 1061 l 325 -328 l 179 -328 l 179 1061 l 325 1061 z "},"}":{"ha":893,"x_min":126,"x_max":777,"o":"m 126 -144 l 195 -144 q 298 -113 270 -144 q 326 11 326 -81 l 326 195 q 359 347 326 301 q 482 415 393 392 q 360 481 394 435 q 326 635 326 528 l 326 818 q 298 942 326 910 q 195 974 270 974 l 126 974 l 126 1055 l 225 1055 q 441 1039 385 1055 q 530 981 496 1022 q 558 919 550 956 q 567 806 567 882 l 567 636 q 603 495 567 534 q 734 456 640 456 l 777 456 l 777 374 l 734 374 q 603 335 640 374 q 567 193 567 296 l 567 24 q 558 -90 567 -52 q 530 -151 550 -127 q 441 -210 496 -193 q 225 -227 385 -227 l 126 -227 l 126 -144 z "},"~":{"ha":1164,"x_min":147,"x_max":1017,"o":"m 1017 564 l 1017 424 q 890 338 954 366 q 758 310 827 310 q 591 349 694 310 q 574 355 579 353 q 560 361 569 357 q 378 406 444 406 q 269 381 326 406 q 147 307 212 357 l 147 447 q 275 533 212 506 q 406 561 338 561 q 572 522 470 561 q 590 515 585 517 l 600 511 q 786 465 718 465 q 895 490 838 465 q 1017 564 951 514 z "}," ":{"ha":441,"x_min":0,"x_max":0,"o":""},"¡":{"ha":610,"x_min":176,"x_max":433,"o":"m 433 901 q 395 811 433 848 q 304 774 357 774 q 214 811 251 774 q 176 901 176 848 q 214 993 176 955 q 304 1031 252 1031 q 395 992 357 1031 q 433 901 433 954 m 432 0 l 178 0 l 257 571 l 257 700 l 351 700 l 351 571 l 432 0 z "},"¢":{"ha":966,"x_min":109,"x_max":836,"o":"m 501 64 l 501 657 q 405 572 434 640 q 375 361 375 504 q 404 150 375 218 q 501 64 433 82 m 836 225 q 750 58 814 119 q 583 -16 686 -3 l 583 -203 l 501 -203 l 501 -20 q 211 84 313 -16 q 109 361 109 183 q 211 637 109 538 q 501 741 313 736 l 501 920 l 583 920 l 583 737 q 678 722 623 734 q 812 684 732 709 l 812 484 l 736 484 q 688 613 726 569 q 583 664 651 656 l 583 60 q 680 112 645 71 q 724 225 715 153 l 836 225 z "},"£":{"ha":966,"x_min":100,"x_max":865,"o":"m 846 815 l 764 815 q 727 918 760 881 q 636 954 693 954 q 522 904 557 954 q 488 734 488 853 l 488 553 l 726 553 l 726 471 l 488 471 l 488 93 l 772 93 l 772 248 l 865 248 l 865 0 l 100 0 l 100 82 l 231 82 l 231 471 l 100 471 l 100 553 l 231 553 l 231 741 q 321 959 231 887 q 597 1031 412 1031 q 703 1025 642 1031 q 846 1007 764 1019 l 846 815 z "},"¤":{"ha":884,"x_min":52,"x_max":835,"o":"m 443 286 q 548 329 505 286 q 591 435 591 372 q 548 540 591 497 q 443 583 505 583 q 338 540 381 583 q 294 435 294 497 q 337 329 294 372 q 443 286 380 286 m 296 182 l 154 41 l 52 146 l 193 288 q 162 355 172 319 q 153 435 153 391 q 163 514 153 477 q 193 582 173 551 l 52 721 l 155 828 l 296 685 q 365 715 328 705 q 443 725 401 725 q 517 715 480 725 q 593 685 554 705 l 732 828 l 835 724 l 693 585 q 723 509 713 547 q 733 435 733 471 q 723 356 733 392 q 693 289 713 321 l 835 146 l 729 41 l 589 184 q 522 154 557 164 q 443 144 486 144 q 367 154 404 144 q 296 182 330 163 z "},"¥":{"ha":966,"x_min":26,"x_max":924,"o":"m 221 0 l 221 82 l 350 82 l 350 317 l 77 317 l 77 396 l 350 396 l 350 436 l 309 528 l 77 528 l 77 607 l 271 607 l 119 930 l 26 930 l 26 1013 l 497 1013 l 497 930 l 382 930 l 557 557 l 730 930 l 628 930 l 628 1013 l 924 1013 l 924 930 l 832 930 l 682 607 l 880 607 l 880 528 l 643 528 l 607 449 l 607 396 l 880 396 l 880 317 l 607 317 l 607 82 l 736 82 l 736 0 l 221 0 z "},"¦":{"ha":505,"x_min":179,"x_max":325,"o":"m 325 971 l 325 457 l 179 457 l 179 971 l 325 971 m 325 277 l 325 -237 l 179 -237 l 179 277 l 325 277 z "},"§":{"ha":726,"x_min":43,"x_max":684,"o":"m 608 1000 l 608 838 l 528 838 q 488 925 524 896 q 387 954 453 954 q 301 929 332 954 q 271 859 271 904 q 289 804 271 827 q 368 750 307 782 l 460 701 q 636 578 588 635 q 684 443 684 521 q 645 322 684 372 q 529 243 606 272 q 611 168 585 211 q 637 64 637 125 q 564 -81 637 -29 q 354 -132 490 -132 q 236 -124 298 -132 q 106 -102 175 -117 l 106 61 l 186 61 q 227 -28 191 0 q 334 -56 262 -56 q 424 -31 393 -56 q 456 41 456 -5 q 438 96 456 73 q 358 150 420 118 l 267 199 q 91 323 139 266 q 43 457 43 380 q 82 576 43 527 q 199 656 121 626 q 116 731 142 687 q 89 835 89 774 q 163 979 89 927 q 370 1031 237 1031 q 479 1023 420 1031 q 608 1000 538 1015 m 268 611 q 222 562 238 589 q 207 505 207 536 q 238 429 207 464 q 343 355 269 395 l 457 296 q 504 346 488 319 q 519 401 519 373 q 488 477 519 442 q 380 551 456 511 l 268 611 z "},"¨":{"ha":694,"x_min":96,"x_max":599,"o":"m 96 996 q 125 1065 96 1036 q 196 1095 155 1095 q 266 1065 237 1095 q 294 996 294 1036 q 265 925 294 955 q 196 896 236 896 q 125 926 155 896 q 96 996 96 956 m 399 996 q 428 1065 399 1036 q 498 1095 458 1095 q 569 1065 539 1095 q 599 996 599 1036 q 569 926 599 956 q 498 896 539 896 q 428 926 458 896 q 399 996 399 956 z "},"©":{"ha":1389,"x_min":192,"x_max":1197,"o":"m 694 1007 q 887 970 798 1007 q 1050 859 976 932 q 1160 696 1124 785 q 1197 503 1197 607 q 1160 311 1197 399 q 1050 149 1124 222 q 887 37 976 75 q 694 0 798 0 q 502 37 591 0 q 339 149 413 75 q 229 311 265 222 q 192 503 192 399 q 229 696 192 607 q 339 859 265 785 q 502 970 413 932 q 694 1007 591 1007 m 694 903 q 542 873 612 903 q 412 785 471 844 q 325 656 354 726 q 296 503 296 586 q 325 350 296 420 q 412 221 354 279 q 542 134 471 163 q 694 104 612 104 q 848 133 778 104 q 977 221 918 162 q 1064 350 1035 279 q 1093 503 1093 420 q 1064 656 1093 586 q 977 785 1035 726 q 847 873 917 844 q 694 903 777 903 m 943 393 q 863 252 925 299 q 696 204 801 204 q 490 286 568 204 q 411 503 411 368 q 490 721 411 640 q 703 803 570 803 q 810 790 756 803 q 924 751 865 778 l 924 600 l 852 600 q 809 700 844 664 q 718 736 773 736 q 607 674 648 736 q 567 503 567 612 q 607 332 567 393 q 718 271 647 271 q 801 302 768 271 q 850 393 834 333 l 943 393 z "},"ª":{"ha":676,"x_min":41,"x_max":652,"o":"m 77 433 l 618 433 l 618 342 l 77 342 l 77 433 m 574 822 l 574 576 l 652 576 l 652 513 l 395 513 l 395 575 q 316 518 360 536 q 215 500 273 500 q 86 541 132 500 q 41 660 41 583 q 105 789 41 747 q 300 832 170 832 l 395 832 l 395 851 q 363 942 395 912 q 267 972 331 972 q 185 950 215 972 q 149 886 155 928 l 83 886 l 83 999 q 185 1023 133 1015 q 294 1031 237 1031 q 507 981 439 1031 q 574 822 574 930 m 395 679 l 395 768 l 326 768 q 249 743 277 768 q 221 673 221 718 q 242 609 221 631 q 301 586 262 586 q 369 611 344 586 q 395 679 395 636 z "},"«":{"ha":868,"x_min":107,"x_max":737,"o":"m 737 725 l 737 625 l 575 407 l 737 189 l 737 89 l 419 350 l 419 464 l 737 725 m 425 725 l 425 625 l 262 407 l 425 189 l 425 89 l 107 350 l 107 464 l 425 725 z "},"¬":{"ha":1164,"x_min":147,"x_max":1017,"o":"m 147 612 l 1017 612 l 1017 195 l 861 195 l 861 458 l 147 458 l 147 612 z "},"­":{"ha":576,"x_min":75,"x_max":501,"o":"m 75 464 l 501 464 l 501 281 l 75 281 l 75 464 z "},"®":{"ha":1389,"x_min":192,"x_max":1197,"o":"m 791 511 q 838 486 817 504 q 871 440 858 468 l 939 294 l 979 294 l 979 239 l 828 239 l 749 411 q 707 472 727 457 q 650 486 687 486 l 632 486 l 632 294 l 690 294 l 690 239 l 440 239 l 440 294 l 498 294 l 498 730 l 440 730 l 440 786 l 747 786 q 876 749 829 786 q 922 647 922 711 q 889 552 922 587 q 791 511 855 517 m 632 542 l 677 542 q 760 566 731 542 q 789 636 789 591 q 760 706 789 682 q 677 730 731 730 l 632 730 l 632 542 m 694 1007 q 887 970 798 1007 q 1050 859 976 932 q 1160 696 1124 785 q 1197 503 1197 607 q 1160 311 1197 399 q 1050 149 1124 222 q 887 37 976 75 q 694 0 798 0 q 502 37 591 0 q 339 149 413 75 q 229 311 265 222 q 192 503 192 399 q 229 696 192 607 q 339 859 265 785 q 502 970 413 932 q 694 1007 591 1007 m 694 903 q 542 873 612 903 q 412 785 471 844 q 325 656 354 726 q 296 503 296 586 q 325 350 296 420 q 412 221 354 279 q 542 134 471 163 q 694 104 612 104 q 848 133 778 104 q 977 221 918 162 q 1064 350 1035 279 q 1093 503 1093 420 q 1064 656 1093 586 q 977 785 1035 726 q 847 873 917 844 q 694 903 777 903 z "},"¯":{"ha":694,"x_min":134,"x_max":561,"o":"m 134 1050 l 561 1050 l 561 922 l 134 922 l 134 1050 z "},"°":{"ha":694,"x_min":121,"x_max":572,"o":"m 347 1040 q 433 1023 392 1040 q 507 974 475 1006 q 556 901 539 941 q 572 814 572 860 q 556 727 572 768 q 509 656 539 686 q 434 606 476 623 q 346 589 392 589 q 185 653 250 589 q 121 814 121 718 q 186 975 121 909 q 347 1040 252 1040 m 347 930 q 264 897 298 930 q 231 814 231 863 q 264 732 231 765 q 347 699 298 699 q 430 732 396 699 q 464 814 464 766 q 430 897 464 863 q 347 930 395 930 z "},"±":{"ha":1164,"x_min":147,"x_max":1017,"o":"m 147 154 l 1017 154 l 1017 0 l 147 0 l 147 154 m 660 871 l 660 628 l 1017 628 l 1017 473 l 660 473 l 660 231 l 504 231 l 504 473 l 147 473 l 147 628 l 504 628 l 504 871 l 660 871 z "},"²":{"ha":608,"x_min":58,"x_max":530,"o":"m 127 871 l 64 871 l 64 1003 q 164 1024 113 1017 q 269 1031 215 1031 q 460 987 392 1031 q 528 867 528 944 q 491 767 528 811 q 347 663 454 724 l 182 568 l 463 568 l 463 633 l 530 633 l 530 464 l 58 464 l 58 554 l 146 611 q 307 742 273 694 q 340 852 340 789 q 312 942 340 909 q 235 974 284 974 q 162 946 192 974 q 127 871 133 918 z "},"³":{"ha":608,"x_min":61,"x_max":553,"o":"m 75 1004 q 185 1024 135 1017 q 279 1031 236 1031 q 465 995 401 1031 q 528 892 528 960 q 492 811 528 843 q 387 768 456 779 q 511 720 469 758 q 553 619 553 682 q 484 495 553 536 q 278 453 414 453 q 170 460 224 453 q 61 482 115 467 l 61 618 l 126 618 q 160 537 131 564 q 243 510 189 510 q 334 539 302 510 q 366 624 366 568 q 332 708 366 678 q 237 737 299 737 l 210 737 l 210 794 l 231 794 q 315 817 286 794 q 345 884 345 840 q 318 950 345 926 q 243 974 292 974 q 171 949 198 974 q 140 881 144 924 l 75 880 l 75 1004 z "},"´":{"ha":694,"x_min":235,"x_max":599,"o":"m 410 1111 l 599 1111 l 346 856 l 235 856 l 410 1111 z "},"µ":{"ha":1017,"x_min":39,"x_max":970,"o":"m 867 721 l 867 82 l 970 82 l 970 0 l 627 0 l 627 85 q 552 4 589 28 q 465 -20 515 -20 q 424 -13 444 -20 q 382 8 404 -6 l 382 -207 l 485 -207 l 485 -289 l 39 -289 l 39 -207 l 142 -207 l 142 639 l 39 639 l 39 721 l 382 721 l 382 317 q 405 130 382 168 q 488 93 428 93 q 593 147 559 93 q 627 317 627 201 l 627 639 l 538 639 l 538 721 l 867 721 z "},"¶":{"ha":884,"x_min":100,"x_max":799,"o":"m 422 1013 l 799 1013 l 799 928 l 722 928 l 722 -134 l 619 -134 l 619 928 l 509 928 l 509 -134 l 406 -134 l 406 440 q 180 527 260 452 q 100 726 100 602 q 188 934 100 855 q 422 1013 276 1013 z "},"·":{"ha":484,"x_min":113,"x_max":371,"o":"m 113 482 q 151 573 113 535 q 241 611 189 611 q 333 573 295 611 q 371 482 371 535 q 333 392 371 429 q 241 354 295 354 q 151 392 189 354 q 113 482 113 429 z "},"¸":{"ha":694,"x_min":178,"x_max":485,"o":"m 403 0 q 465 -80 445 -43 q 485 -153 485 -117 q 441 -241 485 -211 q 315 -272 397 -272 q 248 -268 283 -272 q 178 -254 214 -263 l 178 -149 q 237 -166 208 -160 q 290 -172 266 -172 q 352 -156 331 -172 q 374 -110 374 -140 q 362 -68 374 -91 q 317 0 351 -46 l 403 0 z "},"¹":{"ha":608,"x_min":97,"x_max":513,"o":"m 110 464 l 110 528 l 221 528 l 221 943 l 97 875 l 97 946 l 248 1031 l 401 1031 l 401 528 l 513 528 l 513 464 l 110 464 z "},"º":{"ha":694,"x_min":41,"x_max":653,"o":"m 77 433 l 618 433 l 618 342 l 77 342 l 77 433 m 347 558 q 421 606 399 558 q 444 765 444 654 q 421 924 444 876 q 347 972 399 972 q 273 925 295 972 q 250 765 250 878 q 273 606 250 653 q 347 558 295 558 m 347 500 q 122 570 203 500 q 41 765 41 641 q 122 960 41 889 q 347 1031 203 1031 q 572 960 491 1031 q 653 765 653 889 q 572 570 653 641 q 347 500 491 500 z "},"»":{"ha":868,"x_min":131,"x_max":761,"o":"m 131 725 l 449 464 l 449 350 l 131 89 l 131 189 l 293 407 l 131 625 l 131 725 m 443 725 l 761 464 l 761 350 l 443 89 l 443 189 l 606 407 l 443 625 l 443 725 z "},"¼":{"ha":1449,"x_min":97,"x_max":1401,"o":"m 1386 11 l 1035 11 l 1035 75 l 1120 75 l 1120 157 l 873 157 l 873 216 l 1131 578 l 1301 578 l 1301 220 l 1401 220 l 1401 157 l 1301 157 l 1301 75 l 1386 75 l 1386 11 m 1120 220 l 1120 447 l 957 220 l 1120 220 m 110 464 l 110 528 l 221 528 l 221 943 l 97 875 l 97 946 l 248 1031 l 401 1031 l 401 528 l 513 528 l 513 464 l 110 464 m 983 1031 l 1099 1031 l 465 -20 l 350 -20 l 983 1031 z "},"½":{"ha":1449,"x_min":97,"x_max":1371,"o":"m 110 464 l 110 528 l 221 528 l 221 943 l 97 875 l 97 946 l 248 1031 l 401 1031 l 401 528 l 513 528 l 513 464 l 110 464 m 983 1031 l 1099 1031 l 465 -20 l 350 -20 l 983 1031 m 968 418 l 904 418 l 904 550 q 1004 571 953 564 q 1109 578 1055 578 q 1300 534 1232 578 q 1368 414 1368 491 q 1331 314 1368 358 q 1187 210 1294 271 l 1022 115 l 1303 115 l 1303 180 l 1371 180 l 1371 11 l 899 11 l 899 101 l 986 158 q 1147 289 1113 241 q 1181 399 1181 336 q 1153 489 1181 456 q 1075 521 1124 521 q 1003 493 1032 521 q 968 418 973 465 z "},"¾":{"ha":1449,"x_min":61,"x_max":1401,"o":"m 1386 11 l 1035 11 l 1035 75 l 1120 75 l 1120 157 l 873 157 l 873 216 l 1131 578 l 1301 578 l 1301 220 l 1401 220 l 1401 157 l 1301 157 l 1301 75 l 1386 75 l 1386 11 m 1120 220 l 1120 447 l 957 220 l 1120 220 m 75 1004 q 185 1024 135 1017 q 279 1031 236 1031 q 465 995 401 1031 q 528 892 528 960 q 492 811 528 843 q 387 768 456 779 q 511 720 469 758 q 553 619 553 682 q 484 495 553 536 q 278 453 414 453 q 170 460 224 453 q 61 482 115 467 l 61 618 l 126 618 q 160 537 131 564 q 243 510 189 510 q 334 539 302 510 q 366 624 366 568 q 332 708 366 678 q 237 737 299 737 l 210 737 l 210 794 l 231 794 q 315 817 286 794 q 345 884 345 840 q 318 950 345 926 q 243 974 292 974 q 171 949 198 974 q 140 881 144 924 l 75 880 l 75 1004 m 983 1031 l 1099 1031 l 465 -20 l 350 -20 l 983 1031 z "},"¿":{"ha":814,"x_min":62,"x_max":724,"o":"m 582 901 q 544 811 582 848 q 453 774 506 774 q 362 811 399 774 q 325 901 325 848 q 362 993 325 955 q 453 1031 400 1031 q 544 992 506 1031 q 582 901 582 954 m 724 26 q 564 -8 640 3 q 416 -20 488 -20 q 154 55 245 -20 q 62 269 62 130 q 151 485 62 406 q 406 576 239 564 l 406 715 l 500 715 l 500 513 q 361 421 406 484 q 317 254 317 358 q 358 106 317 156 q 481 57 399 57 q 595 102 555 57 q 642 235 635 146 l 724 235 l 724 26 z "},"À":{"ha":1078,"x_min":-11,"x_max":1093,"o":"m -11 0 l -11 82 l 72 82 l 453 1013 l 615 1013 l 997 82 l 1093 82 l 1093 0 l 619 0 l 619 82 l 718 82 l 635 289 l 254 289 l 170 82 l 290 82 l 290 0 l -11 0 m 288 371 l 602 371 l 446 758 l 288 371 m 513 1288 l 636 1109 l 525 1109 l 323 1288 l 513 1288 z "},"Á":{"ha":1078,"x_min":-11,"x_max":1093,"o":"m -11 0 l -11 82 l 72 82 l 453 1013 l 615 1013 l 997 82 l 1093 82 l 1093 0 l 619 0 l 619 82 l 718 82 l 635 289 l 254 289 l 170 82 l 290 82 l 290 0 l -11 0 m 288 371 l 602 371 l 446 758 l 288 371 m 534 1288 l 724 1288 l 522 1109 l 411 1109 l 534 1288 z "},"Â":{"ha":1078,"x_min":-11,"x_max":1093,"o":"m -11 0 l -11 82 l 72 82 l 453 1013 l 615 1013 l 997 82 l 1093 82 l 1093 0 l 619 0 l 619 82 l 718 82 l 635 289 l 254 289 l 170 82 l 290 82 l 290 0 l -11 0 m 288 371 l 602 371 l 446 758 l 288 371 m 419 1288 l 628 1288 l 779 1109 l 668 1109 l 524 1218 l 379 1109 l 268 1109 l 419 1288 z "},"Ã":{"ha":1078,"x_min":-11,"x_max":1093,"o":"m -11 0 l -11 82 l 72 82 l 453 1013 l 615 1013 l 997 82 l 1093 82 l 1093 0 l 619 0 l 619 82 l 718 82 l 635 289 l 254 289 l 170 82 l 290 82 l 290 0 l -11 0 m 288 371 l 602 371 l 446 758 l 288 371 m 281 1109 l 281 1117 q 317 1245 281 1200 q 422 1291 354 1291 q 517 1264 463 1291 q 526 1260 524 1261 l 575 1238 q 606 1226 594 1229 q 631 1223 618 1223 q 675 1240 659 1223 q 692 1286 692 1257 l 692 1289 l 766 1289 l 766 1279 q 730 1152 766 1196 q 625 1107 694 1107 q 579 1114 602 1107 q 521 1138 557 1120 l 482 1157 q 447 1171 464 1166 q 416 1175 429 1175 q 372 1158 389 1175 q 355 1112 355 1141 l 355 1109 l 281 1109 z "},"Ä":{"ha":1078,"x_min":-11,"x_max":1093,"o":"m -11 0 l -11 82 l 72 82 l 453 1013 l 615 1013 l 997 82 l 1093 82 l 1093 0 l 619 0 l 619 82 l 718 82 l 635 289 l 254 289 l 170 82 l 290 82 l 290 0 l -11 0 m 288 371 l 602 371 l 446 758 l 288 371 m 272 1204 q 302 1275 272 1245 q 372 1304 332 1304 q 441 1275 412 1304 q 471 1204 471 1245 q 442 1135 471 1164 q 372 1105 413 1105 q 302 1135 332 1105 q 272 1204 272 1164 m 575 1204 q 605 1275 575 1245 q 675 1304 634 1304 q 745 1275 715 1304 q 775 1204 775 1245 q 745 1135 775 1164 q 675 1105 715 1105 q 605 1135 634 1105 q 575 1204 575 1164 z "},"Å":{"ha":1078,"x_min":-11,"x_max":1093,"o":"m 446 1096 q 472 1033 446 1059 q 534 1007 498 1007 q 598 1033 572 1007 q 624 1096 624 1059 q 597 1159 624 1133 q 534 1185 571 1185 q 472 1159 498 1185 q 446 1096 446 1133 m -11 0 l -11 82 l 72 82 l 424 939 q 363 1005 385 964 q 342 1096 342 1046 q 398 1232 342 1175 q 534 1289 455 1289 q 671 1232 614 1289 q 728 1096 728 1175 q 707 1006 728 1046 q 646 939 686 966 l 997 82 l 1093 82 l 1093 0 l 619 0 l 619 82 l 718 82 l 635 289 l 254 289 l 170 82 l 290 82 l 290 0 l -11 0 m 288 371 l 602 371 l 447 758 l 288 371 z "},"Æ":{"ha":1436,"x_min":-43,"x_max":1364,"o":"m 272 370 l 587 370 l 587 930 l 536 930 l 272 370 m 458 0 l 458 82 l 587 82 l 587 288 l 233 288 l 136 82 l 248 82 l 248 0 l -43 0 l -43 82 l 35 82 l 436 930 l 300 930 l 300 1013 l 1352 1013 l 1352 774 l 1258 774 l 1258 920 l 850 920 l 850 595 l 1099 595 l 1099 724 l 1190 724 l 1190 374 l 1099 374 l 1099 503 l 850 503 l 850 93 l 1272 93 l 1272 239 l 1364 239 l 1364 0 l 458 0 z "},"Ç":{"ha":1105,"x_min":58,"x_max":1035,"o":"m 1035 289 q 891 56 995 132 q 612 -20 787 -20 q 207 122 356 -20 q 58 505 58 263 q 207 889 58 748 q 612 1031 356 1031 q 800 1009 703 1031 q 1007 943 898 987 l 1007 694 l 921 694 q 825 885 895 822 q 640 949 755 949 q 420 840 492 949 q 349 505 349 731 q 420 171 349 279 q 642 62 492 62 q 807 119 743 62 q 900 289 871 175 l 1035 289 m 652 0 q 714 -80 694 -43 q 734 -153 734 -117 q 690 -241 734 -211 q 564 -272 646 -272 q 497 -268 532 -272 q 427 -254 463 -263 l 427 -149 q 486 -166 457 -160 q 539 -172 515 -172 q 601 -156 580 -172 q 623 -110 623 -140 q 611 -68 623 -91 q 566 0 600 -46 l 652 0 z "},"È":{"ha":1059,"x_min":65,"x_max":987,"o":"m 65 0 l 65 82 l 195 82 l 195 930 l 65 930 l 65 1013 l 975 1013 l 975 774 l 882 774 l 882 920 l 456 920 l 456 595 l 721 595 l 721 724 l 814 724 l 814 374 l 721 374 l 721 503 l 456 503 l 456 93 l 895 93 l 895 239 l 987 239 l 987 0 l 65 0 m 542 1288 l 665 1109 l 554 1109 l 353 1288 l 542 1288 z "},"É":{"ha":1059,"x_min":65,"x_max":987,"o":"m 65 0 l 65 82 l 195 82 l 195 930 l 65 930 l 65 1013 l 975 1013 l 975 774 l 882 774 l 882 920 l 456 920 l 456 595 l 721 595 l 721 724 l 814 724 l 814 374 l 721 374 l 721 503 l 456 503 l 456 93 l 895 93 l 895 239 l 987 239 l 987 0 l 65 0 m 564 1288 l 753 1288 l 551 1109 l 440 1109 l 564 1288 z "},"Ê":{"ha":1059,"x_min":65,"x_max":987,"o":"m 65 0 l 65 82 l 195 82 l 195 930 l 65 930 l 65 1013 l 975 1013 l 975 774 l 882 774 l 882 920 l 456 920 l 456 595 l 721 595 l 721 724 l 814 724 l 814 374 l 721 374 l 721 503 l 456 503 l 456 93 l 895 93 l 895 239 l 987 239 l 987 0 l 65 0 m 448 1288 l 657 1288 l 808 1109 l 697 1109 l 553 1218 l 408 1109 l 297 1109 l 448 1288 z "},"Ë":{"ha":1059,"x_min":65,"x_max":987,"o":"m 65 0 l 65 82 l 195 82 l 195 930 l 65 930 l 65 1013 l 975 1013 l 975 774 l 882 774 l 882 920 l 456 920 l 456 595 l 721 595 l 721 724 l 814 724 l 814 374 l 721 374 l 721 503 l 456 503 l 456 93 l 895 93 l 895 239 l 987 239 l 987 0 l 65 0 m 301 1204 q 331 1275 301 1245 q 401 1304 361 1304 q 471 1275 441 1304 q 500 1204 500 1245 q 471 1135 500 1164 q 401 1105 442 1105 q 331 1135 361 1105 q 301 1204 301 1164 m 604 1204 q 634 1275 604 1245 q 704 1304 663 1304 q 774 1275 745 1304 q 804 1204 804 1245 q 774 1135 804 1164 q 704 1105 745 1105 q 634 1135 663 1105 q 604 1204 604 1164 z "},"Ì":{"ha":650,"x_min":65,"x_max":586,"o":"m 65 0 l 65 82 l 195 82 l 195 930 l 65 930 l 65 1013 l 586 1013 l 586 930 l 456 930 l 456 82 l 586 82 l 586 0 l 65 0 m 314 1288 l 437 1109 l 326 1109 l 125 1288 l 314 1288 z "},"Í":{"ha":650,"x_min":65,"x_max":586,"o":"m 65 0 l 65 82 l 195 82 l 195 930 l 65 930 l 65 1013 l 586 1013 l 586 930 l 456 930 l 456 82 l 586 82 l 586 0 l 65 0 m 336 1288 l 525 1288 l 323 1109 l 212 1109 l 336 1288 z "},"Î":{"ha":650,"x_min":65,"x_max":586,"o":"m 65 0 l 65 82 l 195 82 l 195 930 l 65 930 l 65 1013 l 586 1013 l 586 930 l 456 930 l 456 82 l 586 82 l 586 0 l 65 0 m 220 1288 l 429 1288 l 581 1109 l 469 1109 l 325 1218 l 180 1109 l 69 1109 l 220 1288 z "},"Ï":{"ha":650,"x_min":65,"x_max":586,"o":"m 65 0 l 65 82 l 195 82 l 195 930 l 65 930 l 65 1013 l 586 1013 l 586 930 l 456 930 l 456 82 l 586 82 l 586 0 l 65 0 m 73 1204 q 103 1275 73 1245 q 174 1304 133 1304 q 243 1275 214 1304 q 272 1204 272 1245 q 243 1135 272 1164 q 174 1105 214 1105 q 103 1135 133 1105 q 73 1204 73 1164 m 376 1204 q 406 1275 376 1245 q 476 1304 435 1304 q 547 1275 517 1304 q 576 1204 576 1245 q 547 1135 576 1164 q 476 1105 517 1105 q 406 1135 435 1105 q 376 1204 376 1164 z "},"Ð":{"ha":1214,"x_min":60,"x_max":1154,"o":"m 465 82 l 559 82 q 791 183 718 82 q 864 507 864 285 q 791 829 864 728 q 559 930 718 930 l 465 930 l 465 576 l 690 576 l 690 484 l 465 484 l 465 82 m 74 0 l 74 82 l 204 82 l 204 484 l 60 484 l 60 576 l 204 576 l 204 930 l 74 930 l 74 1013 l 595 1013 q 1010 883 866 1013 q 1154 507 1154 753 q 1010 131 1154 261 q 595 0 866 0 l 74 0 z "},"Ñ":{"ha":1270,"x_min":61,"x_max":1214,"o":"m 61 0 l 61 82 l 191 82 l 191 930 l 61 930 l 61 1013 l 378 1013 l 989 296 l 989 930 l 860 930 l 860 1013 l 1214 1013 l 1214 930 l 1084 930 l 1084 0 l 907 0 l 286 732 l 286 82 l 415 82 l 415 0 l 61 0 m 392 1109 l 392 1117 q 429 1245 392 1200 q 533 1291 465 1291 q 629 1264 574 1291 q 637 1260 635 1261 l 686 1238 q 718 1226 705 1229 q 742 1223 730 1223 q 786 1240 770 1223 q 803 1286 803 1257 l 803 1289 l 878 1289 l 878 1279 q 841 1152 878 1196 q 736 1107 805 1107 q 691 1114 713 1107 q 632 1138 668 1120 l 593 1157 q 558 1171 575 1166 q 528 1175 541 1175 q 483 1158 500 1175 q 467 1112 467 1141 l 467 1109 l 392 1109 z "},"Ò":{"ha":1210,"x_min":58,"x_max":1150,"o":"m 604 62 q 797 172 734 62 q 860 505 860 281 q 797 840 860 730 q 604 949 734 949 q 412 839 475 949 q 349 505 349 728 q 412 173 349 283 q 604 62 475 62 m 604 -20 q 203 120 349 -20 q 58 505 58 260 q 204 891 58 751 q 604 1031 349 1031 q 1005 891 860 1031 q 1150 505 1150 751 q 1005 120 1150 260 q 604 -20 859 -20 m 595 1288 l 718 1109 l 607 1109 l 406 1288 l 595 1288 z "},"Ó":{"ha":1210,"x_min":58,"x_max":1150,"o":"m 604 62 q 797 172 734 62 q 860 505 860 281 q 797 840 860 730 q 604 949 734 949 q 412 839 475 949 q 349 505 349 728 q 412 173 349 283 q 604 62 475 62 m 604 -20 q 203 120 349 -20 q 58 505 58 260 q 204 891 58 751 q 604 1031 349 1031 q 1005 891 860 1031 q 1150 505 1150 751 q 1005 120 1150 260 q 604 -20 859 -20 m 616 1288 l 806 1288 l 604 1109 l 493 1109 l 616 1288 z "},"Ô":{"ha":1210,"x_min":58,"x_max":1150,"o":"m 604 62 q 797 172 734 62 q 860 505 860 281 q 797 840 860 730 q 604 949 734 949 q 412 839 475 949 q 349 505 349 728 q 412 173 349 283 q 604 62 475 62 m 604 -20 q 203 120 349 -20 q 58 505 58 260 q 204 891 58 751 q 604 1031 349 1031 q 1005 891 860 1031 q 1150 505 1150 751 q 1005 120 1150 260 q 604 -20 859 -20 m 501 1288 l 710 1288 l 861 1109 l 750 1109 l 606 1218 l 461 1109 l 350 1109 l 501 1288 z "},"Õ":{"ha":1210,"x_min":58,"x_max":1150,"o":"m 604 62 q 797 172 734 62 q 860 505 860 281 q 797 840 860 730 q 604 949 734 949 q 412 839 475 949 q 349 505 349 728 q 412 173 349 283 q 604 62 475 62 m 604 -20 q 203 120 349 -20 q 58 505 58 260 q 204 891 58 751 q 604 1031 349 1031 q 1005 891 860 1031 q 1150 505 1150 751 q 1005 120 1150 260 q 604 -20 859 -20 m 363 1109 l 363 1117 q 399 1245 363 1200 q 504 1291 436 1291 q 600 1264 545 1291 q 608 1260 606 1261 l 657 1238 q 688 1226 676 1229 q 713 1223 701 1223 q 757 1240 741 1223 q 774 1286 774 1257 l 774 1289 l 848 1289 l 848 1279 q 812 1152 848 1196 q 707 1107 776 1107 q 662 1114 684 1107 q 603 1138 639 1120 l 564 1157 q 529 1171 546 1166 q 498 1175 511 1175 q 454 1158 471 1175 q 437 1112 437 1141 l 437 1109 l 363 1109 z "},"Ö":{"ha":1210,"x_min":58,"x_max":1150,"o":"m 604 62 q 797 172 734 62 q 860 505 860 281 q 797 840 860 730 q 604 949 734 949 q 412 839 475 949 q 349 505 349 728 q 412 173 349 283 q 604 62 475 62 m 604 -20 q 203 120 349 -20 q 58 505 58 260 q 204 891 58 751 q 604 1031 349 1031 q 1005 891 860 1031 q 1150 505 1150 751 q 1005 120 1150 260 q 604 -20 859 -20 m 354 1204 q 384 1275 354 1245 q 454 1304 414 1304 q 524 1275 494 1304 q 553 1204 553 1245 q 524 1135 553 1164 q 454 1105 495 1105 q 384 1135 414 1105 q 354 1204 354 1164 m 657 1204 q 687 1275 657 1245 q 757 1304 716 1304 q 827 1275 798 1304 q 857 1204 857 1245 q 827 1135 857 1164 q 757 1105 798 1105 q 687 1135 716 1105 q 657 1204 657 1164 z "},"×":{"ha":1164,"x_min":179,"x_max":985,"o":"m 985 733 l 686 435 l 985 136 l 880 32 l 582 330 l 283 32 l 179 136 l 478 435 l 179 733 l 283 839 l 582 541 l 880 839 l 985 733 z "},"Ø":{"ha":1210,"x_min":46,"x_max":1162,"o":"m 363 325 l 822 785 q 738 907 793 865 q 604 949 683 949 q 412 839 475 949 q 349 505 349 728 q 352 409 349 454 q 363 325 355 364 m 387 227 q 472 103 418 144 q 604 62 526 62 q 799 176 736 62 q 861 532 861 289 q 857 610 861 576 q 844 673 853 644 l 387 227 m 1028 868 q 1120 707 1089 798 q 1150 505 1150 616 q 1005 120 1150 260 q 604 -20 859 -20 q 407 7 497 -20 q 245 86 317 33 l 107 -53 l 46 8 l 182 144 q 89 304 120 214 q 58 505 58 395 q 204 891 58 751 q 604 1031 349 1031 q 803 1005 713 1031 q 964 926 893 979 l 1101 1064 l 1162 1003 l 1028 868 z "},"Ù":{"ha":1211,"x_min":47,"x_max":1181,"o":"m 176 930 l 47 930 l 47 1013 l 568 1013 l 568 930 l 439 930 l 439 424 q 498 159 439 235 q 700 83 557 83 q 898 160 840 83 q 957 424 957 236 l 957 930 l 828 930 l 828 1013 l 1181 1013 l 1181 930 l 1051 930 l 1051 410 q 951 79 1051 178 q 614 -20 850 -20 q 277 80 378 -20 q 176 411 176 180 l 176 930 m 629 1288 l 753 1109 l 642 1109 l 440 1288 l 629 1288 z "},"Ú":{"ha":1211,"x_min":47,"x_max":1181,"o":"m 176 930 l 47 930 l 47 1013 l 568 1013 l 568 930 l 439 930 l 439 424 q 498 159 439 235 q 700 83 557 83 q 898 160 840 83 q 957 424 957 236 l 957 930 l 828 930 l 828 1013 l 1181 1013 l 1181 930 l 1051 930 l 1051 410 q 951 79 1051 178 q 614 -20 850 -20 q 277 80 378 -20 q 176 411 176 180 l 176 930 m 651 1288 l 840 1288 l 639 1109 l 528 1109 l 651 1288 z "},"Û":{"ha":1211,"x_min":47,"x_max":1181,"o":"m 176 930 l 47 930 l 47 1013 l 568 1013 l 568 930 l 439 930 l 439 424 q 498 159 439 235 q 700 83 557 83 q 898 160 840 83 q 957 424 957 236 l 957 930 l 828 930 l 828 1013 l 1181 1013 l 1181 930 l 1051 930 l 1051 410 q 951 79 1051 178 q 614 -20 850 -20 q 277 80 378 -20 q 176 411 176 180 l 176 930 m 536 1288 l 745 1288 l 896 1109 l 785 1109 l 640 1218 l 496 1109 l 385 1109 l 536 1288 z "},"Ü":{"ha":1211,"x_min":47,"x_max":1181,"o":"m 176 930 l 47 930 l 47 1013 l 568 1013 l 568 930 l 439 930 l 439 424 q 498 159 439 235 q 700 83 557 83 q 898 160 840 83 q 957 424 957 236 l 957 930 l 828 930 l 828 1013 l 1181 1013 l 1181 930 l 1051 930 l 1051 410 q 951 79 1051 178 q 614 -20 850 -20 q 277 80 378 -20 q 176 411 176 180 l 176 930 m 389 1204 q 418 1275 389 1245 q 489 1304 448 1304 q 558 1275 529 1304 q 587 1204 587 1245 q 558 1135 587 1164 q 489 1105 530 1105 q 418 1135 448 1105 q 389 1204 389 1164 m 692 1204 q 721 1275 692 1245 q 791 1304 751 1304 q 862 1275 832 1304 q 892 1204 892 1245 q 862 1135 892 1164 q 791 1105 832 1105 q 721 1135 751 1105 q 692 1204 692 1164 z "},"Ý":{"ha":991,"x_min":-12,"x_max":1004,"o":"m 239 0 l 239 82 l 375 82 l 375 419 l 74 930 l -12 930 l -12 1013 l 473 1013 l 473 930 l 361 930 l 589 545 l 815 930 l 714 930 l 714 1013 l 1004 1013 l 1004 930 l 918 930 l 637 454 l 637 82 l 774 82 l 774 0 l 239 0 m 507 1288 l 696 1288 l 494 1109 l 383 1109 l 507 1288 z "},"Þ":{"ha":1051,"x_min":65,"x_max":1010,"o":"m 65 0 l 65 82 l 195 82 l 195 930 l 65 930 l 65 1013 l 618 1013 l 618 930 l 456 930 l 456 815 l 642 815 q 910 735 810 815 q 1010 519 1010 654 q 910 303 1010 385 q 642 222 810 222 l 456 222 l 456 82 l 619 82 l 619 0 l 65 0 m 456 304 l 532 304 q 672 363 620 304 q 725 519 725 421 q 673 675 725 617 q 532 733 621 733 l 456 733 l 456 304 z "},"ß":{"ha":1055,"x_min":47,"x_max":1007,"o":"m 676 828 q 639 946 671 912 q 530 979 606 979 q 423 939 456 979 q 390 807 390 899 l 390 0 l 47 0 l 47 82 l 150 82 l 150 778 q 245 985 150 914 q 522 1055 340 1055 q 792 984 701 1055 q 901 757 883 912 l 886 757 q 727 726 781 757 q 673 635 673 695 q 689 585 673 608 q 761 521 705 562 l 821 478 q 974 338 941 391 q 1007 211 1007 284 q 923 41 1007 102 q 686 -20 838 -20 q 573 -9 632 -20 q 446 21 513 1 l 446 196 l 528 196 q 570 90 536 123 q 667 57 603 57 q 750 87 718 57 q 782 165 782 117 q 671 316 782 237 q 649 332 656 326 l 589 375 q 489 478 519 425 q 458 603 458 532 q 513 750 458 694 q 676 828 567 806 z "},"à":{"ha":900,"x_min":57,"x_max":868,"o":"m 765 443 l 765 82 l 868 82 l 868 0 l 525 0 l 525 92 q 419 7 477 35 q 286 -20 361 -20 q 116 40 176 -20 q 57 210 57 99 q 142 391 57 331 q 399 452 227 452 l 525 452 l 525 494 q 484 624 525 582 q 355 665 442 665 q 244 636 283 665 q 189 539 205 606 l 113 539 l 113 694 q 246 729 177 718 q 392 741 315 741 q 675 669 585 741 q 765 443 765 597 m 525 227 l 525 371 l 435 371 q 332 334 368 371 q 296 229 296 298 q 322 127 296 161 q 401 93 348 93 q 491 130 457 93 q 525 227 525 166 m 345 1111 l 519 856 l 408 856 l 155 1111 l 345 1111 z "},"á":{"ha":900,"x_min":57,"x_max":868,"o":"m 765 443 l 765 82 l 868 82 l 868 0 l 525 0 l 525 92 q 419 7 477 35 q 286 -20 361 -20 q 116 40 176 -20 q 57 210 57 99 q 142 391 57 331 q 399 452 227 452 l 525 452 l 525 494 q 484 624 525 582 q 355 665 442 665 q 244 636 283 665 q 189 539 205 606 l 113 539 l 113 694 q 246 729 177 718 q 392 741 315 741 q 675 669 585 741 q 765 443 765 597 m 525 227 l 525 371 l 435 371 q 332 334 368 371 q 296 229 296 298 q 322 127 296 161 q 401 93 348 93 q 491 130 457 93 q 525 227 525 166 m 469 1111 l 659 1111 l 406 856 l 294 856 l 469 1111 z "},"â":{"ha":900,"x_min":57,"x_max":868,"o":"m 765 443 l 765 82 l 868 82 l 868 0 l 525 0 l 525 92 q 419 7 477 35 q 286 -20 361 -20 q 116 40 176 -20 q 57 210 57 99 q 142 391 57 331 q 399 452 227 452 l 525 452 l 525 494 q 484 624 525 582 q 355 665 442 665 q 244 636 283 665 q 189 539 205 606 l 113 539 l 113 694 q 246 729 177 718 q 392 741 315 741 q 675 669 585 741 q 765 443 765 597 m 525 227 l 525 371 l 435 371 q 332 334 368 371 q 296 229 296 298 q 322 127 296 161 q 401 93 348 93 q 491 130 457 93 q 525 227 525 166 m 325 1111 l 489 1111 l 663 856 l 551 856 l 407 1008 l 262 856 l 151 856 l 325 1111 z "},"ã":{"ha":900,"x_min":57,"x_max":868,"o":"m 765 443 l 765 82 l 868 82 l 868 0 l 525 0 l 525 92 q 419 7 477 35 q 286 -20 361 -20 q 116 40 176 -20 q 57 210 57 99 q 142 391 57 331 q 399 452 227 452 l 525 452 l 525 494 q 484 624 525 582 q 355 665 442 665 q 244 636 283 665 q 189 539 205 606 l 113 539 l 113 694 q 246 729 177 718 q 392 741 315 741 q 675 669 585 741 q 765 443 765 597 m 525 227 l 525 371 l 435 371 q 332 334 368 371 q 296 229 296 298 q 322 127 296 161 q 401 93 348 93 q 491 130 457 93 q 525 227 525 166 m 164 888 l 164 899 q 200 1049 164 998 q 305 1100 236 1100 q 354 1092 330 1100 q 410 1063 378 1083 l 458 1031 l 460 1029 q 514 1010 490 1010 q 558 1034 542 1010 q 575 1099 575 1057 l 650 1099 l 650 1088 q 614 938 650 989 q 509 886 578 886 q 459 895 484 886 q 404 924 435 903 l 355 956 l 355 956 q 300 977 324 977 q 255 953 272 977 q 239 888 239 929 l 164 888 z "},"ä":{"ha":900,"x_min":57,"x_max":868,"o":"m 765 443 l 765 82 l 868 82 l 868 0 l 525 0 l 525 92 q 419 7 477 35 q 286 -20 361 -20 q 116 40 176 -20 q 57 210 57 99 q 142 391 57 331 q 399 452 227 452 l 525 452 l 525 494 q 484 624 525 582 q 355 665 442 665 q 244 636 283 665 q 189 539 205 606 l 113 539 l 113 694 q 246 729 177 718 q 392 741 315 741 q 675 669 585 741 q 765 443 765 597 m 525 227 l 525 371 l 435 371 q 332 334 368 371 q 296 229 296 298 q 322 127 296 161 q 401 93 348 93 q 491 130 457 93 q 525 227 525 166 m 155 996 q 185 1065 155 1036 q 256 1095 215 1095 q 325 1065 296 1095 q 354 996 354 1036 q 325 925 354 955 q 256 896 296 896 q 185 926 215 896 q 155 996 155 956 m 458 996 q 488 1065 458 1036 q 558 1095 517 1095 q 629 1065 599 1095 q 659 996 659 1036 q 629 926 659 956 q 558 896 599 896 q 488 926 517 896 q 458 996 458 956 z "},"å":{"ha":900,"x_min":57,"x_max":868,"o":"m 765 443 l 765 82 l 868 82 l 868 0 l 525 0 l 525 92 q 419 7 477 35 q 286 -20 361 -20 q 116 40 176 -20 q 57 210 57 99 q 142 391 57 331 q 399 452 227 452 l 525 452 l 525 494 q 484 624 525 582 q 355 665 442 665 q 244 636 283 665 q 189 539 205 606 l 113 539 l 113 694 q 246 729 177 718 q 392 741 315 741 q 675 669 585 741 q 765 443 765 597 m 525 227 l 525 371 l 435 371 q 332 334 368 371 q 296 229 296 298 q 322 127 296 161 q 401 93 348 93 q 491 130 457 93 q 525 227 525 166 m 214 1040 q 270 1177 214 1120 q 407 1234 327 1234 q 544 1177 487 1234 q 600 1040 600 1120 q 544 904 600 960 q 407 847 487 847 q 270 904 327 847 q 214 1040 214 960 m 318 1040 q 344 977 318 1003 q 407 951 370 951 q 470 978 444 951 q 496 1040 496 1004 q 470 1103 496 1077 q 407 1129 444 1129 q 344 1103 370 1129 q 318 1040 318 1077 z "},"æ":{"ha":1354,"x_min":57,"x_max":1290,"o":"m 1026 407 q 1000 607 1026 549 q 909 664 973 664 q 821 608 848 664 q 794 419 794 551 l 794 407 l 1026 407 m 661 635 q 776 714 713 688 q 914 741 839 741 q 1188 635 1093 741 q 1290 326 1284 530 l 794 326 l 794 321 q 836 119 794 181 q 972 57 878 57 q 1097 98 1050 57 q 1158 218 1145 139 l 1272 218 q 1157 38 1243 96 q 914 -20 1070 -20 q 753 6 823 -20 q 629 86 682 33 q 497 7 569 33 q 342 -20 426 -20 q 130 39 202 -20 q 57 210 57 98 q 143 392 57 332 q 406 452 230 452 l 532 452 l 532 494 q 484 618 532 573 q 353 664 436 664 q 244 634 283 664 q 189 539 205 605 l 113 539 l 113 694 q 246 729 177 718 q 392 741 315 741 q 551 714 485 741 q 661 635 618 688 m 532 224 l 532 371 l 441 371 q 332 334 368 371 q 296 220 296 296 q 322 111 296 143 q 410 78 349 78 q 500 116 468 78 q 532 224 532 154 z "},"ç":{"ha":846,"x_min":57,"x_max":783,"o":"m 783 225 q 678 41 758 102 q 461 -20 598 -20 q 163 80 269 -20 q 57 361 57 180 q 161 640 57 540 q 452 741 266 741 q 604 726 527 741 q 760 684 680 712 l 760 484 l 684 484 q 630 620 673 575 q 510 664 587 664 q 367 596 410 664 q 325 361 325 528 q 366 127 325 197 q 501 57 408 57 q 617 100 574 57 q 671 225 661 144 l 783 225 m 497 0 q 559 -80 539 -43 q 579 -153 579 -117 q 535 -241 579 -211 q 410 -272 492 -272 q 342 -268 377 -272 q 273 -254 308 -263 l 272 -149 q 331 -166 302 -160 q 385 -172 360 -172 q 447 -156 425 -172 q 468 -110 468 -140 q 457 -68 468 -91 q 411 0 446 -46 l 497 0 z "},"è":{"ha":884,"x_min":57,"x_max":821,"o":"m 557 407 q 530 607 557 549 q 440 664 504 664 q 352 608 378 664 q 325 419 325 551 l 325 407 l 557 407 m 821 326 l 325 326 l 325 321 q 367 119 325 181 q 503 57 409 57 q 629 98 581 57 q 690 218 677 140 l 803 218 q 687 38 774 96 q 444 -20 600 -20 q 157 79 257 -20 q 57 361 57 178 q 159 640 57 540 q 444 741 262 741 q 719 635 623 741 q 821 326 814 530 m 379 1111 l 554 856 l 443 856 l 190 1111 l 379 1111 z "},"é":{"ha":884,"x_min":57,"x_max":821,"o":"m 557 407 q 530 607 557 549 q 440 664 504 664 q 352 608 378 664 q 325 419 325 551 l 325 407 l 557 407 m 821 326 l 325 326 l 325 321 q 367 119 325 181 q 503 57 409 57 q 629 98 581 57 q 690 218 677 140 l 803 218 q 687 38 774 96 q 444 -20 600 -20 q 157 79 257 -20 q 57 361 57 178 q 159 640 57 540 q 444 741 262 741 q 719 635 623 741 q 821 326 814 530 m 504 1111 l 693 1111 l 440 856 l 329 856 l 504 1111 z "},"ê":{"ha":884,"x_min":57,"x_max":821,"o":"m 557 407 q 530 607 557 549 q 440 664 504 664 q 352 608 378 664 q 325 419 325 551 l 325 407 l 557 407 m 821 326 l 325 326 l 325 321 q 367 119 325 181 q 503 57 409 57 q 629 98 581 57 q 690 218 677 140 l 803 218 q 687 38 774 96 q 444 -20 600 -20 q 157 79 257 -20 q 57 361 57 178 q 159 640 57 540 q 444 741 262 741 q 719 635 623 741 q 821 326 814 530 m 359 1111 l 524 1111 l 697 856 l 586 856 l 441 1008 l 297 856 l 186 856 l 359 1111 z "},"ë":{"ha":884,"x_min":57,"x_max":821,"o":"m 557 407 q 530 607 557 549 q 440 664 504 664 q 352 608 378 664 q 325 419 325 551 l 325 407 l 557 407 m 821 326 l 325 326 l 325 321 q 367 119 325 181 q 503 57 409 57 q 629 98 581 57 q 690 218 677 140 l 803 218 q 687 38 774 96 q 444 -20 600 -20 q 157 79 257 -20 q 57 361 57 178 q 159 640 57 540 q 444 741 262 741 q 719 635 623 741 q 821 326 814 530 m 190 996 q 220 1065 190 1036 q 290 1095 250 1095 q 360 1065 331 1095 q 389 996 389 1036 q 359 925 389 955 q 290 896 330 896 q 220 926 250 896 q 190 996 190 956 m 493 996 q 523 1065 493 1036 q 593 1095 552 1095 q 663 1065 633 1095 q 693 996 693 1036 q 663 926 693 956 q 593 896 633 896 q 523 926 552 896 q 493 996 493 956 z "},"ì":{"ha":528,"x_min":12,"x_max":493,"o":"m 390 82 l 493 82 l 493 0 l 47 0 l 47 82 l 150 82 l 150 639 l 47 639 l 47 721 l 390 721 l 390 82 m 201 1111 l 376 856 l 265 856 l 12 1111 l 201 1111 z "},"í":{"ha":528,"x_min":47,"x_max":515,"o":"m 390 82 l 493 82 l 493 0 l 47 0 l 47 82 l 150 82 l 150 639 l 47 639 l 47 721 l 390 721 l 390 82 m 326 1111 l 515 1111 l 262 856 l 151 856 l 326 1111 z "},"î":{"ha":528,"x_min":8,"x_max":519,"o":"m 390 82 l 493 82 l 493 0 l 47 0 l 47 82 l 150 82 l 150 639 l 47 639 l 47 721 l 390 721 l 390 82 m 182 1111 l 346 1111 l 519 856 l 408 856 l 264 1008 l 119 856 l 8 856 l 182 1111 z "},"ï":{"ha":528,"x_min":12,"x_max":515,"o":"m 390 82 l 493 82 l 493 0 l 47 0 l 47 82 l 150 82 l 150 639 l 47 639 l 47 721 l 390 721 l 390 82 m 12 996 q 42 1065 12 1036 q 113 1095 72 1095 q 182 1065 153 1095 q 211 996 211 1036 q 182 925 211 955 q 113 896 153 896 q 42 926 72 896 q 12 996 12 956 m 315 996 q 345 1065 315 1036 q 415 1095 374 1095 q 486 1065 456 1095 q 515 996 515 1036 q 486 926 515 956 q 415 896 456 896 q 345 926 374 896 q 315 996 315 956 z "},"ð":{"ha":926,"x_min":57,"x_max":871,"o":"m 607 907 q 803 669 734 806 q 871 378 871 532 q 763 86 871 191 q 464 -20 655 -20 q 167 80 277 -20 q 57 345 57 179 q 165 603 57 500 q 439 705 273 705 q 496 701 467 705 q 555 689 526 697 q 519 769 541 732 q 465 842 497 806 l 249 741 l 215 808 l 404 897 q 317 944 369 923 q 197 981 265 965 l 216 1055 q 391 1019 311 1044 q 532 957 470 994 l 755 1061 l 787 991 l 607 907 m 568 604 q 511 623 536 617 q 464 629 486 629 q 357 565 389 629 q 325 345 325 500 q 357 121 325 186 q 464 57 389 57 q 570 121 539 57 q 602 345 602 184 q 593 482 602 417 q 568 604 585 547 z "},"ñ":{"ha":1010,"x_min":47,"x_max":978,"o":"m 47 0 l 47 82 l 150 82 l 150 639 l 47 639 l 47 721 l 390 721 l 390 619 q 489 712 433 684 q 629 741 545 741 q 813 669 751 741 q 875 458 875 597 l 875 82 l 978 82 l 978 0 l 547 0 l 547 82 l 635 82 l 635 465 q 611 592 635 557 q 530 628 588 628 q 424 575 458 628 q 390 406 390 522 l 390 82 l 478 82 l 478 0 l 47 0 m 250 888 l 250 899 q 286 1049 250 998 q 391 1100 322 1100 q 440 1092 416 1100 q 496 1063 465 1083 l 544 1031 l 546 1029 q 600 1010 576 1010 q 645 1034 628 1010 q 661 1099 661 1057 l 736 1099 l 736 1088 q 700 938 736 989 q 595 886 664 886 q 546 895 570 886 q 490 924 522 903 l 441 956 l 441 956 q 386 977 410 977 q 341 953 358 977 q 325 888 325 929 l 250 888 z "},"ò":{"ha":926,"x_min":57,"x_max":871,"o":"m 464 57 q 571 122 540 57 q 602 361 602 187 q 571 599 602 534 q 464 664 541 664 q 356 598 387 664 q 325 361 325 533 q 356 123 325 189 q 464 57 387 57 m 464 -20 q 165 82 273 -20 q 57 361 57 183 q 165 640 57 539 q 464 741 273 741 q 763 640 655 741 q 871 361 871 539 q 763 82 871 183 q 464 -20 654 -20 m 401 1111 l 576 856 l 465 856 l 212 1111 l 401 1111 z "},"ó":{"ha":926,"x_min":57,"x_max":871,"o":"m 464 57 q 571 122 540 57 q 602 361 602 187 q 571 599 602 534 q 464 664 541 664 q 356 598 387 664 q 325 361 325 533 q 356 123 325 189 q 464 57 387 57 m 464 -20 q 165 82 273 -20 q 57 361 57 183 q 165 640 57 539 q 464 741 273 741 q 763 640 655 741 q 871 361 871 539 q 763 82 871 183 q 464 -20 654 -20 m 526 1111 l 715 1111 l 463 856 l 351 856 l 526 1111 z "},"ô":{"ha":926,"x_min":57,"x_max":871,"o":"m 464 57 q 571 122 540 57 q 602 361 602 187 q 571 599 602 534 q 464 664 541 664 q 356 598 387 664 q 325 361 325 533 q 356 123 325 189 q 464 57 387 57 m 464 -20 q 165 82 273 -20 q 57 361 57 183 q 165 640 57 539 q 464 741 273 741 q 763 640 655 741 q 871 361 871 539 q 763 82 871 183 q 464 -20 654 -20 m 382 1111 l 546 1111 l 720 856 l 608 856 l 464 1008 l 319 856 l 208 856 l 382 1111 z "},"õ":{"ha":926,"x_min":57,"x_max":871,"o":"m 464 57 q 571 122 540 57 q 602 361 602 187 q 571 599 602 534 q 464 664 541 664 q 356 598 387 664 q 325 361 325 533 q 356 123 325 189 q 464 57 387 57 m 464 -20 q 165 82 273 -20 q 57 361 57 183 q 165 640 57 539 q 464 741 273 741 q 763 640 655 741 q 871 361 871 539 q 763 82 871 183 q 464 -20 654 -20 m 221 888 l 221 899 q 257 1049 221 998 q 362 1100 293 1100 q 411 1092 387 1100 q 467 1063 435 1083 l 515 1031 l 517 1029 q 571 1010 547 1010 q 615 1034 599 1010 q 632 1099 632 1057 l 707 1099 l 707 1088 q 671 938 707 989 q 566 886 635 886 q 516 895 541 886 q 461 924 492 903 l 412 956 l 412 956 q 357 977 381 977 q 312 953 329 977 q 296 888 296 929 l 221 888 z "},"ö":{"ha":926,"x_min":57,"x_max":871,"o":"m 464 57 q 571 122 540 57 q 602 361 602 187 q 571 599 602 534 q 464 664 541 664 q 356 598 387 664 q 325 361 325 533 q 356 123 325 189 q 464 57 387 57 m 464 -20 q 165 82 273 -20 q 57 361 57 183 q 165 640 57 539 q 464 741 273 741 q 763 640 655 741 q 871 361 871 539 q 763 82 871 183 q 464 -20 654 -20 m 212 996 q 242 1065 212 1036 q 313 1095 272 1095 q 382 1065 353 1095 q 411 996 411 1036 q 382 925 411 955 q 313 896 353 896 q 242 926 272 896 q 212 996 212 956 m 515 996 q 545 1065 515 1036 q 615 1095 574 1095 q 686 1065 656 1095 q 715 996 715 1036 q 686 926 715 956 q 615 896 656 896 q 545 926 574 896 q 515 996 515 956 z "},"÷":{"ha":1164,"x_min":147,"x_max":1017,"o":"m 481 686 q 511 758 481 728 q 582 787 541 787 q 654 758 624 787 q 684 686 684 728 q 654 614 684 644 q 582 585 624 585 q 511 614 541 585 q 481 686 481 644 m 481 184 q 511 256 481 227 q 582 286 541 286 q 654 256 624 286 q 684 184 684 227 q 654 113 684 143 q 582 83 624 83 q 511 113 541 83 q 481 184 481 143 m 147 513 l 1017 513 l 1017 358 l 147 358 l 147 513 z "},"ø":{"ha":926,"x_min":35,"x_max":892,"o":"m 326 282 l 589 543 q 547 634 577 604 q 464 664 516 664 q 358 599 389 664 q 326 375 326 534 l 326 282 m 339 178 q 380 87 349 117 q 464 57 412 57 q 569 121 538 57 q 600 345 600 184 l 600 440 l 339 178 m 781 619 q 848 506 825 570 q 871 361 871 441 q 763 82 871 183 q 464 -20 654 -20 q 326 -3 389 -20 q 208 47 262 14 l 92 -69 l 35 -11 l 146 100 q 79 216 102 151 q 57 361 57 281 q 165 640 57 539 q 464 741 273 741 q 607 724 543 741 q 720 673 671 707 l 833 787 l 892 729 l 781 619 z "},"ù":{"ha":1010,"x_min":32,"x_max":962,"o":"m 860 721 l 860 82 l 962 82 l 962 0 l 619 0 l 619 102 q 521 9 576 37 q 380 -20 465 -20 q 197 52 259 -20 q 135 262 135 123 l 135 639 l 32 639 l 32 721 l 375 721 l 375 300 q 397 129 375 165 q 479 93 420 93 q 586 146 552 93 q 619 317 619 200 l 619 639 l 532 639 l 532 721 l 860 721 m 417 1111 l 592 856 l 481 856 l 228 1111 l 417 1111 z "},"ú":{"ha":1010,"x_min":32,"x_max":962,"o":"m 860 721 l 860 82 l 962 82 l 962 0 l 619 0 l 619 102 q 521 9 576 37 q 380 -20 465 -20 q 197 52 259 -20 q 135 262 135 123 l 135 639 l 32 639 l 32 721 l 375 721 l 375 300 q 397 129 375 165 q 479 93 420 93 q 586 146 552 93 q 619 317 619 200 l 619 639 l 532 639 l 532 721 l 860 721 m 542 1111 l 731 1111 l 478 856 l 367 856 l 542 1111 z "},"û":{"ha":1010,"x_min":32,"x_max":962,"o":"m 860 721 l 860 82 l 962 82 l 962 0 l 619 0 l 619 102 q 521 9 576 37 q 380 -20 465 -20 q 197 52 259 -20 q 135 262 135 123 l 135 639 l 32 639 l 32 721 l 375 721 l 375 300 q 397 129 375 165 q 479 93 420 93 q 586 146 552 93 q 619 317 619 200 l 619 639 l 532 639 l 532 721 l 860 721 m 397 1111 l 562 1111 l 735 856 l 624 856 l 479 1008 l 335 856 l 224 856 l 397 1111 z "},"ü":{"ha":1010,"x_min":32,"x_max":962,"o":"m 860 721 l 860 82 l 962 82 l 962 0 l 619 0 l 619 102 q 521 9 576 37 q 380 -20 465 -20 q 197 52 259 -20 q 135 262 135 123 l 135 639 l 32 639 l 32 721 l 375 721 l 375 300 q 397 129 375 165 q 479 93 420 93 q 586 146 552 93 q 619 317 619 200 l 619 639 l 532 639 l 532 721 l 860 721 m 228 996 q 258 1065 228 1036 q 328 1095 288 1095 q 398 1065 369 1095 q 427 996 427 1036 q 397 925 427 955 q 328 896 368 896 q 258 926 288 896 q 228 996 228 956 m 531 996 q 561 1065 531 1036 q 631 1095 590 1095 q 701 1065 671 1095 q 731 996 731 1036 q 701 926 731 956 q 631 896 671 896 q 561 926 590 896 q 531 996 531 956 z "},"ý":{"ha":807,"x_min":-18,"x_max":840,"o":"m 433 -163 q 355 -275 401 -242 q 231 -309 309 -309 q 157 -301 197 -309 q 68 -279 116 -294 l 68 -129 l 144 -130 q 169 -207 146 -182 q 237 -232 192 -232 q 309 -208 281 -232 q 363 -117 336 -184 l 374 -92 l 60 639 l -18 639 l -18 721 l 397 721 l 397 639 l 311 639 l 494 212 l 665 639 l 570 639 l 570 721 l 840 721 l 840 639 l 753 639 l 433 -163 m 467 1111 l 656 1111 l 403 856 l 292 856 l 467 1111 z "},"þ":{"ha":971,"x_min":32,"x_max":916,"o":"m 375 396 l 375 325 q 407 142 375 199 q 511 86 439 86 q 615 146 585 86 q 646 361 646 205 q 615 575 646 516 q 511 635 585 635 q 407 578 439 635 q 375 396 375 522 m 135 974 l 32 974 l 32 1055 l 375 1055 l 375 629 q 457 713 406 686 q 585 741 509 741 q 827 639 739 741 q 916 361 916 538 q 827 82 916 184 q 585 -20 739 -20 q 457 8 509 -20 q 375 92 406 35 l 375 -207 l 486 -207 l 486 -289 l 32 -289 l 32 -207 l 135 -207 l 135 974 z "},"ÿ":{"ha":807,"x_min":-18,"x_max":840,"o":"m 433 -163 q 355 -275 401 -242 q 231 -309 309 -309 q 157 -301 197 -309 q 68 -279 116 -294 l 68 -129 l 144 -130 q 169 -207 146 -182 q 237 -232 192 -232 q 309 -208 281 -232 q 363 -117 336 -184 l 374 -92 l 60 639 l -18 639 l -18 721 l 397 721 l 397 639 l 311 639 l 494 212 l 665 639 l 570 639 l 570 721 l 840 721 l 840 639 l 753 639 l 433 -163 m 153 996 q 182 1065 153 1036 q 253 1095 212 1095 q 322 1065 294 1095 q 351 996 351 1036 q 322 925 351 955 q 253 896 293 896 q 182 926 212 896 q 153 996 153 956 m 456 996 q 485 1065 456 1036 q 555 1095 515 1095 q 626 1065 596 1095 q 656 996 656 1036 q 626 926 656 956 q 555 896 596 896 q 485 926 515 896 q 456 996 456 956 z "},"Ā":{"ha":1078,"x_min":-11,"x_max":1093,"o":"m 321 1270 l 748 1270 l 748 1142 l 321 1142 l 321 1270 m -11 0 l -11 82 l 72 82 l 453 1013 l 615 1013 l 997 82 l 1093 82 l 1093 0 l 619 0 l 619 82 l 718 82 l 635 289 l 254 289 l 170 82 l 290 82 l 290 0 l -11 0 m 288 371 l 602 371 l 446 758 l 288 371 z "},"ā":{"ha":900,"x_min":57,"x_max":868,"o":"m 178 1059 l 606 1059 l 606 932 l 178 932 l 178 1059 m 765 443 l 765 82 l 868 82 l 868 0 l 525 0 l 525 92 q 419 7 477 35 q 286 -20 361 -20 q 116 40 176 -20 q 57 210 57 99 q 142 391 57 331 q 399 452 227 452 l 525 452 l 525 494 q 484 624 525 582 q 355 665 442 665 q 244 636 283 665 q 189 539 205 606 l 113 539 l 113 694 q 246 729 177 718 q 392 741 315 741 q 675 669 585 741 q 765 443 765 597 m 525 227 l 525 371 l 435 371 q 332 334 368 371 q 296 229 296 298 q 322 127 296 161 q 401 93 348 93 q 491 130 457 93 q 525 227 525 166 z "},"Ă":{"ha":1078,"x_min":-11,"x_max":1093,"o":"m 300 1300 l 385 1300 q 427 1224 389 1251 q 532 1198 465 1198 q 637 1224 599 1198 q 679 1300 675 1251 l 764 1300 q 702 1145 764 1201 q 532 1089 641 1089 q 361 1144 421 1089 q 300 1300 301 1199 m -11 0 l -11 82 l 72 82 l 453 1013 l 615 1013 l 997 82 l 1093 82 l 1093 0 l 619 0 l 619 82 l 718 82 l 635 289 l 254 289 l 170 82 l 290 82 l 290 0 l -11 0 m 288 371 l 602 371 l 446 758 l 288 371 z "},"ă":{"ha":900,"x_min":57,"x_max":868,"o":"m 196 1078 l 281 1078 q 323 1002 285 1028 q 428 975 361 975 q 533 1002 495 975 q 575 1078 571 1028 l 660 1078 q 598 923 660 979 q 428 867 537 867 q 257 922 317 867 q 196 1078 197 977 m 765 443 l 765 82 l 868 82 l 868 0 l 525 0 l 525 92 q 419 7 477 35 q 286 -20 361 -20 q 116 40 176 -20 q 57 210 57 99 q 142 391 57 331 q 399 452 227 452 l 525 452 l 525 494 q 484 624 525 582 q 355 665 442 665 q 244 636 283 665 q 189 539 205 606 l 113 539 l 113 694 q 246 729 177 718 q 392 741 315 741 q 675 669 585 741 q 765 443 765 597 m 525 227 l 525 371 l 435 371 q 332 334 368 371 q 296 229 296 298 q 322 127 296 161 q 401 93 348 93 q 491 130 457 93 q 525 227 525 166 z "},"Ą":{"ha":1078,"x_min":-11,"x_max":1093,"o":"m 623 0 l 708 0 q 662 -69 675 -44 q 648 -114 648 -94 q 668 -157 648 -142 q 722 -172 687 -172 q 776 -167 749 -172 q 829 -151 804 -161 l 829 -257 q 760 -268 792 -264 q 699 -272 727 -272 q 579 -241 622 -272 q 537 -153 537 -210 q 558 -80 537 -117 q 623 0 579 -43 m -11 0 l -11 82 l 72 82 l 453 1013 l 615 1013 l 997 82 l 1093 82 l 1093 0 l 619 0 l 619 82 l 718 82 l 635 289 l 254 289 l 170 82 l 290 82 l 290 0 l -11 0 m 288 371 l 602 371 l 446 758 l 288 371 z "},"ą":{"ha":900,"x_min":57,"x_max":868,"o":"m 529 0 l 614 0 q 567 -69 581 -44 q 554 -114 554 -94 q 573 -157 554 -142 q 628 -172 593 -172 q 682 -167 654 -172 q 735 -151 709 -161 l 734 -257 q 665 -268 698 -264 q 604 -272 633 -272 q 485 -241 528 -272 q 443 -153 443 -210 q 464 -80 443 -117 q 529 0 485 -43 m 765 443 l 765 82 l 868 82 l 868 0 l 525 0 l 525 92 q 419 7 477 35 q 286 -20 361 -20 q 116 40 176 -20 q 57 210 57 99 q 142 391 57 331 q 399 452 227 452 l 525 452 l 525 494 q 484 624 525 582 q 355 665 442 665 q 244 636 283 665 q 189 539 205 606 l 113 539 l 113 694 q 246 729 177 718 q 392 741 315 741 q 675 669 585 741 q 765 443 765 597 m 525 227 l 525 371 l 435 371 q 332 334 368 371 q 296 229 296 298 q 322 127 296 161 q 401 93 348 93 q 491 130 457 93 q 525 227 525 166 z "},"Ć":{"ha":1105,"x_min":58,"x_max":1035,"o":"m 1035 289 q 891 56 995 132 q 612 -20 787 -20 q 207 122 356 -20 q 58 505 58 263 q 207 889 58 748 q 612 1031 356 1031 q 800 1009 703 1031 q 1007 943 898 987 l 1007 694 l 921 694 q 825 885 895 822 q 640 949 755 949 q 420 840 492 949 q 349 505 349 731 q 420 171 349 279 q 642 62 492 62 q 807 119 743 62 q 900 289 871 175 l 1035 289 m 614 1288 l 803 1288 l 602 1109 l 490 1109 l 614 1288 z "},"ć":{"ha":846,"x_min":57,"x_max":783,"o":"m 783 225 q 678 41 758 102 q 461 -20 598 -20 q 163 80 269 -20 q 57 361 57 180 q 161 640 57 540 q 452 741 266 741 q 604 726 527 741 q 760 684 680 712 l 760 484 l 684 484 q 630 620 673 575 q 510 664 587 664 q 367 596 410 664 q 325 361 325 528 q 366 127 325 197 q 501 57 408 57 q 617 100 574 57 q 671 225 661 144 l 783 225 m 513 1111 l 702 1111 l 449 856 l 338 856 l 513 1111 z "},"Ĉ":{"ha":1105,"x_min":58,"x_max":1035,"o":"m 498 1288 l 707 1288 l 859 1109 l 747 1109 l 603 1218 l 458 1109 l 347 1109 l 498 1288 m 1035 289 q 891 56 995 132 q 612 -20 787 -20 q 207 122 356 -20 q 58 505 58 263 q 207 889 58 748 q 612 1031 356 1031 q 800 1009 703 1031 q 1007 943 898 987 l 1007 694 l 921 694 q 825 885 895 822 q 640 949 755 949 q 420 840 492 949 q 349 505 349 731 q 420 171 349 279 q 642 62 492 62 q 807 119 743 62 q 900 289 871 175 l 1035 289 z "},"ĉ":{"ha":846,"x_min":57,"x_max":783,"o":"m 368 1111 l 532 1111 l 706 856 l 595 856 l 450 1008 l 306 856 l 195 856 l 368 1111 m 783 225 q 678 41 758 102 q 461 -20 598 -20 q 163 80 269 -20 q 57 361 57 180 q 161 640 57 540 q 452 741 266 741 q 604 726 527 741 q 760 684 680 712 l 760 484 l 684 484 q 630 620 673 575 q 510 664 587 664 q 367 596 410 664 q 325 361 325 528 q 366 127 325 197 q 501 57 408 57 q 617 100 574 57 q 671 225 661 144 l 783 225 z "},"Ċ":{"ha":1105,"x_min":58,"x_max":1035,"o":"m 503 1204 q 533 1275 503 1245 q 603 1304 562 1304 q 673 1275 644 1304 q 703 1204 703 1245 q 673 1135 703 1164 q 603 1105 644 1105 q 533 1135 562 1105 q 503 1204 503 1164 m 1035 289 q 891 56 995 132 q 612 -20 787 -20 q 207 122 356 -20 q 58 505 58 263 q 207 889 58 748 q 612 1031 356 1031 q 800 1009 703 1031 q 1007 943 898 987 l 1007 694 l 921 694 q 825 885 895 822 q 640 949 755 949 q 420 840 492 949 q 349 505 349 731 q 420 171 349 279 q 642 62 492 62 q 807 119 743 62 q 900 289 871 175 l 1035 289 z "},"ċ":{"ha":846,"x_min":57,"x_max":783,"o":"m 351 996 q 380 1065 351 1036 q 450 1095 410 1095 q 520 1065 491 1095 q 550 996 550 1036 q 520 926 550 956 q 450 896 491 896 q 380 926 410 896 q 351 996 351 956 m 783 225 q 678 41 758 102 q 461 -20 598 -20 q 163 80 269 -20 q 57 361 57 180 q 161 640 57 540 q 452 741 266 741 q 604 726 527 741 q 760 684 680 712 l 760 484 l 684 484 q 630 620 673 575 q 510 664 587 664 q 367 596 410 664 q 325 361 325 528 q 366 127 325 197 q 501 57 408 57 q 617 100 574 57 q 671 225 661 144 l 783 225 z "},"Č":{"ha":1105,"x_min":58,"x_max":1035,"o":"m 1035 289 q 891 56 995 132 q 612 -20 787 -20 q 207 122 356 -20 q 58 505 58 263 q 207 889 58 748 q 612 1031 356 1031 q 800 1009 703 1031 q 1007 943 898 987 l 1007 694 l 921 694 q 825 885 895 822 q 640 949 755 949 q 420 840 492 949 q 349 505 349 731 q 420 171 349 279 q 642 62 492 62 q 807 119 743 62 q 900 289 871 175 l 1035 289 m 498 1109 l 347 1288 l 458 1288 l 603 1178 l 747 1288 l 859 1288 l 707 1109 l 498 1109 z "},"č":{"ha":846,"x_min":57,"x_max":783,"o":"m 783 225 q 678 41 758 102 q 461 -20 598 -20 q 163 80 269 -20 q 57 361 57 180 q 161 640 57 540 q 452 741 266 741 q 604 726 527 741 q 760 684 680 712 l 760 484 l 684 484 q 630 620 673 575 q 510 664 587 664 q 367 596 410 664 q 325 361 325 528 q 366 127 325 197 q 501 57 408 57 q 617 100 574 57 q 671 225 661 144 l 783 225 m 368 856 l 195 1111 l 306 1111 l 450 957 l 595 1111 l 706 1111 l 532 856 l 368 856 z "},"Ď":{"ha":1204,"x_min":65,"x_max":1146,"o":"m 456 82 l 550 82 q 782 184 709 82 q 856 507 856 286 q 783 829 856 728 q 550 930 709 930 l 456 930 l 456 82 m 65 0 l 65 82 l 195 82 l 195 930 l 65 930 l 65 1013 l 585 1013 q 1002 882 857 1013 q 1146 507 1146 752 q 1001 131 1146 261 q 585 0 857 0 l 65 0 m 482 1109 l 331 1288 l 442 1288 l 587 1178 l 731 1288 l 842 1288 l 691 1109 l 482 1109 z "},"ď":{"ha":971,"x_min":57,"x_max":1183,"o":"m 596 325 l 596 396 q 564 578 596 522 q 460 635 531 635 q 355 575 385 635 q 325 361 325 516 q 355 146 325 205 q 460 86 386 86 q 564 142 531 86 q 596 325 596 199 m 836 82 l 939 82 l 939 0 l 596 0 l 596 92 q 514 8 566 35 q 386 -20 462 -20 q 145 82 233 -20 q 57 361 57 184 q 145 640 57 538 q 386 741 233 741 q 514 713 462 741 q 596 629 566 686 l 596 974 l 493 974 l 493 1055 l 836 1055 l 836 82 m 994 1054 l 1183 1054 l 1059 799 l 947 799 l 994 1054 z "},"Đ":{"ha":1214,"x_min":60,"x_max":1154,"o":"m 465 82 l 559 82 q 791 183 718 82 q 864 507 864 285 q 791 829 864 728 q 559 930 718 930 l 465 930 l 465 576 l 690 576 l 690 484 l 465 484 l 465 82 m 74 0 l 74 82 l 204 82 l 204 484 l 60 484 l 60 576 l 204 576 l 204 930 l 74 930 l 74 1013 l 595 1013 q 1010 883 866 1013 q 1154 507 1154 753 q 1010 131 1154 261 q 595 0 866 0 l 74 0 z "},"đ":{"ha":971,"x_min":57,"x_max":953,"o":"m 596 325 l 596 396 q 564 578 596 522 q 460 635 531 635 q 355 575 385 635 q 325 361 325 516 q 355 146 325 205 q 460 86 386 86 q 564 142 531 86 q 596 325 596 199 m 836 82 l 939 82 l 939 0 l 596 0 l 596 92 q 514 8 566 35 q 386 -20 462 -20 q 145 82 233 -20 q 57 361 57 184 q 145 640 57 538 q 386 741 233 741 q 514 713 462 741 q 596 629 566 686 l 596 829 l 376 829 l 376 911 l 596 911 l 596 974 l 493 974 l 493 1055 l 836 1055 l 836 911 l 953 911 l 953 829 l 836 829 l 836 82 z "},"Ē":{"ha":1059,"x_min":65,"x_max":987,"o":"m 307 1270 l 734 1270 l 734 1142 l 307 1142 l 307 1270 m 65 0 l 65 82 l 195 82 l 195 930 l 65 930 l 65 1013 l 975 1013 l 975 774 l 882 774 l 882 920 l 456 920 l 456 595 l 721 595 l 721 724 l 814 724 l 814 374 l 721 374 l 721 503 l 456 503 l 456 93 l 895 93 l 895 239 l 987 239 l 987 0 l 65 0 z "},"ē":{"ha":884,"x_min":57,"x_max":821,"o":"m 231 1059 l 658 1059 l 658 932 l 231 932 l 231 1059 m 557 407 q 530 607 557 549 q 440 664 504 664 q 352 608 378 664 q 325 419 325 551 l 325 407 l 557 407 m 821 326 l 325 326 l 325 321 q 367 119 325 181 q 503 57 409 57 q 629 98 581 57 q 690 218 677 140 l 803 218 q 687 38 774 96 q 444 -20 600 -20 q 157 79 257 -20 q 57 361 57 178 q 159 640 57 540 q 444 741 262 741 q 719 635 623 741 q 821 326 814 530 z "},"Ĕ":{"ha":1059,"x_min":65,"x_max":987,"o":"m 322 1288 l 406 1288 q 458 1231 420 1251 q 553 1211 496 1211 q 648 1231 610 1211 q 700 1288 686 1251 l 783 1288 q 706 1154 764 1199 q 553 1109 648 1109 q 398 1153 455 1109 q 322 1288 341 1197 m 65 0 l 65 82 l 195 82 l 195 930 l 65 930 l 65 1013 l 975 1013 l 975 774 l 882 774 l 882 920 l 456 920 l 456 595 l 721 595 l 721 724 l 814 724 l 814 374 l 721 374 l 721 503 l 456 503 l 456 93 l 895 93 l 895 239 l 987 239 l 987 0 l 65 0 z "},"ĕ":{"ha":884,"x_min":57,"x_max":821,"o":"m 210 1078 l 294 1078 q 336 1002 298 1028 q 441 975 374 975 q 547 1002 509 975 q 589 1078 585 1028 l 673 1078 q 612 923 673 979 q 441 867 551 867 q 271 922 331 867 q 210 1078 211 977 m 557 407 q 530 607 557 549 q 440 664 504 664 q 352 608 378 664 q 325 419 325 551 l 325 407 l 557 407 m 821 326 l 325 326 l 325 321 q 367 119 325 181 q 503 57 409 57 q 629 98 581 57 q 690 218 677 140 l 803 218 q 687 38 774 96 q 444 -20 600 -20 q 157 79 257 -20 q 57 361 57 178 q 159 640 57 540 q 444 741 262 741 q 719 635 623 741 q 821 326 814 530 z "},"Ė":{"ha":1059,"x_min":65,"x_max":987,"o":"m 453 1204 q 483 1275 453 1245 q 553 1304 512 1304 q 623 1275 593 1304 q 652 1204 652 1245 q 623 1135 652 1164 q 553 1105 593 1105 q 483 1135 512 1105 q 453 1204 453 1164 m 65 0 l 65 82 l 195 82 l 195 930 l 65 930 l 65 1013 l 975 1013 l 975 774 l 882 774 l 882 920 l 456 920 l 456 595 l 721 595 l 721 724 l 814 724 l 814 374 l 721 374 l 721 503 l 456 503 l 456 93 l 895 93 l 895 239 l 987 239 l 987 0 l 65 0 z "},"ė":{"ha":884,"x_min":57,"x_max":821,"o":"m 342 996 q 371 1065 342 1036 q 441 1095 401 1095 q 512 1065 482 1095 q 541 996 541 1036 q 512 926 541 956 q 441 896 482 896 q 371 926 401 896 q 342 996 342 956 m 557 407 q 530 607 557 549 q 440 664 504 664 q 352 608 378 664 q 325 419 325 551 l 325 407 l 557 407 m 821 326 l 325 326 l 325 321 q 367 119 325 181 q 503 57 409 57 q 629 98 581 57 q 690 218 677 140 l 803 218 q 687 38 774 96 q 444 -20 600 -20 q 157 79 257 -20 q 57 361 57 178 q 159 640 57 540 q 444 741 262 741 q 719 635 623 741 q 821 326 814 530 z "},"Ę":{"ha":1059,"x_min":65,"x_max":989,"o":"m 783 0 l 867 0 q 821 -69 834 -44 q 808 -114 808 -94 q 827 -157 808 -142 q 882 -172 846 -172 q 936 -167 908 -172 q 989 -151 963 -161 l 988 -257 q 919 -268 951 -264 q 858 -272 886 -272 q 739 -241 781 -272 q 696 -153 696 -210 q 718 -80 696 -117 q 783 0 739 -43 m 65 0 l 65 82 l 195 82 l 195 930 l 65 930 l 65 1013 l 975 1013 l 975 774 l 882 774 l 882 920 l 456 920 l 456 595 l 721 595 l 721 724 l 814 724 l 814 374 l 721 374 l 721 503 l 456 503 l 456 93 l 895 93 l 895 239 l 987 239 l 987 0 l 65 0 z "},"ę":{"ha":884,"x_min":57,"x_max":821,"o":"m 524 0 l 608 0 q 562 -69 575 -44 q 549 -114 549 -94 q 568 -157 549 -142 q 623 -172 587 -172 q 676 -167 649 -172 q 730 -151 704 -161 l 729 -257 q 660 -268 692 -264 q 599 -272 627 -272 q 480 -241 522 -272 q 437 -153 437 -210 q 458 -80 437 -117 q 524 0 479 -43 m 557 407 q 530 607 557 549 q 440 664 504 664 q 352 608 378 664 q 325 419 325 551 l 325 407 l 557 407 m 821 326 l 325 326 l 325 321 q 367 119 325 181 q 503 57 409 57 q 629 98 581 57 q 690 218 677 140 l 803 218 q 687 38 774 96 q 444 -20 600 -20 q 157 79 257 -20 q 57 361 57 178 q 159 640 57 540 q 444 741 262 741 q 719 635 623 741 q 821 326 814 530 z "},"Ě":{"ha":1059,"x_min":65,"x_max":987,"o":"m 65 0 l 65 82 l 195 82 l 195 930 l 65 930 l 65 1013 l 975 1013 l 975 774 l 882 774 l 882 920 l 456 920 l 456 595 l 721 595 l 721 724 l 814 724 l 814 374 l 721 374 l 721 503 l 456 503 l 456 93 l 895 93 l 895 239 l 987 239 l 987 0 l 65 0 m 446 1113 l 294 1292 l 406 1292 l 550 1182 l 694 1292 l 806 1292 l 654 1113 l 446 1113 z "},"ě":{"ha":884,"x_min":57,"x_max":821,"o":"m 557 407 q 530 607 557 549 q 440 664 504 664 q 352 608 378 664 q 325 419 325 551 l 325 407 l 557 407 m 821 326 l 325 326 l 325 321 q 367 119 325 181 q 503 57 409 57 q 629 98 581 57 q 690 218 677 140 l 803 218 q 687 38 774 96 q 444 -20 600 -20 q 157 79 257 -20 q 57 361 57 178 q 159 640 57 540 q 444 741 262 741 q 719 635 623 741 q 821 326 814 530 m 368 856 l 195 1111 l 306 1111 l 450 957 l 595 1111 l 706 1111 l 532 856 l 368 856 z "},"Ĝ":{"ha":1186,"x_min":58,"x_max":1076,"o":"m 512 1288 l 721 1288 l 872 1109 l 761 1109 l 616 1218 l 472 1109 l 361 1109 l 512 1288 m 956 694 q 854 889 925 829 q 653 949 783 949 q 422 842 496 949 q 349 505 349 735 q 419 170 349 277 q 639 62 490 62 q 745 75 696 62 q 833 114 793 88 l 833 392 l 711 392 l 711 473 l 1076 473 l 1076 85 q 849 6 962 32 q 616 -20 735 -20 q 207 121 356 -20 q 58 505 58 261 q 207 890 58 750 q 616 1031 356 1031 q 830 1009 725 1031 q 1042 943 935 987 l 1042 694 l 956 694 z "},"ĝ":{"ha":971,"x_min":57,"x_max":939,"o":"m 378 1111 l 542 1111 l 715 856 l 604 856 l 460 1008 l 315 856 l 204 856 l 378 1111 m 836 639 l 836 9 q 728 -225 836 -142 q 422 -309 620 -309 q 277 -297 351 -309 q 125 -264 203 -286 l 125 -92 l 201 -92 q 259 -197 212 -163 q 393 -232 306 -232 q 550 -179 505 -232 q 596 9 596 -125 l 596 92 q 514 8 566 35 q 386 -20 462 -20 q 145 82 233 -20 q 57 361 57 184 q 145 640 57 538 q 386 741 233 741 q 514 713 462 741 q 596 629 566 686 l 596 721 l 939 721 l 939 639 l 836 639 m 596 396 q 564 578 596 522 q 460 635 531 635 q 355 575 385 635 q 325 361 325 516 q 355 146 325 205 q 460 86 386 86 q 564 142 531 86 q 596 325 596 199 l 596 396 z "},"Ğ":{"ha":1186,"x_min":58,"x_max":1076,"o":"m 956 694 q 854 889 925 829 q 653 949 783 949 q 422 842 496 949 q 349 505 349 735 q 419 170 349 277 q 639 62 490 62 q 745 75 696 62 q 833 114 793 88 l 833 392 l 711 392 l 711 473 l 1076 473 l 1076 85 q 849 6 962 32 q 616 -20 735 -20 q 207 121 356 -20 q 58 505 58 261 q 207 890 58 750 q 616 1031 356 1031 q 830 1009 725 1031 q 1042 943 935 987 l 1042 694 l 956 694 m 362 1288 l 446 1288 q 498 1231 460 1251 q 593 1211 536 1211 q 688 1231 650 1211 q 740 1288 726 1251 l 823 1288 q 746 1154 804 1199 q 593 1109 688 1109 q 438 1153 495 1109 q 362 1288 381 1197 z "},"ğ":{"ha":971,"x_min":57,"x_max":939,"o":"m 836 639 l 836 9 q 728 -225 836 -142 q 422 -309 620 -309 q 277 -297 351 -309 q 125 -264 203 -286 l 125 -92 l 201 -92 q 259 -197 212 -163 q 393 -232 306 -232 q 550 -179 505 -232 q 596 9 596 -125 l 596 92 q 514 8 566 35 q 386 -20 462 -20 q 145 82 233 -20 q 57 361 57 184 q 145 640 57 538 q 386 741 233 741 q 514 713 462 741 q 596 629 566 686 l 596 721 l 939 721 l 939 639 l 836 639 m 596 396 q 564 578 596 522 q 460 635 531 635 q 355 575 385 635 q 325 361 325 516 q 355 146 325 205 q 460 86 386 86 q 564 142 531 86 q 596 325 596 199 l 596 396 m 254 1078 l 339 1078 q 381 1002 343 1028 q 486 975 419 975 q 591 1002 553 975 q 633 1078 629 1028 l 718 1078 q 657 923 718 979 q 486 867 595 867 q 316 922 376 867 q 254 1078 256 977 z "},"Ġ":{"ha":1186,"x_min":58,"x_max":1076,"o":"m 517 1204 q 546 1275 517 1245 q 616 1304 576 1304 q 687 1275 657 1304 q 716 1204 716 1245 q 687 1135 716 1164 q 616 1105 657 1105 q 546 1135 576 1105 q 517 1204 517 1164 m 956 694 q 854 889 925 829 q 653 949 783 949 q 422 842 496 949 q 349 505 349 735 q 419 170 349 277 q 639 62 490 62 q 745 75 696 62 q 833 114 793 88 l 833 392 l 711 392 l 711 473 l 1076 473 l 1076 85 q 849 6 962 32 q 616 -20 735 -20 q 207 121 356 -20 q 58 505 58 261 q 207 890 58 750 q 616 1031 356 1031 q 830 1009 725 1031 q 1042 943 935 987 l 1042 694 l 956 694 z "},"ġ":{"ha":971,"x_min":57,"x_max":939,"o":"m 360 996 q 390 1065 360 1036 q 460 1095 419 1095 q 530 1065 500 1095 q 559 996 559 1036 q 530 926 559 956 q 460 896 500 896 q 390 926 419 896 q 360 996 360 956 m 836 639 l 836 9 q 728 -225 836 -142 q 422 -309 620 -309 q 277 -297 351 -309 q 125 -264 203 -286 l 125 -92 l 201 -92 q 259 -197 212 -163 q 393 -232 306 -232 q 550 -179 505 -232 q 596 9 596 -125 l 596 92 q 514 8 566 35 q 386 -20 462 -20 q 145 82 233 -20 q 57 361 57 184 q 145 640 57 538 q 386 741 233 741 q 514 713 462 741 q 596 629 566 686 l 596 721 l 939 721 l 939 639 l 836 639 m 596 396 q 564 578 596 522 q 460 635 531 635 q 355 575 385 635 q 325 361 325 516 q 355 146 325 205 q 460 86 386 86 q 564 142 531 86 q 596 325 596 199 l 596 396 z "},"Ģ":{"ha":1186,"x_min":58,"x_max":1076,"o":"m 495 -285 q 573 -221 548 -256 q 598 -139 598 -186 l 598 -110 l 743 -110 l 743 -113 q 696 -241 743 -188 q 551 -333 649 -296 l 495 -285 m 956 694 q 854 889 925 829 q 653 949 783 949 q 422 842 496 949 q 349 505 349 735 q 419 170 349 277 q 639 62 490 62 q 745 75 696 62 q 833 114 793 88 l 833 392 l 711 392 l 711 473 l 1076 473 l 1076 85 q 849 6 962 32 q 616 -20 735 -20 q 207 121 356 -20 q 58 505 58 261 q 207 890 58 750 q 616 1031 356 1031 q 830 1009 725 1031 q 1042 943 935 987 l 1042 694 l 956 694 z "},"ģ":{"ha":971,"x_min":57,"x_max":939,"o":"m 628 998 q 550 935 575 970 q 525 852 525 899 l 525 823 l 380 823 l 380 826 q 427 955 380 901 q 572 1046 474 1009 l 628 998 m 836 639 l 836 9 q 728 -225 836 -142 q 422 -309 620 -309 q 277 -297 351 -309 q 125 -264 203 -286 l 125 -92 l 201 -92 q 259 -197 212 -163 q 393 -232 306 -232 q 550 -179 505 -232 q 596 9 596 -125 l 596 92 q 514 8 566 35 q 386 -20 462 -20 q 145 82 233 -20 q 57 361 57 184 q 145 640 57 538 q 386 741 233 741 q 514 713 462 741 q 596 629 566 686 l 596 721 l 939 721 l 939 639 l 836 639 m 596 396 q 564 578 596 522 q 460 635 531 635 q 355 575 385 635 q 325 361 325 516 q 355 146 325 205 q 460 86 386 86 q 564 142 531 86 q 596 325 596 199 l 596 396 z "},"Ĥ":{"ha":1312,"x_min":65,"x_max":1250,"o":"m 553 1288 l 762 1288 l 913 1109 l 802 1109 l 658 1218 l 513 1109 l 402 1109 l 553 1288 m 65 0 l 65 82 l 195 82 l 195 930 l 65 930 l 65 1013 l 586 1013 l 586 930 l 456 930 l 456 590 l 859 590 l 859 930 l 729 930 l 729 1013 l 1250 1013 l 1250 930 l 1120 930 l 1120 82 l 1250 82 l 1250 0 l 729 0 l 729 82 l 859 82 l 859 497 l 456 497 l 456 82 l 586 82 l 586 0 l 65 0 z "},"ĥ":{"ha":1010,"x_min":-36,"x_max":978,"o":"m 115 1288 l 324 1288 l 475 1109 l 364 1109 l 220 1218 l 75 1109 l -36 1109 l 115 1288 m 47 0 l 47 82 l 150 82 l 150 974 l 43 974 l 43 1055 l 390 1055 l 390 619 q 489 712 433 684 q 629 741 545 741 q 813 669 751 741 q 875 458 875 597 l 875 82 l 978 82 l 978 0 l 547 0 l 547 82 l 635 82 l 635 465 q 611 592 635 557 q 530 628 588 628 q 424 575 458 628 q 390 406 390 522 l 390 82 l 478 82 l 478 0 l 47 0 z "},"Ħ":{"ha":1312,"x_min":65,"x_max":1250,"o":"m 65 0 l 65 82 l 195 82 l 195 714 l 65 714 l 65 807 l 195 807 l 195 930 l 65 930 l 65 1013 l 586 1013 l 586 930 l 456 930 l 456 807 l 859 807 l 859 930 l 729 930 l 729 1013 l 1250 1013 l 1250 930 l 1120 930 l 1120 807 l 1250 807 l 1250 714 l 1120 714 l 1120 82 l 1250 82 l 1250 0 l 729 0 l 729 82 l 859 82 l 859 497 l 456 497 l 456 82 l 586 82 l 586 0 l 65 0 m 456 590 l 859 590 l 859 714 l 456 714 l 456 590 z "},"ħ":{"ha":1010,"x_min":43,"x_max":978,"o":"m 47 0 l 47 82 l 150 82 l 150 811 l 43 811 l 43 904 l 150 904 l 150 974 l 43 974 l 43 1055 l 390 1055 l 390 904 l 633 904 l 633 811 l 390 811 l 390 619 q 489 712 433 684 q 629 741 545 741 q 813 669 751 741 q 875 458 875 597 l 875 82 l 978 82 l 978 0 l 547 0 l 547 82 l 635 82 l 635 465 q 611 592 635 557 q 530 628 588 628 q 424 575 458 628 q 390 406 390 522 l 390 82 l 478 82 l 478 0 l 47 0 z "},"Ĩ":{"ha":650,"x_min":65,"x_max":586,"o":"m 82 1109 l 82 1117 q 119 1245 82 1200 q 223 1291 155 1291 q 319 1264 264 1291 q 328 1260 325 1261 l 376 1238 q 408 1226 395 1229 q 432 1223 420 1223 q 476 1240 460 1223 q 493 1286 493 1257 l 493 1289 l 568 1289 l 568 1279 q 531 1152 568 1196 q 427 1107 495 1107 q 381 1114 404 1107 q 322 1138 358 1120 l 283 1157 q 248 1171 265 1166 q 218 1175 231 1175 q 173 1158 190 1175 q 157 1112 157 1141 l 157 1109 l 82 1109 m 65 0 l 65 82 l 195 82 l 195 930 l 65 930 l 65 1013 l 586 1013 l 586 930 l 456 930 l 456 82 l 586 82 l 586 0 l 65 0 z "},"ĩ":{"ha":528,"x_min":21,"x_max":507,"o":"m 21 888 l 21 899 q 57 1049 21 998 q 162 1100 93 1100 q 211 1092 187 1100 q 267 1063 235 1083 l 315 1031 l 317 1029 q 371 1010 347 1010 q 415 1034 399 1010 q 432 1099 432 1057 l 507 1099 l 507 1088 q 471 938 507 989 q 366 886 435 886 q 316 895 340 886 q 261 924 292 903 l 212 956 l 212 956 q 157 977 181 977 q 112 953 129 977 q 96 888 96 929 l 21 888 m 390 82 l 493 82 l 493 0 l 47 0 l 47 82 l 150 82 l 150 639 l 47 639 l 47 721 l 390 721 l 390 82 z "},"Ī":{"ha":650,"x_min":65,"x_max":586,"o":"m 112 1270 l 539 1270 l 539 1142 l 112 1142 l 112 1270 m 65 0 l 65 82 l 195 82 l 195 930 l 65 930 l 65 1013 l 586 1013 l 586 930 l 456 930 l 456 82 l 586 82 l 586 0 l 65 0 z "},"ī":{"ha":528,"x_min":5,"x_max":493,"o":"m 5 1060 l 432 1060 l 432 932 l 5 932 l 5 1060 m 390 82 l 493 82 l 493 0 l 47 0 l 47 82 l 150 82 l 150 639 l 47 639 l 47 721 l 390 721 l 390 82 z "},"Ĭ":{"ha":650,"x_min":65,"x_max":586,"o":"m 94 1288 l 178 1288 q 230 1231 193 1251 q 325 1211 268 1211 q 420 1231 382 1211 q 472 1288 458 1251 l 555 1288 q 478 1154 536 1199 q 325 1109 420 1109 q 170 1153 227 1109 q 94 1288 113 1197 m 65 0 l 65 82 l 195 82 l 195 930 l 65 930 l 65 1013 l 586 1013 l 586 930 l 456 930 l 456 82 l 586 82 l 586 0 l 65 0 z "},"ĭ":{"ha":528,"x_min":32,"x_max":496,"o":"m 32 1078 l 117 1078 q 159 1002 121 1028 q 264 975 197 975 q 369 1002 331 975 q 411 1078 407 1028 l 496 1078 q 434 923 496 979 q 264 867 373 867 q 93 922 153 867 q 32 1078 33 977 m 390 82 l 493 82 l 493 0 l 47 0 l 47 82 l 150 82 l 150 639 l 47 639 l 47 721 l 390 721 l 390 82 z "},"Į":{"ha":650,"x_min":65,"x_max":586,"o":"m 65 0 l 65 82 l 195 82 l 195 930 l 65 930 l 65 1013 l 586 1013 l 586 930 l 456 930 l 456 82 l 586 82 l 586 0 l 65 0 m 371 0 l 456 0 q 409 -69 422 -44 q 396 -114 396 -94 q 415 -157 396 -142 q 470 -172 435 -172 q 524 -167 496 -172 q 577 -151 551 -161 l 576 -257 q 507 -268 540 -264 q 446 -272 475 -272 q 327 -241 370 -272 q 285 -153 285 -210 q 306 -80 285 -117 q 371 0 327 -43 z "},"į":{"ha":528,"x_min":47,"x_max":511,"o":"m 127 925 q 165 1018 127 980 q 258 1055 203 1055 q 350 1018 312 1055 q 387 925 387 980 q 350 834 387 871 q 258 796 312 796 q 165 833 203 796 q 127 925 127 871 m 390 82 l 493 82 l 493 0 l 47 0 l 47 82 l 150 82 l 150 639 l 47 639 l 47 721 l 390 721 l 390 82 m 305 0 l 390 0 q 343 -69 357 -44 q 330 -114 330 -94 q 350 -157 330 -142 q 404 -172 369 -172 q 458 -167 431 -172 q 511 -151 486 -161 l 511 -257 q 441 -268 474 -264 q 380 -272 409 -272 q 261 -241 304 -272 q 219 -153 219 -210 q 240 -80 219 -117 q 305 0 261 -43 z "},"İ":{"ha":650,"x_min":65,"x_max":586,"o":"m 65 0 l 65 82 l 195 82 l 195 930 l 65 930 l 65 1013 l 586 1013 l 586 930 l 456 930 l 456 82 l 586 82 l 586 0 l 65 0 m 225 1204 q 255 1275 225 1245 q 325 1304 284 1304 q 395 1275 366 1304 q 425 1204 425 1245 q 395 1135 425 1164 q 325 1105 366 1105 q 255 1135 284 1105 q 225 1204 225 1164 z "},"ı":{"ha":528,"x_min":47,"x_max":493,"o":"m 390 82 l 493 82 l 493 0 l 47 0 l 47 82 l 150 82 l 150 639 l 47 639 l 47 721 l 390 721 l 390 82 z "},"Ĳ":{"ha":1308,"x_min":65,"x_max":1255,"o":"m 65 0 l 65 82 l 195 82 l 195 930 l 65 930 l 65 1013 l 586 1013 l 586 930 l 456 930 l 456 82 l 586 82 l 586 0 l 65 0 m 549 -243 l 549 -83 l 637 -83 q 668 -177 642 -147 q 745 -207 694 -207 q 837 -156 811 -207 q 863 33 863 -106 l 863 930 l 716 930 l 716 1013 l 1255 1013 l 1255 930 l 1126 930 l 1126 28 q 1043 -213 1126 -137 q 779 -289 960 -289 q 665 -277 722 -289 q 549 -243 608 -266 z "},"ĳ":{"ha":1043,"x_min":47,"x_max":928,"o":"m 127 925 q 165 1018 127 980 q 258 1055 203 1055 q 350 1018 312 1055 q 387 925 387 980 q 350 834 387 871 q 258 796 312 796 q 165 833 203 796 q 127 925 127 871 m 390 82 l 493 82 l 493 0 l 47 0 l 47 82 l 150 82 l 150 639 l 47 639 l 47 721 l 390 721 l 390 82 m 661 925 q 698 1018 661 980 q 791 1055 736 1055 q 882 1017 844 1055 q 920 925 920 979 q 883 834 920 871 q 791 796 845 796 q 699 833 736 796 q 661 925 661 871 m 688 639 l 586 639 l 586 721 l 928 721 l 928 -85 q 850 -252 928 -195 q 619 -309 772 -309 q 532 -302 578 -309 q 437 -282 486 -295 l 437 -129 l 513 -130 q 535 -208 515 -184 q 600 -232 555 -232 q 669 -200 649 -232 q 688 -85 688 -168 l 688 639 z "},"Ĵ":{"ha":657,"x_min":-102,"x_max":604,"o":"m 230 1288 l 439 1288 l 590 1109 l 479 1109 l 334 1218 l 190 1109 l 79 1109 l 230 1288 m -102 -243 l -102 -83 l -14 -83 q 17 -177 -9 -147 q 94 -207 43 -207 q 186 -156 160 -207 q 212 33 212 -106 l 212 930 l 65 930 l 65 1013 l 604 1013 l 604 930 l 475 930 l 475 28 q 392 -213 475 -137 q 127 -289 309 -289 q 14 -277 71 -289 q -102 -243 -43 -266 z "},"ĵ":{"ha":503,"x_min":-103,"x_max":472,"o":"m 134 1111 l 298 1111 l 472 856 l 361 856 l 216 1008 l 72 856 l -39 856 l 134 1111 m 149 639 l 46 639 l 46 721 l 389 721 l 389 -85 q 310 -252 389 -195 q 79 -309 232 -309 q -7 -302 39 -309 q -103 -282 -54 -295 l -103 -129 l -26 -130 q -5 -208 -25 -184 q 60 -232 15 -232 q 129 -200 109 -232 q 149 -85 149 -168 l 149 639 z "},"Ķ":{"ha":1207,"x_min":65,"x_max":1250,"o":"m 536 -265 q 614 -201 589 -237 q 639 -119 639 -166 l 639 -90 l 784 -90 l 784 -93 q 736 -222 784 -168 q 592 -313 690 -276 l 536 -265 m 65 0 l 65 82 l 195 82 l 195 930 l 65 930 l 65 1013 l 586 1013 l 586 930 l 456 930 l 456 561 l 885 930 l 777 930 l 777 1013 l 1154 1013 l 1154 930 l 1019 930 l 656 618 l 1150 82 l 1250 82 l 1250 0 l 907 0 l 456 492 l 456 82 l 586 82 l 586 0 l 65 0 z "},"ķ":{"ha":962,"x_min":47,"x_max":986,"o":"m 395 -265 q 473 -201 448 -237 q 498 -119 498 -166 l 498 -90 l 644 -90 l 644 -93 q 596 -222 644 -168 q 452 -313 549 -276 l 395 -265 m 481 0 l 47 0 l 47 82 l 150 82 l 150 974 l 47 974 l 47 1055 l 390 1055 l 390 378 l 681 639 l 595 639 l 595 721 l 924 721 l 924 639 l 790 639 l 604 472 l 908 82 l 986 82 l 986 0 l 572 0 l 572 82 l 657 82 l 457 339 l 390 279 l 390 82 l 481 82 l 481 0 z "},"ĸ":{"ha":962,"x_min":47,"x_max":986,"o":"m 481 0 l 47 0 l 47 82 l 150 82 l 150 637 l 47 637 l 47 719 l 390 719 l 390 377 l 681 637 l 595 637 l 595 719 l 924 719 l 924 637 l 790 637 l 604 471 l 908 82 l 986 82 l 986 0 l 572 0 l 572 82 l 657 82 l 457 338 l 390 279 l 390 82 l 481 82 l 481 0 z "},"Ĺ":{"ha":977,"x_min":65,"x_max":946,"o":"m 395 1289 l 584 1289 l 382 1109 l 271 1109 l 395 1289 m 65 0 l 65 82 l 195 82 l 195 930 l 65 930 l 65 1013 l 586 1013 l 586 930 l 456 930 l 456 93 l 854 93 l 854 253 l 946 253 l 946 0 l 65 0 z "},"ĺ":{"ha":528,"x_min":47,"x_max":503,"o":"m 313 1289 l 503 1289 l 301 1109 l 190 1109 l 313 1289 m 390 82 l 493 82 l 493 0 l 47 0 l 47 82 l 150 82 l 150 974 l 47 974 l 47 1055 l 390 1055 l 390 82 z "},"Ļ":{"ha":977,"x_min":65,"x_max":946,"o":"m 384 -265 q 462 -201 437 -237 q 487 -119 487 -166 l 487 -90 l 632 -90 l 632 -93 q 585 -222 632 -168 q 440 -313 538 -276 l 384 -265 m 65 0 l 65 82 l 195 82 l 195 930 l 65 930 l 65 1013 l 586 1013 l 586 930 l 456 930 l 456 93 l 854 93 l 854 253 l 946 253 l 946 0 l 65 0 z "},"ļ":{"ha":528,"x_min":47,"x_max":493,"o":"m 149 -265 q 227 -201 202 -237 q 252 -119 252 -166 l 252 -90 l 397 -90 l 397 -93 q 350 -222 397 -168 q 205 -313 303 -276 l 149 -265 m 390 82 l 493 82 l 493 0 l 47 0 l 47 82 l 150 82 l 150 974 l 47 974 l 47 1055 l 390 1055 l 390 82 z "},"Ľ":{"ha":977,"x_min":65,"x_max":946,"o":"m 757 1013 l 946 1013 l 821 758 l 710 758 l 757 1013 m 65 0 l 65 82 l 195 82 l 195 930 l 65 930 l 65 1013 l 586 1013 l 586 930 l 456 930 l 456 93 l 854 93 l 854 253 l 946 253 l 946 0 l 65 0 z "},"ľ":{"ha":705,"x_min":47,"x_max":717,"o":"m 528 1055 l 717 1055 l 592 800 l 481 800 l 528 1055 m 390 82 l 493 82 l 493 0 l 47 0 l 47 82 l 150 82 l 150 974 l 47 974 l 47 1055 l 390 1055 l 390 82 z "},"Ŀ":{"ha":977,"x_min":65,"x_max":963,"o":"m 705 602 q 743 692 705 654 q 833 730 781 730 q 925 692 887 730 q 963 602 963 654 q 925 511 963 549 q 833 473 887 473 q 743 511 781 473 q 705 602 705 549 m 65 0 l 65 82 l 195 82 l 195 930 l 65 930 l 65 1013 l 586 1013 l 586 930 l 456 930 l 456 93 l 854 93 l 854 253 l 946 253 l 946 0 l 65 0 z "},"ŀ":{"ha":773,"x_min":47,"x_max":715,"o":"m 457 599 q 495 690 457 652 q 586 728 533 728 q 677 690 640 728 q 715 599 715 652 q 677 508 715 546 q 586 471 640 471 q 495 508 533 471 q 457 599 457 546 m 390 82 l 493 82 l 493 0 l 47 0 l 47 82 l 150 82 l 150 974 l 47 974 l 47 1055 l 390 1055 l 390 82 z "},"Ł":{"ha":986,"x_min":11,"x_max":956,"o":"m 74 0 l 74 82 l 204 82 l 204 372 l 58 286 l 11 366 l 204 479 l 204 930 l 74 930 l 74 1013 l 595 1013 l 595 930 l 465 930 l 465 636 l 696 772 l 743 693 l 465 528 l 465 93 l 864 93 l 864 253 l 956 253 l 956 0 l 74 0 z "},"ł":{"ha":534,"x_min":5,"x_max":542,"o":"m 393 82 l 496 82 l 496 0 l 50 0 l 50 82 l 153 82 l 153 443 l 47 378 l 5 449 l 153 539 l 153 974 l 50 974 l 50 1055 l 393 1055 l 393 677 l 498 743 l 542 672 l 393 582 l 393 82 z "},"Ń":{"ha":1270,"x_min":61,"x_max":1214,"o":"m 648 1289 l 838 1289 l 636 1109 l 525 1109 l 648 1289 m 61 0 l 61 82 l 191 82 l 191 930 l 61 930 l 61 1013 l 378 1013 l 989 296 l 989 930 l 860 930 l 860 1013 l 1214 1013 l 1214 930 l 1084 930 l 1084 0 l 907 0 l 286 732 l 286 82 l 415 82 l 415 0 l 61 0 z "},"ń":{"ha":1010,"x_min":47,"x_max":978,"o":"m 513 1078 l 702 1078 l 449 823 l 338 823 l 513 1078 m 47 0 l 47 82 l 150 82 l 150 639 l 47 639 l 47 721 l 390 721 l 390 619 q 489 712 433 684 q 629 741 545 741 q 813 669 751 741 q 875 458 875 597 l 875 82 l 978 82 l 978 0 l 547 0 l 547 82 l 635 82 l 635 465 q 611 592 635 557 q 530 628 588 628 q 424 575 458 628 q 390 406 390 522 l 390 82 l 478 82 l 478 0 l 47 0 z "},"Ņ":{"ha":1270,"x_min":61,"x_max":1214,"o":"m 452 -265 q 530 -201 505 -237 q 555 -119 555 -166 l 555 -90 l 700 -90 l 700 -93 q 652 -222 700 -168 q 508 -313 606 -276 l 452 -265 m 61 0 l 61 82 l 191 82 l 191 930 l 61 930 l 61 1013 l 378 1013 l 989 296 l 989 930 l 860 930 l 860 1013 l 1214 1013 l 1214 930 l 1084 930 l 1084 0 l 907 0 l 286 732 l 286 82 l 415 82 l 415 0 l 61 0 z "},"ņ":{"ha":1010,"x_min":47,"x_max":978,"o":"m 391 -265 q 469 -201 444 -237 q 494 -119 494 -166 l 494 -90 l 640 -90 l 640 -93 q 592 -222 640 -168 q 448 -313 545 -276 l 391 -265 m 47 0 l 47 82 l 150 82 l 150 639 l 47 639 l 47 721 l 390 721 l 390 619 q 489 712 433 684 q 629 741 545 741 q 813 669 751 741 q 875 458 875 597 l 875 82 l 978 82 l 978 0 l 547 0 l 547 82 l 635 82 l 635 465 q 611 592 635 557 q 530 628 588 628 q 424 575 458 628 q 390 406 390 522 l 390 82 l 478 82 l 478 0 l 47 0 z "},"Ň":{"ha":1270,"x_min":61,"x_max":1214,"o":"m 61 0 l 61 82 l 191 82 l 191 930 l 61 930 l 61 1013 l 378 1013 l 989 296 l 989 930 l 860 930 l 860 1013 l 1214 1013 l 1214 930 l 1084 930 l 1084 0 l 907 0 l 286 732 l 286 82 l 415 82 l 415 0 l 61 0 m 519 1109 l 368 1288 l 479 1288 l 623 1178 l 768 1288 l 879 1288 l 728 1109 l 519 1109 z "},"ň":{"ha":1010,"x_min":47,"x_max":978,"o":"m 47 0 l 47 82 l 150 82 l 150 639 l 47 639 l 47 721 l 390 721 l 390 619 q 489 712 433 684 q 629 741 545 741 q 813 669 751 741 q 875 458 875 597 l 875 82 l 978 82 l 978 0 l 547 0 l 547 82 l 635 82 l 635 465 q 611 592 635 557 q 530 628 588 628 q 424 575 458 628 q 390 406 390 522 l 390 82 l 478 82 l 478 0 l 47 0 m 368 856 l 195 1111 l 306 1111 l 450 957 l 595 1111 l 706 1111 l 532 856 l 368 856 z "},"ŉ":{"ha":1400,"x_min":64,"x_max":1337,"o":"m 64 726 q 159 835 129 771 q 189 994 189 899 l 189 1031 l 371 1031 q 309 794 366 890 q 135 633 252 699 l 64 726 m 406 0 l 406 82 l 509 82 l 509 639 l 406 639 l 406 721 l 749 721 l 749 619 q 848 712 792 684 q 988 741 903 741 q 1172 669 1109 741 q 1234 458 1234 597 l 1234 82 l 1337 82 l 1337 0 l 906 0 l 906 82 l 994 82 l 994 465 q 970 592 994 557 q 889 628 947 628 q 783 575 817 628 q 749 406 749 522 l 749 82 l 837 82 l 837 0 l 406 0 z "},"Ŋ":{"ha":1270,"x_min":61,"x_max":1214,"o":"m 61 0 l 61 82 l 191 82 l 191 930 l 61 930 l 61 1013 l 378 1013 l 989 296 l 989 930 l 860 930 l 860 1013 l 1214 1013 l 1214 930 l 1084 930 l 1084 0 q 1027 -250 1084 -197 q 812 -309 960 -309 q 726 -302 772 -309 q 630 -282 680 -295 l 630 -130 l 707 -130 q 728 -208 708 -184 q 793 -232 748 -232 q 886 -196 860 -232 q 907 0 907 -165 l 286 732 l 286 82 l 415 82 l 415 0 l 61 0 z "},"ŋ":{"ha":1010,"x_min":47,"x_max":875,"o":"m 47 0 l 47 82 l 150 82 l 150 639 l 47 639 l 47 721 l 390 721 l 390 619 q 489 712 433 684 q 629 741 545 741 q 813 669 751 741 q 875 458 875 597 l 875 -85 q 797 -252 875 -195 q 566 -309 718 -309 q 479 -302 525 -309 q 383 -282 433 -295 l 383 -130 l 460 -130 q 481 -208 461 -184 q 546 -232 501 -232 q 615 -200 595 -232 q 635 -85 635 -168 l 635 465 q 611 592 635 557 q 530 628 588 628 q 424 575 458 628 q 390 406 390 522 l 390 82 l 478 82 l 478 0 l 47 0 z "},"Ō":{"ha":1210,"x_min":58,"x_max":1150,"o":"m 391 1270 l 818 1270 l 818 1142 l 391 1142 l 391 1270 m 604 62 q 797 172 734 62 q 860 505 860 281 q 797 840 860 730 q 604 949 734 949 q 412 839 475 949 q 349 505 349 728 q 412 173 349 283 q 604 62 475 62 m 604 -20 q 203 120 349 -20 q 58 505 58 260 q 204 891 58 751 q 604 1031 349 1031 q 1005 891 860 1031 q 1150 505 1150 751 q 1005 120 1150 260 q 604 -20 859 -20 z "},"ō":{"ha":926,"x_min":57,"x_max":871,"o":"m 250 1059 l 677 1059 l 677 932 l 250 932 l 250 1059 m 464 57 q 571 122 540 57 q 602 361 602 187 q 571 599 602 534 q 464 664 541 664 q 356 598 387 664 q 325 361 325 533 q 356 123 325 189 q 464 57 387 57 m 464 -20 q 165 82 273 -20 q 57 361 57 183 q 165 640 57 539 q 464 741 273 741 q 763 640 655 741 q 871 361 871 539 q 763 82 871 183 q 464 -20 654 -20 z "},"Ŏ":{"ha":1210,"x_min":58,"x_max":1150,"o":"m 375 1288 l 458 1288 q 511 1231 473 1251 q 606 1211 549 1211 q 701 1231 663 1211 q 753 1288 739 1251 l 836 1288 q 759 1154 817 1199 q 606 1109 701 1109 q 451 1153 508 1109 q 375 1288 394 1197 m 604 62 q 797 172 734 62 q 860 505 860 281 q 797 840 860 730 q 604 949 734 949 q 412 839 475 949 q 349 505 349 728 q 412 173 349 283 q 604 62 475 62 m 604 -20 q 203 120 349 -20 q 58 505 58 260 q 204 891 58 751 q 604 1031 349 1031 q 1005 891 860 1031 q 1150 505 1150 751 q 1005 120 1150 260 q 604 -20 859 -20 z "},"ŏ":{"ha":926,"x_min":57,"x_max":871,"o":"m 232 1078 l 317 1078 q 359 1002 321 1028 q 464 975 397 975 q 569 1002 531 975 q 611 1078 607 1028 l 696 1078 q 634 923 696 979 q 464 867 573 867 q 293 922 353 867 q 232 1078 233 977 m 464 57 q 571 122 540 57 q 602 361 602 187 q 571 599 602 534 q 464 664 541 664 q 356 598 387 664 q 325 361 325 533 q 356 123 325 189 q 464 57 387 57 m 464 -20 q 165 82 273 -20 q 57 361 57 183 q 165 640 57 539 q 464 741 273 741 q 763 640 655 741 q 871 361 871 539 q 763 82 871 183 q 464 -20 654 -20 z "},"Ő":{"ha":1210,"x_min":58,"x_max":1150,"o":"m 786 1288 l 975 1288 l 774 1109 l 663 1109 l 786 1288 m 561 1288 l 750 1288 l 549 1109 l 437 1109 l 561 1288 m 604 62 q 797 172 734 62 q 860 505 860 281 q 797 840 860 730 q 604 949 734 949 q 412 839 475 949 q 349 505 349 728 q 412 173 349 283 q 604 62 475 62 m 604 -20 q 203 120 349 -20 q 58 505 58 260 q 204 891 58 751 q 604 1031 349 1031 q 1005 891 860 1031 q 1150 505 1150 751 q 1005 120 1150 260 q 604 -20 859 -20 z "},"ő":{"ha":926,"x_min":57,"x_max":871,"o":"m 646 1111 l 806 1111 l 604 856 l 493 856 l 646 1111 m 397 1111 l 545 1111 l 379 856 l 269 856 l 397 1111 m 464 57 q 571 122 540 57 q 602 361 602 187 q 571 599 602 534 q 464 664 541 664 q 356 598 387 664 q 325 361 325 533 q 356 123 325 189 q 464 57 387 57 m 464 -20 q 165 82 273 -20 q 57 361 57 183 q 165 640 57 539 q 464 741 273 741 q 763 640 655 741 q 871 361 871 539 q 763 82 871 183 q 464 -20 654 -20 z "},"Œ":{"ha":1639,"x_min":58,"x_max":1568,"o":"m 790 82 l 790 930 l 704 930 q 434 824 525 930 q 343 507 343 718 q 433 188 343 294 q 704 82 524 82 l 790 82 m 1568 0 l 672 0 q 440 18 532 0 q 279 74 348 35 q 116 245 173 132 q 58 507 58 357 q 116 768 58 656 q 279 939 173 880 q 438 995 347 978 q 672 1013 529 1013 l 1556 1013 l 1556 774 l 1463 774 l 1463 920 l 1053 920 l 1053 595 l 1301 595 l 1301 724 l 1394 724 l 1394 374 l 1301 374 l 1301 503 l 1053 503 l 1053 93 l 1475 93 l 1475 239 l 1568 239 l 1568 0 z "},"œ":{"ha":1428,"x_min":57,"x_max":1367,"o":"m 464 57 q 571 122 540 57 q 602 361 602 187 q 571 599 602 534 q 464 664 541 664 q 356 598 387 664 q 325 361 325 533 q 356 123 325 189 q 464 57 387 57 m 1101 407 q 1075 607 1101 549 q 985 664 1048 664 q 897 608 924 664 q 871 419 871 553 l 871 407 l 1101 407 m 736 635 q 850 715 787 689 q 993 741 913 741 q 1265 634 1169 741 q 1367 327 1360 528 l 871 326 l 871 321 q 912 119 871 180 q 1047 57 954 57 q 1173 98 1125 57 q 1235 218 1221 140 l 1348 218 q 1236 40 1321 100 q 1008 -20 1150 -20 q 852 6 919 -20 q 736 86 785 33 q 616 7 688 34 q 453 -20 545 -20 q 163 83 270 -20 q 57 361 57 185 q 165 640 57 539 q 464 741 273 741 q 617 714 550 741 q 736 635 685 688 z "},"Ŕ":{"ha":1154,"x_min":65,"x_max":1162,"o":"m 612 1289 l 801 1289 l 600 1109 l 488 1109 l 612 1289 m 737 494 q 839 454 798 486 q 911 364 880 423 l 1059 82 l 1162 82 l 1162 0 l 829 0 l 668 306 q 588 427 621 401 q 497 453 555 453 l 456 453 l 456 82 l 586 82 l 586 0 l 65 0 l 65 82 l 195 82 l 195 930 l 65 930 l 65 1013 l 643 1013 q 915 942 819 1013 q 1011 741 1011 871 q 943 573 1011 635 q 737 494 875 512 m 456 534 l 545 534 q 691 586 640 534 q 742 733 742 637 q 691 880 742 829 q 545 930 640 930 l 456 930 l 456 534 z "},"ŕ":{"ha":732,"x_min":40,"x_max":746,"o":"m 513 1078 l 702 1078 l 449 823 l 338 823 l 513 1078 m 746 729 l 746 514 l 669 514 q 638 600 665 572 q 559 628 611 628 q 435 559 481 628 q 390 367 390 490 l 390 82 l 521 82 l 521 0 l 47 0 l 47 82 l 150 82 l 150 639 l 40 639 l 40 721 l 390 721 l 390 593 q 483 704 425 668 q 625 741 541 741 q 676 738 646 741 q 746 729 707 734 z "},"Ŗ":{"ha":1154,"x_min":65,"x_max":1162,"o":"m 492 -265 q 570 -201 545 -237 q 595 -119 595 -166 l 595 -90 l 741 -90 l 741 -93 q 693 -222 741 -168 q 549 -313 646 -276 l 492 -265 m 737 494 q 839 454 798 486 q 911 364 880 423 l 1059 82 l 1162 82 l 1162 0 l 829 0 l 668 306 q 588 427 621 401 q 497 453 555 453 l 456 453 l 456 82 l 586 82 l 586 0 l 65 0 l 65 82 l 195 82 l 195 930 l 65 930 l 65 1013 l 643 1013 q 915 942 819 1013 q 1011 741 1011 871 q 943 573 1011 635 q 737 494 875 512 m 456 534 l 545 534 q 691 586 640 534 q 742 733 742 637 q 691 880 742 829 q 545 930 640 930 l 456 930 l 456 534 z "},"ŗ":{"ha":732,"x_min":40,"x_max":746,"o":"m 163 -265 q 241 -201 216 -237 q 266 -119 266 -166 l 266 -90 l 411 -90 l 411 -93 q 363 -222 411 -168 q 219 -313 317 -276 l 163 -265 m 746 729 l 746 514 l 669 514 q 638 600 665 572 q 559 628 611 628 q 435 559 481 628 q 390 367 390 490 l 390 82 l 521 82 l 521 0 l 47 0 l 47 82 l 150 82 l 150 639 l 40 639 l 40 721 l 390 721 l 390 593 q 483 704 425 668 q 625 741 541 741 q 676 738 646 741 q 746 729 707 734 z "},"Ř":{"ha":1154,"x_min":65,"x_max":1162,"o":"m 737 494 q 839 454 798 486 q 911 364 880 423 l 1059 82 l 1162 82 l 1162 0 l 829 0 l 668 306 q 588 427 621 401 q 497 453 555 453 l 456 453 l 456 82 l 586 82 l 586 0 l 65 0 l 65 82 l 195 82 l 195 930 l 65 930 l 65 1013 l 643 1013 q 915 942 819 1013 q 1011 741 1011 871 q 943 573 1011 635 q 737 494 875 512 m 456 534 l 545 534 q 691 586 640 534 q 742 733 742 637 q 691 880 742 829 q 545 930 640 930 l 456 930 l 456 534 m 482 1109 l 331 1288 l 442 1288 l 587 1178 l 731 1288 l 842 1288 l 691 1109 l 482 1109 z "},"ř":{"ha":732,"x_min":40,"x_max":746,"o":"m 746 729 l 746 514 l 669 514 q 638 600 665 572 q 559 628 611 628 q 435 559 481 628 q 390 367 390 490 l 390 82 l 521 82 l 521 0 l 47 0 l 47 82 l 150 82 l 150 639 l 40 639 l 40 721 l 390 721 l 390 593 q 483 704 425 668 q 625 741 541 741 q 676 738 646 741 q 746 729 707 734 m 368 856 l 195 1111 l 306 1111 l 450 957 l 595 1111 l 706 1111 l 532 856 l 368 856 z "},"Ś":{"ha":1003,"x_min":92,"x_max":920,"o":"m 612 1289 l 801 1289 l 600 1109 l 488 1109 l 612 1289 m 107 49 l 107 289 l 193 289 q 286 119 213 175 q 489 62 359 62 q 649 102 594 62 q 704 220 704 142 q 667 315 704 281 q 513 378 629 349 l 361 415 q 152 520 212 453 q 92 713 92 588 q 192 947 92 863 q 472 1031 292 1031 q 657 1016 561 1031 q 856 971 753 1001 l 856 747 l 770 747 q 684 900 750 852 q 494 949 617 949 q 343 914 394 949 q 292 810 292 879 q 327 714 292 747 q 500 646 362 681 l 652 608 q 856 498 793 573 q 920 293 920 424 q 814 60 920 140 q 503 -20 708 -20 q 306 -3 404 -20 q 107 49 208 14 z "},"ś":{"ha":782,"x_min":60,"x_max":725,"o":"m 513 1078 l 702 1078 l 449 823 l 338 823 l 513 1078 m 65 21 l 65 222 l 142 222 q 202 99 151 142 q 340 57 253 57 q 453 82 414 57 q 492 155 492 108 q 467 222 492 199 q 371 264 442 246 l 272 289 q 110 369 160 317 q 60 509 60 420 q 141 683 60 626 q 392 741 222 741 q 528 730 456 741 q 688 697 600 720 l 688 515 l 611 515 q 558 627 605 589 q 425 664 512 664 q 314 641 352 664 q 277 572 277 617 q 298 515 277 536 q 376 479 320 494 l 475 454 q 671 366 616 418 q 725 218 725 313 q 638 38 725 96 q 367 -20 551 -20 q 224 -9 300 -20 q 65 21 149 1 z "},"Ŝ":{"ha":1003,"x_min":92,"x_max":920,"o":"m 390 1288 l 599 1288 l 750 1109 l 639 1109 l 494 1218 l 350 1109 l 239 1109 l 390 1288 m 107 49 l 107 289 l 193 289 q 286 119 213 175 q 489 62 359 62 q 649 102 594 62 q 704 220 704 142 q 667 315 704 281 q 513 378 629 349 l 361 415 q 152 520 212 453 q 92 713 92 588 q 192 947 92 863 q 472 1031 292 1031 q 657 1016 561 1031 q 856 971 753 1001 l 856 747 l 770 747 q 684 900 750 852 q 494 949 617 949 q 343 914 394 949 q 292 810 292 879 q 327 714 292 747 q 500 646 362 681 l 652 608 q 856 498 793 573 q 920 293 920 424 q 814 60 920 140 q 503 -20 708 -20 q 306 -3 404 -20 q 107 49 208 14 z "},"ŝ":{"ha":782,"x_min":60,"x_max":725,"o":"m 310 1111 l 474 1111 l 648 856 l 536 856 l 392 1008 l 248 856 l 136 856 l 310 1111 m 65 21 l 65 222 l 142 222 q 202 99 151 142 q 340 57 253 57 q 453 82 414 57 q 492 155 492 108 q 467 222 492 199 q 371 264 442 246 l 272 289 q 110 369 160 317 q 60 509 60 420 q 141 683 60 626 q 392 741 222 741 q 528 730 456 741 q 688 697 600 720 l 688 515 l 611 515 q 558 627 605 589 q 425 664 512 664 q 314 641 352 664 q 277 572 277 617 q 298 515 277 536 q 376 479 320 494 l 475 454 q 671 366 616 418 q 725 218 725 313 q 638 38 725 96 q 367 -20 551 -20 q 224 -9 300 -20 q 65 21 149 1 z "},"Ş":{"ha":1003,"x_min":92,"x_max":920,"o":"m 107 49 l 107 289 l 193 289 q 286 119 213 175 q 489 62 359 62 q 649 102 594 62 q 704 220 704 142 q 667 315 704 281 q 513 378 629 349 l 361 415 q 152 520 212 453 q 92 713 92 588 q 192 947 92 863 q 472 1031 292 1031 q 657 1016 561 1031 q 856 971 753 1001 l 856 747 l 770 747 q 684 900 750 852 q 494 949 617 949 q 343 914 394 949 q 292 810 292 879 q 327 714 292 747 q 500 646 362 681 l 652 608 q 856 498 793 573 q 920 293 920 424 q 814 60 920 140 q 503 -20 708 -20 q 306 -3 404 -20 q 107 49 208 14 m 557 0 q 619 -80 599 -43 q 639 -153 639 -117 q 595 -241 639 -211 q 469 -272 551 -272 q 402 -268 437 -272 q 332 -254 368 -263 l 332 -149 q 391 -166 362 -160 q 444 -172 420 -172 q 506 -156 485 -172 q 528 -110 528 -140 q 516 -68 528 -91 q 471 0 505 -46 l 557 0 z "},"ş":{"ha":782,"x_min":60,"x_max":725,"o":"m 65 21 l 65 222 l 142 222 q 202 99 151 142 q 340 57 253 57 q 453 82 414 57 q 492 155 492 108 q 467 222 492 199 q 371 264 442 246 l 272 289 q 110 369 160 317 q 60 509 60 420 q 141 683 60 626 q 392 741 222 741 q 528 730 456 741 q 688 697 600 720 l 688 515 l 611 515 q 558 627 605 589 q 425 664 512 664 q 314 641 352 664 q 277 572 277 617 q 298 515 277 536 q 376 479 320 494 l 475 454 q 671 366 616 418 q 725 218 725 313 q 638 38 725 96 q 367 -20 551 -20 q 224 -9 300 -20 q 65 21 149 1 m 448 0 q 510 -80 490 -43 q 530 -153 530 -117 q 486 -241 530 -211 q 360 -272 442 -272 q 293 -268 328 -272 q 223 -254 258 -263 l 222 -149 q 282 -166 253 -160 q 335 -172 311 -172 q 397 -156 376 -172 q 418 -110 418 -140 q 407 -68 418 -91 q 361 0 396 -46 l 448 0 z "},"Š":{"ha":1003,"x_min":92,"x_max":920,"o":"m 107 49 l 107 289 l 193 289 q 286 119 213 175 q 489 62 359 62 q 649 102 594 62 q 704 220 704 142 q 667 315 704 281 q 513 378 629 349 l 361 415 q 152 520 212 453 q 92 713 92 588 q 192 947 92 863 q 472 1031 292 1031 q 657 1016 561 1031 q 856 971 753 1001 l 856 747 l 770 747 q 684 900 750 852 q 494 949 617 949 q 343 914 394 949 q 292 810 292 879 q 327 714 292 747 q 500 646 362 681 l 652 608 q 856 498 793 573 q 920 293 920 424 q 814 60 920 140 q 503 -20 708 -20 q 306 -3 404 -20 q 107 49 208 14 m 397 1109 l 245 1288 l 357 1288 l 501 1178 l 646 1288 l 757 1288 l 606 1109 l 397 1109 z "},"š":{"ha":782,"x_min":60,"x_max":725,"o":"m 65 21 l 65 222 l 142 222 q 202 99 151 142 q 340 57 253 57 q 453 82 414 57 q 492 155 492 108 q 467 222 492 199 q 371 264 442 246 l 272 289 q 110 369 160 317 q 60 509 60 420 q 141 683 60 626 q 392 741 222 741 q 528 730 456 741 q 688 697 600 720 l 688 515 l 611 515 q 558 627 605 589 q 425 664 512 664 q 314 641 352 664 q 277 572 277 617 q 298 515 277 536 q 376 479 320 494 l 475 454 q 671 366 616 418 q 725 218 725 313 q 638 38 725 96 q 367 -20 551 -20 q 224 -9 300 -20 q 65 21 149 1 m 310 856 l 136 1111 l 248 1111 l 392 957 l 536 1111 l 648 1111 l 474 856 l 310 856 z "},"Ţ":{"ha":1034,"x_min":16,"x_max":1019,"o":"m 568 0 q 630 -80 610 -43 q 650 -153 650 -117 q 606 -241 650 -211 q 480 -272 562 -272 q 413 -268 448 -272 q 343 -254 378 -263 l 342 -149 q 402 -166 373 -160 q 455 -172 431 -172 q 517 -156 496 -172 q 538 -110 538 -140 q 527 -68 538 -91 q 481 0 516 -46 l 568 0 m 252 0 l 252 82 l 386 82 l 386 920 l 109 920 l 109 760 l 16 760 l 16 1013 l 1019 1013 l 1019 760 l 928 760 l 928 920 l 648 920 l 648 82 l 783 82 l 783 0 l 252 0 z "},"ţ":{"ha":642,"x_min":33,"x_max":635,"o":"m 403 0 q 465 -80 445 -43 q 485 -153 485 -117 q 441 -241 485 -211 q 315 -272 397 -272 q 248 -268 283 -272 q 178 -254 214 -263 l 178 -149 q 237 -166 208 -160 q 290 -172 266 -172 q 352 -156 331 -172 q 374 -110 374 -140 q 362 -68 374 -91 q 317 0 351 -46 l 403 0 m 138 639 l 33 639 l 33 721 l 138 721 l 138 945 l 378 945 l 378 721 l 578 721 l 578 639 l 378 639 l 378 197 q 393 80 378 103 q 447 57 408 57 q 511 86 490 57 q 534 176 532 115 l 635 176 q 575 24 629 68 q 392 -20 522 -20 q 191 27 243 -20 q 138 197 138 73 l 138 639 z "},"Ť":{"ha":1034,"x_min":16,"x_max":1019,"o":"m 252 0 l 252 82 l 386 82 l 386 920 l 109 920 l 109 760 l 16 760 l 16 1013 l 1019 1013 l 1019 760 l 928 760 l 928 920 l 648 920 l 648 82 l 783 82 l 783 0 l 252 0 m 417 1109 l 266 1288 l 377 1288 l 522 1178 l 666 1288 l 777 1288 l 626 1109 l 417 1109 z "},"ť":{"ha":642,"x_min":33,"x_max":688,"o":"m 138 639 l 33 639 l 33 721 l 138 721 l 138 945 l 378 945 l 378 721 l 578 721 l 578 639 l 378 639 l 378 197 q 393 80 378 103 q 447 57 408 57 q 511 86 490 57 q 534 176 532 115 l 635 176 q 575 24 629 68 q 392 -20 522 -20 q 191 27 243 -20 q 138 197 138 73 l 138 639 m 499 1084 l 688 1084 l 564 829 l 452 829 l 499 1084 z "},"Ŧ":{"ha":1034,"x_min":16,"x_max":1019,"o":"m 252 0 l 252 82 l 386 82 l 386 447 l 218 447 l 218 577 l 386 577 l 386 920 l 109 920 l 109 760 l 16 760 l 16 1013 l 1019 1013 l 1019 760 l 928 760 l 928 920 l 648 920 l 648 577 l 816 577 l 816 447 l 648 447 l 648 82 l 783 82 l 783 0 l 252 0 z "},"ŧ":{"ha":642,"x_min":33,"x_max":635,"o":"m 138 639 l 33 639 l 33 721 l 138 721 l 138 945 l 378 945 l 378 721 l 578 721 l 578 639 l 378 639 l 378 451 l 503 451 l 503 321 l 378 321 l 378 197 q 393 80 378 103 q 447 57 408 57 q 511 86 490 57 q 534 176 532 115 l 635 176 q 575 24 629 68 q 392 -20 522 -20 q 191 27 243 -20 q 138 197 138 73 l 138 321 l 37 321 l 37 451 l 138 451 l 138 639 z "},"Ũ":{"ha":1211,"x_min":47,"x_max":1181,"o":"m 397 1109 l 397 1117 q 434 1245 397 1200 q 538 1291 471 1291 q 634 1264 580 1291 q 643 1260 640 1261 l 692 1238 q 723 1226 711 1229 q 747 1223 735 1223 q 792 1240 775 1223 q 808 1286 808 1257 l 808 1289 l 883 1289 l 883 1279 q 847 1152 883 1196 q 742 1107 810 1107 q 696 1114 719 1107 q 637 1138 673 1120 l 599 1157 q 563 1171 581 1166 q 533 1175 546 1175 q 489 1158 505 1175 q 472 1112 472 1141 l 472 1109 l 397 1109 m 176 930 l 47 930 l 47 1013 l 568 1013 l 568 930 l 439 930 l 439 424 q 498 159 439 235 q 700 83 557 83 q 898 160 840 83 q 957 424 957 236 l 957 930 l 828 930 l 828 1013 l 1181 1013 l 1181 930 l 1051 930 l 1051 410 q 951 79 1051 178 q 614 -20 850 -20 q 277 80 378 -20 q 176 411 176 180 l 176 930 z "},"ũ":{"ha":1010,"x_min":32,"x_max":962,"o":"m 237 888 l 237 899 q 273 1049 237 998 q 378 1100 309 1100 q 427 1092 403 1100 q 482 1063 451 1083 l 530 1031 l 532 1029 q 587 1010 562 1010 q 631 1034 614 1010 q 648 1099 648 1057 l 722 1099 l 722 1088 q 686 938 722 989 q 581 886 650 886 q 532 895 556 886 q 477 924 508 903 l 428 956 l 427 956 q 372 977 397 977 q 328 953 345 977 q 311 888 311 929 l 237 888 m 860 721 l 860 82 l 962 82 l 962 0 l 619 0 l 619 102 q 521 9 576 37 q 380 -20 465 -20 q 197 52 259 -20 q 135 262 135 123 l 135 639 l 32 639 l 32 721 l 375 721 l 375 300 q 397 129 375 165 q 479 93 420 93 q 586 146 552 93 q 619 317 619 200 l 619 639 l 532 639 l 532 721 l 860 721 z "},"Ū":{"ha":1211,"x_min":47,"x_max":1181,"o":"m 443 1270 l 870 1270 l 870 1142 l 443 1142 l 443 1270 m 176 930 l 47 930 l 47 1013 l 568 1013 l 568 930 l 439 930 l 439 424 q 498 159 439 235 q 700 83 557 83 q 898 160 840 83 q 957 424 957 236 l 957 930 l 828 930 l 828 1013 l 1181 1013 l 1181 930 l 1051 930 l 1051 410 q 951 79 1051 178 q 614 -20 850 -20 q 277 80 378 -20 q 176 411 176 180 l 176 930 z "},"ū":{"ha":1010,"x_min":32,"x_max":962,"o":"m 283 1059 l 710 1059 l 710 932 l 283 932 l 283 1059 m 860 721 l 860 82 l 962 82 l 962 0 l 619 0 l 619 102 q 521 9 576 37 q 380 -20 465 -20 q 197 52 259 -20 q 135 262 135 123 l 135 639 l 32 639 l 32 721 l 375 721 l 375 300 q 397 129 375 165 q 479 93 420 93 q 586 146 552 93 q 619 317 619 200 l 619 639 l 532 639 l 532 721 l 860 721 z "},"Ŭ":{"ha":1211,"x_min":47,"x_max":1181,"o":"m 410 1288 l 493 1288 q 546 1231 508 1251 q 640 1211 583 1211 q 735 1231 697 1211 q 787 1288 774 1251 l 871 1288 q 794 1154 852 1199 q 640 1109 736 1109 q 486 1153 543 1109 q 410 1288 429 1197 m 176 930 l 47 930 l 47 1013 l 568 1013 l 568 930 l 439 930 l 439 424 q 498 159 439 235 q 700 83 557 83 q 898 160 840 83 q 957 424 957 236 l 957 930 l 828 930 l 828 1013 l 1181 1013 l 1181 930 l 1051 930 l 1051 410 q 951 79 1051 178 q 614 -20 850 -20 q 277 80 378 -20 q 176 411 176 180 l 176 930 z "},"ŭ":{"ha":1010,"x_min":32,"x_max":962,"o":"m 248 1078 l 332 1078 q 374 1002 336 1028 q 479 975 412 975 q 585 1002 547 975 q 627 1078 623 1028 l 711 1078 q 650 923 711 979 q 479 867 589 867 q 309 922 369 867 q 248 1078 249 977 m 860 721 l 860 82 l 962 82 l 962 0 l 619 0 l 619 102 q 521 9 576 37 q 380 -20 465 -20 q 197 52 259 -20 q 135 262 135 123 l 135 639 l 32 639 l 32 721 l 375 721 l 375 300 q 397 129 375 165 q 479 93 420 93 q 586 146 552 93 q 619 317 619 200 l 619 639 l 532 639 l 532 721 l 860 721 z "},"Ů":{"ha":1211,"x_min":47,"x_max":1181,"o":"m 176 930 l 47 930 l 47 1013 l 568 1013 l 568 930 l 439 930 l 439 424 q 498 159 439 235 q 700 83 557 83 q 898 160 840 83 q 957 424 957 236 l 957 930 l 828 930 l 828 1013 l 1181 1013 l 1181 930 l 1051 930 l 1051 410 q 951 79 1051 178 q 614 -20 850 -20 q 277 80 378 -20 q 176 411 176 180 l 176 930 m 515 1274 q 572 1411 515 1354 q 709 1468 629 1468 q 845 1411 789 1468 q 902 1274 902 1354 q 845 1138 902 1194 q 709 1081 789 1081 q 572 1138 629 1081 q 515 1274 515 1194 m 620 1274 q 646 1211 620 1237 q 709 1185 672 1185 q 772 1212 746 1185 q 798 1274 798 1238 q 771 1337 798 1311 q 709 1363 745 1363 q 646 1337 671 1363 q 620 1274 620 1311 z "},"ů":{"ha":1010,"x_min":32,"x_max":962,"o":"m 860 721 l 860 82 l 962 82 l 962 0 l 619 0 l 619 102 q 521 9 576 37 q 380 -20 465 -20 q 197 52 259 -20 q 135 262 135 123 l 135 639 l 32 639 l 32 721 l 375 721 l 375 300 q 397 129 375 165 q 479 93 420 93 q 586 146 552 93 q 619 317 619 200 l 619 639 l 532 639 l 532 721 l 860 721 m 279 993 q 336 1129 279 1073 q 473 1186 393 1186 q 609 1129 553 1186 q 666 993 666 1073 q 609 856 666 913 q 473 800 553 800 q 336 856 393 800 q 279 993 279 913 m 384 993 q 410 930 384 956 q 473 904 436 904 q 536 930 510 904 q 562 993 562 956 q 535 1056 562 1029 q 473 1082 509 1082 q 410 1056 435 1082 q 384 993 384 1029 z "},"Ű":{"ha":1211,"x_min":47,"x_max":1181,"o":"m 821 1288 l 1010 1288 l 808 1109 l 697 1109 l 821 1288 m 595 1288 l 785 1288 l 583 1109 l 472 1109 l 595 1288 m 176 930 l 47 930 l 47 1013 l 568 1013 l 568 930 l 439 930 l 439 424 q 498 159 439 235 q 700 83 557 83 q 898 160 840 83 q 957 424 957 236 l 957 930 l 828 930 l 828 1013 l 1181 1013 l 1181 930 l 1051 930 l 1051 410 q 951 79 1051 178 q 614 -20 850 -20 q 277 80 378 -20 q 176 411 176 180 l 176 930 z "},"ű":{"ha":1010,"x_min":32,"x_max":962,"o":"m 661 1111 l 821 1111 l 620 856 l 509 856 l 661 1111 m 413 1111 l 560 1111 l 395 856 l 285 856 l 413 1111 m 860 721 l 860 82 l 962 82 l 962 0 l 619 0 l 619 102 q 521 9 576 37 q 380 -20 465 -20 q 197 52 259 -20 q 135 262 135 123 l 135 639 l 32 639 l 32 721 l 375 721 l 375 300 q 397 129 375 165 q 479 93 420 93 q 586 146 552 93 q 619 317 619 200 l 619 639 l 532 639 l 532 721 l 860 721 z "},"Ų":{"ha":1211,"x_min":47,"x_max":1181,"o":"m 176 930 l 47 930 l 47 1013 l 568 1013 l 568 930 l 439 930 l 439 424 q 498 159 439 235 q 700 83 557 83 q 898 160 840 83 q 957 424 957 236 l 957 930 l 828 930 l 828 1013 l 1181 1013 l 1181 930 l 1051 930 l 1051 410 q 951 79 1051 178 q 614 -20 850 -20 q 277 80 378 -20 q 176 411 176 180 l 176 930 m 571 -11 l 656 -11 q 609 -80 623 -55 q 596 -125 596 -105 q 615 -168 596 -153 q 670 -183 635 -183 q 724 -178 696 -183 q 777 -162 751 -172 l 777 -268 q 707 -279 740 -275 q 646 -283 675 -283 q 527 -252 570 -283 q 485 -163 485 -220 q 506 -91 485 -128 q 571 -11 527 -54 z "},"ų":{"ha":1010,"x_min":32,"x_max":1010,"o":"m 860 721 l 860 82 l 962 82 l 962 0 l 619 0 l 619 102 q 521 9 576 37 q 380 -20 465 -20 q 197 52 259 -20 q 135 262 135 123 l 135 639 l 32 639 l 32 721 l 375 721 l 375 300 q 397 129 375 165 q 479 93 420 93 q 586 146 552 93 q 619 317 619 200 l 619 639 l 532 639 l 532 721 l 860 721 m 804 0 l 888 0 q 842 -69 855 -44 q 829 -114 829 -94 q 848 -157 829 -142 q 903 -172 867 -172 q 957 -167 929 -172 q 1010 -151 984 -161 l 1009 -257 q 940 -268 972 -264 q 879 -272 907 -272 q 760 -241 802 -272 q 718 -153 718 -210 q 739 -80 718 -117 q 804 0 760 -43 z "},"Ŵ":{"ha":1560,"x_min":-12,"x_max":1576,"o":"m 677 1293 l 886 1293 l 1038 1114 l 926 1114 l 782 1223 l 637 1114 l 526 1114 l 677 1293 m 1183 0 l 1008 0 l 779 737 l 550 0 l 375 0 l 86 930 l -12 930 l -12 1013 l 468 1013 l 468 930 l 359 930 l 553 309 l 771 1013 l 964 1013 l 1186 297 l 1383 930 l 1263 930 l 1263 1013 l 1576 1013 l 1576 930 l 1472 930 l 1183 0 z "},"ŵ":{"ha":1196,"x_min":-12,"x_max":1223,"o":"m 524 1111 l 688 1111 l 861 856 l 750 856 l 606 1008 l 461 856 l 350 856 l 524 1111 m 749 721 l 913 240 l 1048 639 l 954 639 l 954 721 l 1223 721 l 1223 639 l 1139 639 l 921 0 l 755 0 l 603 452 l 449 0 l 285 0 l 66 639 l -12 639 l -12 721 l 396 721 l 396 639 l 311 639 l 444 249 l 606 721 l 749 721 z "},"Ŷ":{"ha":991,"x_min":-12,"x_max":1004,"o":"m 391 1293 l 600 1293 l 751 1114 l 640 1114 l 496 1223 l 351 1114 l 240 1114 l 391 1293 m 239 0 l 239 82 l 375 82 l 375 419 l 74 930 l -12 930 l -12 1013 l 473 1013 l 473 930 l 361 930 l 589 545 l 815 930 l 714 930 l 714 1013 l 1004 1013 l 1004 930 l 918 930 l 637 454 l 637 82 l 774 82 l 774 0 l 239 0 z "},"ŷ":{"ha":807,"x_min":-18,"x_max":840,"o":"m 329 1111 l 493 1111 l 667 856 l 555 856 l 411 1008 l 267 856 l 155 856 l 329 1111 m 433 -163 q 355 -275 401 -242 q 231 -309 309 -309 q 157 -301 197 -309 q 68 -279 116 -294 l 68 -129 l 144 -130 q 169 -207 146 -182 q 237 -232 192 -232 q 309 -208 281 -232 q 363 -117 336 -184 l 374 -92 l 60 639 l -18 639 l -18 721 l 397 721 l 397 639 l 311 639 l 494 212 l 665 639 l 570 639 l 570 721 l 840 721 l 840 639 l 753 639 l 433 -163 z "},"Ÿ":{"ha":991,"x_min":-12,"x_max":1004,"o":"m 239 0 l 239 82 l 375 82 l 375 419 l 74 930 l -12 930 l -12 1013 l 473 1013 l 473 930 l 361 930 l 589 545 l 815 930 l 714 930 l 714 1013 l 1004 1013 l 1004 930 l 918 930 l 637 454 l 637 82 l 774 82 l 774 0 l 239 0 m 244 1204 q 274 1275 244 1245 q 345 1304 304 1304 q 414 1275 385 1304 q 443 1204 443 1245 q 414 1135 443 1164 q 345 1105 385 1105 q 274 1135 304 1105 q 244 1204 244 1164 m 547 1204 q 577 1275 547 1245 q 647 1304 606 1304 q 718 1275 688 1304 q 747 1204 747 1245 q 718 1135 747 1164 q 647 1105 688 1105 q 577 1135 606 1105 q 547 1204 547 1164 z "},"Ź":{"ha":1014,"x_min":52,"x_max":964,"o":"m 612 1289 l 801 1289 l 600 1109 l 488 1109 l 612 1289 m 52 0 l 52 96 l 656 920 l 171 920 l 171 768 l 78 768 l 78 1013 l 957 1013 l 957 917 l 359 93 l 871 93 l 871 235 l 964 235 l 964 0 l 52 0 z "},"ź":{"ha":789,"x_min":49,"x_max":742,"o":"m 513 1078 l 702 1078 l 449 823 l 338 823 l 513 1078 m 49 0 l 49 82 l 463 642 l 151 642 l 151 518 l 71 518 l 71 721 l 742 721 l 742 640 l 328 81 l 661 81 l 661 211 l 742 211 l 742 0 l 49 0 z "},"Ż":{"ha":1014,"x_min":52,"x_max":964,"o":"m 410 1222 q 440 1292 410 1263 q 510 1322 469 1322 q 580 1292 551 1322 q 610 1222 610 1263 q 580 1152 610 1181 q 510 1123 551 1123 q 440 1152 469 1123 q 410 1222 410 1181 m 52 0 l 52 96 l 656 920 l 171 920 l 171 768 l 78 768 l 78 1013 l 957 1013 l 957 917 l 359 93 l 871 93 l 871 235 l 964 235 l 964 0 l 52 0 z "},"ż":{"ha":789,"x_min":49,"x_max":742,"o":"m 299 955 q 329 1025 299 996 q 399 1054 358 1054 q 469 1025 439 1054 q 498 955 498 996 q 469 885 498 915 q 399 855 439 855 q 329 885 358 855 q 299 955 299 915 m 49 0 l 49 82 l 463 642 l 151 642 l 151 518 l 71 518 l 71 721 l 742 721 l 742 640 l 328 81 l 661 81 l 661 211 l 742 211 l 742 0 l 49 0 z "},"Ž":{"ha":1014,"x_min":52,"x_max":964,"o":"m 52 0 l 52 96 l 656 920 l 171 920 l 171 768 l 78 768 l 78 1013 l 957 1013 l 957 917 l 359 93 l 871 93 l 871 235 l 964 235 l 964 0 l 52 0 m 403 1109 l 252 1288 l 363 1288 l 507 1178 l 652 1288 l 763 1288 l 612 1109 l 403 1109 z "},"ž":{"ha":789,"x_min":49,"x_max":742,"o":"m 49 0 l 49 82 l 463 642 l 151 642 l 151 518 l 71 518 l 71 721 l 742 721 l 742 640 l 328 81 l 661 81 l 661 211 l 742 211 l 742 0 l 49 0 m 313 856 l 139 1111 l 250 1111 l 395 957 l 539 1111 l 650 1111 l 477 856 l 313 856 z "},"ſ":{"ha":597,"x_min":43,"x_max":672,"o":"m 390 82 l 529 82 l 529 0 l 47 0 l 47 82 l 150 82 l 150 639 l 43 639 l 43 721 l 150 721 l 150 811 q 227 993 150 931 q 452 1055 303 1055 q 564 1049 509 1055 q 672 1029 619 1042 l 672 875 l 596 875 q 565 954 591 928 q 493 979 540 979 q 414 940 439 979 q 390 814 390 898 l 390 82 z "},"ƀ":{"ha":971,"x_min":28,"x_max":916,"o":"m 135 82 l 135 811 l 28 811 l 28 904 l 135 904 l 135 974 l 32 974 l 32 1055 l 375 1055 l 375 904 l 618 904 l 618 811 l 375 811 l 375 629 q 457 713 406 686 q 585 741 509 741 q 827 639 739 741 q 916 361 916 538 q 827 82 916 184 q 585 -20 739 -20 q 457 8 509 -20 q 375 92 406 35 l 375 0 l 32 0 l 32 82 l 135 82 m 375 325 q 407 142 375 199 q 511 86 439 86 q 615 146 585 86 q 646 361 646 205 q 615 575 646 516 q 511 635 585 635 q 407 578 439 635 q 375 396 375 522 l 375 325 z "},"Ɓ":{"ha":1174,"x_min":-167,"x_max":1097,"o":"m 195 1013 l 665 1013 q 943 950 853 1013 q 1036 762 1036 886 q 972 619 1036 672 q 782 553 908 566 q 1016 471 935 553 q 1097 293 1097 404 q 983 71 1097 142 q 628 0 870 0 l 65 0 l 65 82 l 195 82 l 195 930 q 15 870 62 930 q -33 682 -33 808 l -167 682 l -167 925 q 50 1001 -111 972 q 195 1013 115 1013 m 456 590 l 545 590 q 718 632 661 590 q 774 762 774 675 q 719 890 774 850 q 545 930 665 930 l 456 930 l 456 590 m 456 82 l 553 82 q 745 134 682 82 q 807 293 807 185 q 744 455 807 401 q 553 509 681 509 l 456 509 l 456 82 z "},"Ƃ":{"ha":1187,"x_min":65,"x_max":1110,"o":"m 65 0 l 65 82 l 195 82 l 195 930 l 65 930 l 65 1013 l 1048 1013 l 1048 760 l 957 760 l 957 920 l 456 920 l 456 590 l 545 590 q 795 576 712 590 q 1029 471 930 553 q 1110 293 1110 404 q 997 71 1110 142 q 629 0 883 0 l 65 0 m 456 82 l 553 82 q 758 134 695 82 q 820 293 820 185 q 758 454 820 401 q 553 509 694 509 l 456 509 l 456 82 z "},"ƃ":{"ha":971,"x_min":32,"x_max":916,"o":"m 375 325 q 407 142 375 199 q 511 86 439 86 q 616 146 585 86 q 646 361 646 205 q 616 575 646 516 q 511 635 585 635 q 407 578 439 635 q 375 396 375 522 l 375 325 m 781 1055 l 781 860 l 699 860 l 699 974 l 375 974 l 375 629 q 457 713 406 686 q 585 741 509 741 q 827 639 739 741 q 916 361 916 538 q 827 82 916 184 q 585 -20 739 -20 q 457 8 509 -20 q 375 92 406 35 l 375 0 l 32 0 l 32 82 l 135 82 l 135 974 l 32 974 l 32 1055 l 781 1055 z "},"Ƅ":{"ha":1187,"x_min":0,"x_max":1110,"o":"m 456 590 l 545 590 q 779 578 684 590 q 795 576 788 577 q 1027 473 928 553 q 1029 471 1027 472 q 1110 293 1110 404 q 997 71 1110 142 q 629 0 883 0 l 65 0 l 65 82 l 195 82 l 195 566 l 0 566 l 0 648 l 456 1013 l 456 590 m 456 82 l 553 82 q 753 131 690 82 q 758 134 755 132 q 820 293 820 185 q 757 455 820 401 q 564 509 696 506 q 553 509 559 509 l 456 509 l 456 82 z "},"ƅ":{"ha":971,"x_min":0,"x_max":916,"o":"m 375 325 q 407 142 375 199 q 511 86 439 86 q 615 146 585 86 q 646 361 646 205 q 615 575 646 516 q 511 635 585 635 q 407 578 439 635 q 375 396 375 522 l 375 325 m 0 684 l 0 765 l 375 1056 l 375 629 q 457 713 406 686 q 585 741 509 741 q 827 639 739 741 q 916 361 916 538 q 827 82 916 184 q 585 -20 739 -20 q 457 8 509 -20 q 375 92 406 35 l 375 0 l 32 0 l 32 82 l 135 82 l 134 684 l 0 684 z "},"Ɔ":{"ha":1105,"x_min":58,"x_max":1035,"o":"m 58 722 q 202 955 98 879 q 481 1031 306 1031 q 886 889 737 1031 q 1035 506 1035 748 q 886 122 1035 263 q 481 -20 737 -20 q 293 2 391 -20 q 86 68 195 24 l 86 317 l 172 317 q 269 126 199 189 q 453 62 338 62 q 673 171 601 62 q 745 506 745 280 q 673 840 745 732 q 452 949 601 949 q 287 892 351 949 q 193 722 222 836 l 58 722 z "},"Ƈ":{"ha":1105,"x_min":58,"x_max":1259,"o":"m 1035 289 q 891 56 995 132 q 612 -20 787 -20 q 208 122 356 -20 q 58 505 58 263 q 208 890 58 748 q 612 1031 356 1031 q 800 1009 703 1031 q 881 988 840 1000 q 949 1120 892 1074 q 1076 1167 1007 1167 q 1163 1160 1117 1167 q 1259 1141 1209 1154 l 1259 988 l 1182 988 q 1161 1066 1182 1042 q 1096 1090 1141 1090 q 1027 1059 1046 1090 q 1007 943 1007 1027 l 1007 694 l 921 694 q 825 886 895 822 q 640 949 755 949 q 420 840 492 949 q 349 505 349 731 q 420 171 349 279 q 642 62 492 62 q 807 119 743 62 q 900 289 871 175 l 1035 289 z "},"ƈ":{"ha":846,"x_min":57,"x_max":1011,"o":"m 783 225 q 678 41 758 102 q 461 -20 598 -20 q 163 80 269 -20 q 57 361 57 180 q 161 640 57 540 q 452 741 266 741 q 602 726 526 741 l 602 762 q 681 929 602 872 q 829 985 759 985 q 916 979 869 985 q 1011 959 962 972 l 1011 806 l 935 806 q 913 884 935 861 q 848 909 893 909 q 779 877 799 909 q 760 762 760 845 l 760 684 l 760 484 l 684 484 q 630 620 673 575 q 510 664 587 664 q 368 596 410 664 q 325 361 325 528 q 366 127 325 197 q 501 57 408 57 q 617 100 574 57 q 671 225 661 144 l 783 225 z "},"Ɖ":{"ha":1214,"x_min":60,"x_max":1154,"o":"m 465 82 l 559 82 q 791 183 718 82 q 864 507 864 285 q 791 829 864 728 q 559 930 718 930 l 465 930 l 465 576 l 690 576 l 690 484 l 465 484 l 465 82 m 74 0 l 74 82 l 204 82 l 204 484 l 60 484 l 60 576 l 204 576 l 204 930 l 74 930 l 74 1013 l 595 1013 q 1010 883 866 1013 q 1154 507 1154 753 q 1010 131 1154 261 q 595 0 866 0 l 74 0 z "},"Ɗ":{"ha":1204,"x_min":-167,"x_max":1146,"o":"m 195 1013 l 585 1013 q 1002 882 857 1013 q 1146 507 1146 752 q 1001 130 1146 261 q 585 0 857 0 l 65 0 l 65 82 l 195 82 l 195 930 q 15 870 62 930 q -33 682 -33 808 l -167 682 l -167 925 q 50 1001 -111 972 q 195 1013 115 1013 m 456 82 l 550 82 q 783 184 709 82 q 856 507 856 286 q 783 829 856 728 q 550 930 709 930 l 456 930 l 456 82 z "},"Ƌ":{"ha":1187,"x_min":65,"x_max":1110,"o":"m 720 920 l 218 920 l 218 760 l 127 760 l 127 1013 l 1110 1013 l 1110 930 l 981 930 l 981 82 l 1110 82 l 1110 0 l 547 0 q 179 71 292 0 q 65 293 65 142 q 146 471 65 404 q 149 473 148 472 q 380 576 247 553 q 396 578 387 577 q 630 590 492 590 l 720 590 l 720 920 m 720 82 l 720 509 l 622 509 l 611 509 q 418 455 479 509 q 355 293 355 401 q 418 134 355 185 l 422 131 q 622 82 485 82 l 720 82 z "},"ƌ":{"ha":971,"x_min":32,"x_max":916,"o":"m 572 325 l 572 396 q 540 578 572 522 q 436 635 508 635 q 332 575 362 635 q 302 361 302 516 q 332 146 302 205 q 436 86 362 86 q 540 142 508 86 q 572 325 572 199 m 915 974 l 812 974 l 812 82 l 916 82 l 916 0 l 572 0 l 572 92 q 490 8 542 35 q 363 -20 439 -20 q 121 82 209 -20 q 32 361 32 184 q 121 639 32 538 q 363 741 209 741 q 490 713 439 741 q 572 629 542 686 l 572 974 l 248 974 l 248 860 l 166 860 l 166 1055 l 915 1055 l 915 974 z "},"ƍ":{"ha":926,"x_min":57,"x_max":871,"o":"m 686 28 q 797 -134 797 -36 q 707 -295 797 -248 l 699 -299 q 464 -342 611 -342 q 313 -333 396 -342 q 153 -308 231 -324 l 153 -163 l 229 -163 q 243 -202 232 -188 q 280 -234 250 -212 q 397 -265 325 -265 q 522 -233 479 -265 l 545 -214 q 566 -131 571 -191 q 464 -20 566 -20 q 165 81 272 -20 q 57 360 57 182 q 165 639 57 538 q 464 741 273 741 q 762 639 654 741 q 871 360 871 538 q 762 81 871 182 q 686 28 698 21 m 464 664 q 357 599 388 664 q 326 360 326 534 q 357 122 326 186 q 464 57 387 57 q 572 122 541 57 q 603 360 603 188 q 572 598 603 532 q 464 664 541 664 z "},"Ǝ":{"ha":1059,"x_min":65,"x_max":987,"o":"m 987 0 l 65 0 l 65 239 l 158 239 l 158 93 l 597 93 l 597 503 l 332 503 l 332 374 l 239 374 l 239 724 l 332 724 l 332 595 l 597 595 l 597 920 l 171 920 l 171 774 l 77 774 l 77 1013 l 987 1013 l 987 930 l 858 930 l 858 82 l 987 82 l 987 0 z "},"Ə":{"ha":1210,"x_min":58,"x_max":1150,"o":"m 859 563 q 788 840 859 745 q 567 948 716 948 q 401 892 466 948 q 309 721 338 836 l 174 721 q 317 954 214 878 q 596 1030 421 1030 q 1001 888 852 1030 q 1150 505 1150 747 q 1005 120 1150 260 q 604 -20 859 -20 q 203 120 349 -20 q 58 505 58 260 l 58 563 l 859 563 m 859 454 l 349 454 q 412 172 349 263 q 604 62 480 62 q 797 172 734 62 q 859 454 859 268 z "},"Ɛ":{"ha":966,"x_min":97,"x_max":878,"o":"m 855 983 l 855 781 l 773 781 q 717 908 764 864 q 590 951 670 951 q 455 906 502 951 q 408 774 408 860 q 458 636 408 682 q 608 590 508 590 l 643 590 l 643 509 l 598 509 q 432 449 490 509 q 373 279 373 389 q 429 117 373 174 q 589 60 486 60 q 735 110 682 60 q 795 257 788 161 l 878 257 l 878 35 q 700 -6 785 7 q 534 -20 614 -20 q 209 56 321 -20 q 97 273 97 132 q 162 463 97 393 q 359 553 227 532 q 195 629 251 572 q 138 778 138 686 q 236 965 138 900 q 517 1031 334 1031 q 682 1019 597 1031 q 855 983 766 1007 z "},"Ƒ":{"ha":986,"x_min":-119,"x_max":968,"o":"m 110 -289 q -119 -243 -1 -289 l -119 -83 l -31 -83 q 37 -201 -31 -180 q 77 -207 54 -207 q 168 -156 142 -207 q 195 33 195 -105 l 195 930 l 65 930 l 65 1013 l 968 1013 l 968 774 l 875 774 l 875 920 l 457 920 l 457 595 l 714 595 l 714 724 l 807 724 l 807 374 l 714 374 l 714 503 l 457 503 l 457 28 q 359 -225 457 -151 q 110 -289 275 -289 z "},"ƒ":{"ha":597,"x_min":-132,"x_max":672,"o":"m 672 875 l 596 875 q 593 894 595 885 q 566 954 586 932 q 493 979 540 979 q 414 940 439 979 q 390 814 390 901 l 390 721 l 571 721 l 571 639 l 390 639 l 390 -20 q 313 -202 390 -140 q 88 -264 237 -264 q -24 -258 31 -264 q -132 -238 -79 -251 l -132 -83 l -56 -83 q -54 -102 -55 -94 q -26 -162 -46 -141 q 47 -188 0 -188 q 125 -149 101 -188 q 150 -22 150 -110 l 150 639 l 43 639 l 43 721 l 150 721 l 150 811 q 227 993 150 931 q 452 1055 303 1055 q 564 1048 509 1055 q 672 1029 619 1042 l 672 875 z "},"Ɠ":{"ha":1186,"x_min":58,"x_max":1293,"o":"m 916 973 q 984 1120 932 1078 q 1111 1167 1042 1167 q 1198 1160 1152 1167 q 1293 1141 1244 1154 l 1293 988 l 1217 988 q 1195 1066 1217 1042 q 1131 1090 1175 1090 q 1061 1059 1081 1090 q 1042 943 1042 1027 l 1042 694 l 956 694 q 854 888 925 829 q 653 949 783 949 q 422 842 496 949 q 349 505 349 735 q 419 170 349 277 q 639 62 490 62 q 745 75 696 62 q 833 114 793 88 l 833 392 l 711 392 l 711 473 l 1076 473 l 1076 85 q 849 6 962 32 q 616 -20 735 -20 q 208 121 356 -20 q 58 505 58 261 q 208 890 58 750 q 616 1031 356 1031 q 830 1009 777 1031 l 916 973 z "},"Ɣ":{"ha":1070,"x_min":7,"x_max":1069,"o":"m 457 481 l 132 940 l 7 940 l 7 1013 l 469 1013 l 469 940 l 431 940 l 612 655 l 823 940 l 688 940 l 688 1013 l 1069 1013 l 1069 940 l 938 940 l 664 580 q 920 -30 1047 61 q 523 -127 783 -127 q 199 8 247 -127 q 457 481 155 131 m 515 404 q 301 54 300 144 q 523 -45 303 -47 q 708 58 719 -44 q 515 404 700 137 z "},"ƕ":{"ha":1449,"x_min":43,"x_max":1394,"o":"m 875 235 q 978 82 875 81 q 1089 158 1046 82 q 1131 359 1131 234 q 1103 534 1131 469 q 1046 634 1067 616 l 1046 664 l 1134 664 q 1323 533 1253 621 q 1394 349 1394 445 q 1360 208 1394 275 q 1264 92 1326 141 q 1135 22 1208 46 q 978 -2 1061 -2 q 635 236 635 -2 l 635 465 q 612 593 635 557 q 530 628 588 628 q 424 575 458 628 q 390 406 390 522 l 390 82 l 478 82 l 478 0 l 47 0 l 47 82 l 150 82 l 150 974 l 43 974 l 43 1055 l 390 1055 l 390 619 q 489 712 433 684 q 629 741 545 741 q 812 669 751 741 q 875 458 875 597 l 875 235 z "},"Ɩ":{"ha":650,"x_min":65,"x_max":586,"o":"m 195 229 l 195 930 l 65 930 l 65 1013 l 586 1013 l 586 930 l 456 930 l 456 238 q 482 109 456 149 q 574 67 509 67 l 574 0 l 438 0 q 277 16 302 0 q 195 229 195 69 z "},"Ɨ":{"ha":650,"x_min":26,"x_max":624,"o":"m 456 577 l 624 577 l 624 447 l 456 447 l 456 82 l 586 82 l 586 0 l 65 0 l 65 82 l 195 82 l 195 447 l 26 447 l 26 577 l 195 577 l 195 930 l 65 930 l 65 1013 l 586 1013 l 586 930 l 456 930 l 456 577 z "},"Ƙ":{"ha":1207,"x_min":65,"x_max":1257,"o":"m 989 903 l 656 618 l 1150 82 l 1250 82 l 1250 0 l 907 0 l 456 492 l 456 82 l 586 82 l 586 0 l 65 0 l 65 82 l 195 82 l 195 930 l 65 930 l 65 1013 l 586 1013 l 586 930 l 456 930 l 456 561 l 885 930 q 1074 1013 979 1011 q 1161 1006 1109 1013 q 1257 987 1207 1000 l 1257 834 l 1180 834 q 1158 913 1180 888 q 1094 937 1137 939 q 989 903 1023 934 z "},"ƙ":{"ha":962,"x_min":47,"x_max":986,"o":"m 150 831 q 228 998 150 942 q 459 1055 307 1055 q 546 1048 500 1055 q 642 1029 592 1042 l 642 876 l 565 876 q 544 955 565 930 q 479 979 524 979 q 410 947 429 979 q 390 831 390 913 l 390 378 l 681 639 l 595 639 l 595 721 l 924 721 l 924 639 l 790 639 l 604 472 l 908 82 l 986 82 l 986 0 l 572 0 l 572 82 l 657 82 l 457 339 l 390 279 l 390 82 l 481 82 l 481 0 l 47 0 l 47 82 l 150 82 l 150 831 z "},"ƚ":{"ha":528,"x_min":47,"x_max":493,"o":"m 390 82 l 493 82 l 493 0 l 47 0 l 47 82 l 150 82 l 150 325 l 47 325 l 47 407 l 150 407 l 150 974 l 47 974 l 47 1055 l 390 1055 l 390 407 l 493 407 l 493 325 l 390 325 l 390 82 z "},"ƛ":{"ha":974,"x_min":50,"x_max":916,"o":"m 833 82 l 916 82 l 916 0 l 646 0 l 646 82 l 740 82 l 583 475 l 376 82 l 463 82 l 463 0 l 50 0 l 50 82 l 129 82 l 470 752 l 470 753 l 184 583 l 142 654 l 433 827 q 340 933 385 912 q 251 949 311 948 q 183 924 207 949 q 158 847 160 899 l 81 847 l 81 997 q 170 1019 132 1012 q 244 1026 217 1027 q 492 863 397 1026 l 635 948 l 679 877 l 530 788 l 530 787 l 833 82 z "},"Ɯ":{"ha":1470,"x_min":47,"x_max":1438,"o":"m 642 118 q 534 13 592 46 q 397 -20 475 -20 q 212 51 273 -20 q 151 262 151 121 l 151 930 l 47 930 l 47 1013 l 477 1013 l 477 930 l 391 930 l 391 298 q 411 128 391 163 q 488 93 432 93 q 587 142 552 93 q 623 282 623 191 l 623 930 l 536 930 l 536 1013 l 949 1013 l 949 930 l 863 930 l 863 298 q 884 128 863 163 q 960 93 905 93 q 1060 142 1025 93 q 1095 282 1095 191 l 1095 930 l 1009 930 l 1009 1013 l 1438 1013 l 1438 930 l 1335 930 l 1335 82 l 1438 82 l 1438 0 l 1095 0 l 1095 102 q 999 9 1053 39 q 870 -20 945 -20 q 727 14 782 -20 q 642 118 672 47 z "},"Ɲ":{"ha":1270,"x_min":-123,"x_max":1214,"o":"m -123 -243 l -123 -83 l -35 -83 q 33 -201 -35 -180 q 73 -207 50 -207 q 164 -156 138 -207 q 191 33 191 -106 l 191 930 l 61 930 l 61 1013 l 378 1013 l 989 296 l 989 930 l 860 930 l 860 1013 l 1214 1013 l 1214 930 l 1084 930 l 1084 0 l 907 0 l 286 732 l 286 28 q 212 -236 286 -165 q 61 -289 157 -289 q -7 -277 50 -289 q -123 -243 -64 -266 z "},"ƞ":{"ha":1010,"x_min":47,"x_max":977,"o":"m 47 0 l 47 82 l 150 82 l 150 639 l 47 639 l 47 721 l 390 721 l 390 619 q 489 712 433 684 q 629 741 545 741 q 812 669 751 741 q 875 458 875 597 l 875 -207 l 977 -207 l 977 -289 l 547 -289 l 547 -207 l 635 -207 l 635 465 q 612 593 635 557 q 530 628 588 628 q 424 575 458 628 q 390 406 390 522 l 390 82 l 478 82 l 478 0 l 47 0 z "},"Ɵ":{"ha":1210,"x_min":58,"x_max":1150,"o":"m 604 -20 q 203 120 349 -20 q 58 505 58 260 q 204 891 58 751 q 604 1031 349 1031 q 1005 891 860 1031 q 1150 505 1150 751 q 1005 120 1150 260 q 604 -20 859 -20 m 604 62 q 797 172 734 62 q 859 454 852 268 l 349 454 q 412 172 356 270 q 604 62 475 62 m 350 563 l 859 563 q 797 840 852 745 q 604 949 734 949 q 412 838 475 949 q 350 563 357 743 z "},"Ơ":{"ha":1210,"x_min":58,"x_max":1318,"o":"m 604 62 q 796 172 733 62 q 859 505 859 281 q 796 840 859 730 q 604 949 733 949 q 411 839 475 949 q 348 505 348 728 q 411 173 348 283 q 604 62 475 62 m 604 -20 q 203 120 348 -20 q 58 505 58 260 q 203 891 58 751 q 604 1031 349 1031 q 1004 891 859 1031 q 1149 505 1149 751 q 1004 120 1149 260 q 604 -20 859 -20 m 1046 555 l 1046 640 q 1116 593 1090 606 q 1160 581 1141 581 q 1203 600 1188 581 q 1219 654 1219 618 q 1213 708 1219 681 q 1198 761 1208 735 l 1303 761 q 1315 692 1311 724 q 1318 631 1318 659 q 1287 511 1318 553 q 1199 469 1256 469 q 1127 490 1164 469 q 1046 555 1090 511 z "},"ơ":{"ha":926,"x_min":58,"x_max":1035,"o":"m 465 57 q 571 122 541 57 q 602 361 602 187 q 572 599 602 534 q 465 664 541 664 q 357 598 388 664 q 326 361 326 533 q 357 123 326 189 q 465 57 388 57 m 465 -20 q 166 82 274 -20 q 58 361 58 183 q 166 640 58 539 q 465 741 274 741 q 764 640 656 741 q 871 361 871 539 q 763 82 871 183 q 465 -20 655 -20 m 763 555 l 763 640 q 832 593 807 606 q 877 581 857 581 q 920 600 905 581 q 935 654 935 618 q 930 708 935 681 q 914 761 924 735 l 1020 761 q 1031 692 1027 724 q 1035 631 1035 659 q 1004 511 1035 553 q 916 469 972 469 q 843 490 880 469 q 763 555 806 511 z "},"Ƣ":{"ha":1667,"x_min":58,"x_max":1602,"o":"m 604 -20 q 203 120 348 -20 q 58 505 58 260 q 203 891 58 751 q 604 1031 349 1031 q 898 967 776 1031 q 1012 1001 956 989 q 1125 1013 1069 1013 q 1389 937 1306 1013 q 1472 696 1472 861 l 1472 -156 l 1602 -156 l 1602 -238 l 1080 -238 l 1080 -156 l 1210 -156 l 1210 690 q 1184 880 1210 829 q 1092 930 1158 930 q 1015 901 1040 930 q 1006 890 1010 896 q 1149 505 1149 750 q 1004 120 1149 260 q 604 -20 859 -20 m 604 62 q 796 172 733 62 q 859 505 859 281 q 796 840 859 730 q 604 949 733 949 q 411 839 475 949 q 348 505 348 728 q 411 173 348 283 q 604 62 475 62 z "},"ƣ":{"ha":1310,"x_min":58,"x_max":1278,"o":"m 926 -207 l 926 497 q 907 612 926 581 q 838 644 887 644 q 778 626 798 644 q 871 361 871 527 q 763 82 871 183 q 465 -20 655 -20 q 166 82 274 -20 q 58 361 58 183 q 166 640 58 539 q 465 741 274 741 q 682 696 591 741 q 770 714 728 708 q 857 721 817 721 q 1088 664 1010 721 q 1166 497 1166 608 l 1166 -207 l 1278 -207 l 1278 -289 l 823 -289 l 823 -207 l 926 -207 m 465 57 q 571 122 541 57 q 602 361 602 187 q 572 599 602 534 q 465 664 541 664 q 357 598 388 664 q 326 361 326 533 q 357 123 326 189 q 465 57 388 57 z "},"Ƥ":{"ha":1044,"x_min":-167,"x_max":1010,"o":"m 195 1013 l 642 1013 q 910 932 810 1013 q 1010 717 1010 852 q 910 500 1010 581 q 642 419 810 419 l 456 419 l 456 82 l 619 82 l 619 0 l 65 0 l 65 82 l 195 82 l 195 930 q 15 870 62 930 q -33 682 -33 808 l -167 682 l -167 925 q 50 1001 -111 972 q 195 1013 115 1013 m 456 501 l 532 501 q 673 560 620 501 q 725 717 725 618 q 673 872 725 814 q 532 930 621 930 l 456 930 l 456 501 z "},"ƥ":{"ha":971,"x_min":32,"x_max":916,"o":"m 375 396 l 375 325 q 407 142 375 199 q 511 86 439 86 q 616 146 585 86 q 646 361 646 205 q 616 575 646 516 q 511 635 585 635 q 407 578 439 635 q 375 396 375 522 m 135 -207 l 135 762 q 213 929 135 872 q 444 985 292 985 q 531 979 485 985 q 627 959 577 972 l 627 806 l 550 806 q 529 884 550 861 q 464 909 509 909 q 395 877 414 909 q 375 762 375 845 l 375 629 q 457 713 406 686 q 585 741 509 741 q 827 639 739 741 q 916 361 916 538 q 827 82 916 184 q 585 -20 739 -20 q 457 8 509 -20 q 375 92 406 35 l 375 -207 l 486 -207 l 486 -289 l 32 -289 l 32 -207 l 135 -207 z "},"Ʀ":{"ha":1154,"x_min":62,"x_max":1162,"o":"m 195 930 l 65 930 l 65 1013 l 583 1013 l 583 930 l 456 930 l 456 815 l 643 815 q 915 744 819 815 q 1011 543 1011 673 q 943 376 1011 437 q 737 297 875 315 q 839 257 798 288 q 911 167 880 227 l 1059 -115 l 1162 -115 l 1162 -197 l 829 -197 l 668 109 q 589 229 616 208 q 497 256 555 256 l 456 256 l 453 82 l 583 82 l 583 0 l 62 0 l 62 82 l 192 82 l 195 930 m 456 337 l 545 337 q 691 389 640 337 q 742 536 742 440 q 691 682 742 631 q 545 733 640 733 l 456 733 l 456 337 z "},"Ƨ":{"ha":1003,"x_min":92,"x_max":920,"o":"m 904 49 q 705 -3 803 14 q 509 -20 608 -20 q 197 60 303 -20 q 92 293 92 140 q 155 498 92 424 q 359 608 218 573 l 511 646 q 684 713 649 681 q 720 810 720 747 q 669 914 720 879 q 517 949 617 949 q 328 901 394 949 q 241 747 261 852 l 155 747 l 155 971 q 354 1016 258 1001 q 539 1031 450 1031 q 819 947 720 1031 q 920 713 920 863 q 859 521 920 588 q 650 415 799 453 l 498 378 q 345 315 382 349 q 307 220 307 281 q 362 102 307 142 q 522 62 417 62 q 725 119 652 62 q 818 289 798 175 l 904 289 l 904 49 z "},"ƨ":{"ha":782,"x_min":60,"x_max":725,"o":"m 720 21 q 560 -9 635 1 q 418 -20 485 -20 q 146 38 234 -20 q 60 218 60 96 q 114 366 60 313 q 310 454 168 418 l 408 479 q 486 515 465 494 q 508 572 508 536 q 471 640 508 617 q 359 664 433 664 q 227 627 273 664 q 174 515 180 589 l 97 515 l 97 697 q 256 730 184 720 q 393 741 329 741 q 644 684 562 741 q 725 509 725 626 q 675 369 725 420 q 513 289 625 317 l 414 264 q 317 222 342 246 q 293 155 293 199 q 332 83 293 108 q 444 57 371 57 q 583 99 532 57 q 643 222 633 142 l 720 222 l 720 21 z "},"Ʃ":{"ha":982,"x_min":56,"x_max":888,"o":"m 56 0 l 507 507 l 56 1013 l 888 1013 l 888 787 l 805 787 l 805 920 l 458 920 l 728 601 l 357 189 l 805 189 l 805 286 l 888 286 l 888 0 l 56 0 z "},"ƪ":{"ha":460,"x_min":-90,"x_max":534,"o":"m 511 1033 q 479 918 511 972 q 389 838 454 875 q 389 832 389 835 l 252 -68 q 277 -195 240 -146 q 355 -233 306 -233 q 428 -208 402 -233 q 458 -129 453 -182 l 534 -129 l 534 -283 q 427 -303 481 -296 q 314 -309 372 -309 q 89 -248 174 -309 q 12 -65 -5 -178 l 139 768 q 88 767 114 767 q 13 774 45 767 q -90 903 -90 800 q 146 1055 -90 1053 q 311 999 234 1056 q 380 915 361 962 q 409 949 397 930 q 436 1033 428 979 l 511 1033 m 148 829 l 149 832 q 129 947 161 916 q 90 968 109 966 q 0 913 0 972 q 125 828 0 827 q 148 829 136 828 z "},"ƫ":{"ha":642,"x_min":33,"x_max":635,"o":"m 138 639 l 33 639 l 33 721 l 138 721 l 138 945 l 378 945 l 378 721 l 578 721 l 578 639 l 378 639 l 378 197 q 393 80 378 103 q 447 57 408 57 l 635 57 l 635 -85 q 556 -252 635 -195 q 326 -309 478 -309 q 239 -302 285 -309 q 143 -282 193 -295 l 143 -130 l 220 -130 q 241 -208 221 -184 q 306 -232 261 -232 q 375 -200 355 -232 q 395 -85 395 -170 l 395 -20 q 392 -20 393 -20 q 191 27 243 -20 q 138 197 138 73 l 138 639 z "},"Ƭ":{"ha":1034,"x_min":24,"x_max":1019,"o":"m 386 920 q 206 870 245 920 q 159 682 159 808 l 24 682 l 24 925 q 241 1001 81 972 q 386 1013 306 1013 l 1019 1013 l 1019 760 l 928 760 l 928 920 l 648 920 l 648 82 l 783 82 l 783 0 l 252 0 l 252 82 l 386 82 l 386 920 z "},"ƭ":{"ha":642,"x_min":33,"x_max":635,"o":"m 138 639 l 33 639 l 33 721 l 138 721 l 138 831 q 216 998 138 942 q 447 1055 294 1055 q 534 1048 488 1055 q 629 1029 580 1042 l 629 876 l 553 876 q 532 955 551 930 q 467 979 511 979 q 397 947 419 979 q 378 831 378 918 l 378 721 l 578 721 l 578 639 l 378 639 l 378 197 q 393 80 378 103 q 447 57 408 57 q 511 86 490 57 q 534 176 532 115 l 635 176 q 575 24 635 68 q 392 -20 522 -20 q 191 27 243 -20 q 138 197 138 73 l 138 639 z "},"Ʈ":{"ha":1034,"x_min":16,"x_max":1019,"o":"m 386 28 l 386 920 l 109 920 l 109 760 l 16 760 l 16 1013 l 1019 1013 l 1019 760 l 928 760 l 928 920 l 648 920 l 648 33 q 674 -156 648 -106 q 766 -207 701 -207 q 844 -177 818 -207 q 874 -83 870 -147 l 962 -83 l 962 -243 q 846 -277 903 -266 q 733 -289 789 -289 q 469 -213 552 -289 q 386 28 386 -137 z "},"Ư":{"ha":1211,"x_min":52,"x_max":1320,"o":"m 180 930 l 52 930 l 52 1013 l 572 1013 l 572 930 l 443 930 l 443 424 q 502 159 443 235 q 704 83 561 83 q 902 160 844 83 q 961 424 961 236 l 961 930 l 832 930 l 832 1013 l 1185 1013 l 1185 930 l 1055 930 l 1055 410 q 955 79 1055 178 q 618 -20 854 -20 q 281 80 382 -20 q 180 411 180 180 l 180 930 m 1048 555 l 1048 640 q 1117 593 1092 606 q 1162 581 1142 581 q 1205 600 1190 581 q 1220 654 1220 618 q 1215 708 1220 681 q 1199 761 1209 735 l 1305 761 q 1316 692 1312 724 q 1320 631 1320 659 q 1289 511 1320 553 q 1200 469 1257 469 q 1128 490 1165 469 q 1048 555 1091 511 z "},"ư":{"ha":1010,"x_min":35,"x_max":1118,"o":"m 863 721 l 863 82 l 965 82 l 965 0 l 622 0 l 622 102 q 524 9 579 37 q 383 -20 468 -20 q 200 52 262 -20 q 138 262 138 123 l 138 639 l 35 639 l 35 721 l 378 721 l 378 300 q 400 129 378 165 q 482 93 422 93 q 588 146 555 93 q 622 317 622 200 l 622 639 l 534 639 l 534 721 l 863 721 m 846 555 l 846 640 q 916 593 890 606 q 960 581 941 581 q 1003 600 988 581 q 1019 654 1019 618 q 1013 708 1019 681 q 998 761 1008 735 l 1103 761 q 1115 692 1111 724 q 1118 631 1118 659 q 1087 511 1118 553 q 999 469 1056 469 q 927 490 964 469 q 846 555 890 511 z "},"Ʊ":{"ha":1236,"x_min":62,"x_max":1174,"o":"m 389 906 l 163 906 l 163 821 l 70 821 l 70 1031 l 567 1031 l 567 900 q 407 775 461 878 q 353 492 353 672 q 420 187 353 292 q 618 82 488 82 q 817 187 749 82 q 884 493 884 292 q 829 774 884 670 q 669 900 774 878 l 669 1031 l 1167 1031 l 1167 821 l 1075 821 l 1075 906 l 848 906 q 1091 735 1008 844 q 1174 477 1174 626 q 1021 132 1174 262 q 618 0 869 0 q 215 132 368 0 q 62 477 62 262 q 145 735 62 626 q 389 906 228 844 z "},"Ʋ":{"ha":1236,"x_min":110,"x_max":1174,"o":"m 618 82 q 816 187 749 82 q 884 493 884 292 q 829 774 884 671 q 741 863 781 863 l 741 930 l 822 930 q 1091 735 989 869 q 1174 477 1174 626 q 1022 131 1174 262 q 618 0 869 0 l 483 0 q 321 16 347 0 q 239 229 239 69 l 239 930 l 110 930 l 110 1013 l 631 1013 l 631 930 l 500 930 l 500 253 q 527 123 500 165 q 618 82 553 82 z "},"Ƴ":{"ha":991,"x_min":-12,"x_max":1135,"o":"m 815 930 l 589 545 l 361 930 l 473 930 l 473 1013 l -12 1013 l -12 930 l 74 930 l 375 419 l 375 82 l 239 82 l 239 0 l 774 0 l 774 82 l 637 82 l 637 454 l 903 905 q 972 937 922 937 q 1037 913 1017 937 q 1059 835 1057 889 l 1135 835 l 1135 987 q 1040 1007 1086 1000 q 981 1014 1014 1014 q 815 930 864 1014 z "},"ƴ":{"ha":984,"x_min":-18,"x_max":985,"o":"m 753 632 q 822 664 767 667 q 887 640 867 664 q 908 562 907 616 l 985 562 l 985 714 q 889 734 935 727 q 822 741 843 741 q 665 639 707 741 l 494 212 l 311 639 l 397 639 l 397 721 l -18 721 l -18 639 l 60 639 l 374 -92 l 363 -117 q 309 -208 336 -184 q 237 -232 281 -232 q 169 -207 192 -232 q 144 -130 146 -182 l 68 -129 l 68 -279 q 157 -301 116 -294 q 231 -309 197 -309 q 355 -275 309 -309 q 433 -163 401 -242 l 753 632 z "},"Ƶ":{"ha":1014,"x_min":52,"x_max":964,"o":"m 52 0 l 52 96 l 309 447 l 159 447 l 159 577 l 405 577 l 656 920 l 171 920 l 171 768 l 78 768 l 78 1013 l 957 1013 l 957 917 l 711 577 l 876 577 l 876 447 l 616 447 l 359 93 l 871 93 l 871 235 l 964 235 l 964 0 l 52 0 z "},"ƶ":{"ha":789,"x_min":49,"x_max":742,"o":"m 662 407 l 662 325 l 509 325 l 328 81 l 661 81 l 661 211 l 742 211 l 742 0 l 49 0 l 49 82 l 229 325 l 127 325 l 127 407 l 289 407 l 463 642 l 151 642 l 151 518 l 71 518 l 71 721 l 742 721 l 742 640 l 569 407 l 662 407 z "},"Ʒ":{"ha":789,"x_min":48,"x_max":829,"o":"m 495 569 q 720 498 645 555 q 829 273 829 416 q 716 56 829 132 q 391 -20 604 -20 q 226 -6 311 -20 q 48 35 141 7 l 48 257 l 130 257 q 191 110 138 161 q 337 60 243 60 q 496 117 440 60 q 553 279 553 174 q 494 449 553 389 q 328 509 435 509 l 283 509 l 283 661 l 463 920 l 171 920 l 171 768 l 78 768 l 78 1013 l 742 1013 l 742 920 l 495 569 z "},"Ƹ":{"ha":789,"x_min":48,"x_max":829,"o":"m 382 569 l 135 920 l 135 1013 l 799 1013 l 799 768 l 706 768 l 706 920 l 414 920 l 594 661 l 594 509 l 549 509 q 383 449 441 509 q 324 279 324 389 q 380 117 324 174 q 540 60 437 60 q 686 110 633 60 q 747 257 739 161 l 829 257 l 829 35 q 651 -6 736 7 q 486 -20 566 -20 q 160 56 273 -20 q 48 273 48 132 q 157 498 48 416 q 382 569 232 555 z "},"ƹ":{"ha":789,"x_min":48,"x_max":829,"o":"m 382 307 q 157 235 232 292 q 48 11 48 153 q 160 -207 48 -131 q 486 -282 273 -282 q 651 -269 566 -282 q 829 -228 736 -255 l 829 -5 l 747 -5 q 686 -152 739 -102 q 540 -203 633 -203 q 380 -145 437 -203 q 324 17 324 -88 q 383 186 324 127 q 549 246 441 246 l 594 246 l 594 399 l 414 642 l 726 642 l 726 518 l 806 518 l 806 721 l 135 721 l 135 640 l 382 307 z "},"ƻ":{"ha":966,"x_min":93,"x_max":876,"o":"m 183 762 l 102 762 l 102 981 q 266 1019 184 1006 q 429 1031 347 1031 q 731 952 623 1031 q 839 732 839 873 q 796 577 839 647 l 876 577 l 876 447 l 670 447 q 551 363 620 408 l 269 178 l 749 178 l 749 297 l 842 297 l 842 0 l 93 0 l 93 165 l 243 269 q 460 447 389 370 l 159 447 l 159 577 l 541 577 q 562 711 562 639 q 514 890 562 829 q 372 951 465 951 q 244 903 292 951 q 183 762 196 854 z "},"Ƽ":{"ha":1047,"x_min":65,"x_max":968,"o":"m 696 570 q 893 479 828 549 q 958 273 958 410 q 846 56 958 132 q 521 -20 734 -20 q 356 -6 441 -20 q 178 35 271 7 l 178 257 l 260 257 q 320 110 267 161 q 467 60 373 60 q 626 117 570 60 q 682 279 682 174 q 624 449 682 389 q 457 509 565 509 l 195 509 l 195 930 l 65 930 l 65 1013 l 968 1013 l 968 774 l 875 774 l 875 920 l 457 920 l 457 590 q 696 570 573 589 z "},"ƽ":{"ha":789,"x_min":47,"x_max":829,"o":"m 495 320 q 720 249 673 284 q 829 11 829 167 q 716 -207 829 -131 q 391 -282 604 -282 q 226 -269 311 -282 q 48 -228 141 -255 l 48 -5 l 130 -5 q 191 -152 138 -102 q 337 -203 243 -203 q 496 -145 440 -203 q 553 17 553 -88 q 494 186 553 127 q 328 246 435 246 l 149 246 l 149 639 l 47 639 l 47 721 l 795 721 l 795 525 l 713 525 l 713 639 l 389 639 l 389 328 q 495 320 466 326 z "},"ƾ":{"ha":745,"x_min":31,"x_max":523,"o":"m 138 945 l 378 945 l 378 711 l 478 711 l 478 629 l 378 629 l 378 534 q 456 476 396 528 q 523 258 523 418 q 456 43 523 106 q 214 -20 390 -20 q 120 -9 165 -20 q 33 24 75 1 l 31 159 l 108 159 q 129 80 111 103 q 210 56 149 56 q 296 88 279 56 q 315 279 313 121 q 287 452 318 422 q 216 472 266 472 l 138 472 l 138 629 l 33 629 l 33 711 l 138 711 l 138 945 z "},"ǀ":{"ha":410,"x_min":132,"x_max":278,"o":"m 278 1013 l 278 0 l 132 0 l 132 1013 l 278 1013 z "},"ǁ":{"ha":684,"x_min":132,"x_max":552,"o":"m 278 1013 l 278 0 l 132 0 l 132 1013 l 278 1013 m 552 1013 l 552 0 l 406 0 l 406 1013 l 552 1013 z "},"ǂ":{"ha":637,"x_min":12,"x_max":625,"o":"m 245 577 l 12 577 l 12 687 l 245 687 l 245 1013 l 392 1013 l 392 687 l 625 687 l 625 577 l 392 577 l 392 435 l 625 435 l 625 326 l 392 326 l 392 0 l 245 0 l 245 326 l 12 326 l 12 435 l 245 435 l 245 577 z "},"ǃ":{"ha":410,"x_min":132,"x_max":278,"o":"m 278 146 l 278 0 l 132 0 l 132 146 l 278 146 m 278 1013 l 278 293 l 132 293 l 132 1013 l 278 1013 z "},"Ǆ":{"ha":2218,"x_min":65,"x_max":2168,"o":"m 1256 0 l 1256 96 l 1860 920 l 1375 920 l 1375 768 l 1282 768 l 1282 1013 l 2161 1013 l 2161 917 l 1564 93 l 2075 93 l 2075 235 l 2168 235 l 2168 0 l 1256 0 m 1607 1109 l 1456 1288 l 1567 1288 l 1712 1178 l 1856 1288 l 1967 1288 l 1816 1109 l 1607 1109 m 456 82 l 550 82 q 782 184 709 82 q 856 507 856 286 q 783 829 856 728 q 550 930 709 930 l 456 930 l 456 82 m 65 0 l 65 82 l 195 82 l 195 930 l 65 930 l 65 1013 l 585 1013 q 1002 882 857 1013 q 1146 507 1146 752 q 1001 131 1146 261 q 585 0 857 0 l 65 0 z "},"ǅ":{"ha":1993,"x_min":65,"x_max":1946,"o":"m 1253 0 l 1253 82 l 1667 642 l 1356 642 l 1356 518 l 1275 518 l 1275 721 l 1946 721 l 1946 640 l 1532 81 l 1866 81 l 1866 211 l 1946 211 l 1946 0 l 1253 0 m 1517 856 l 1343 1111 l 1455 1111 l 1599 957 l 1744 1111 l 1855 1111 l 1681 856 l 1517 856 m 456 82 l 550 82 q 782 184 709 82 q 856 507 856 286 q 783 829 856 728 q 550 930 709 930 l 456 930 l 456 82 m 65 0 l 65 82 l 195 82 l 195 930 l 65 930 l 65 1013 l 585 1013 q 1002 882 857 1013 q 1146 507 1146 752 q 1001 131 1146 261 q 585 0 857 0 l 65 0 z "},"ǆ":{"ha":1760,"x_min":57,"x_max":1713,"o":"m 1020 0 l 1020 82 l 1434 642 l 1122 642 l 1122 518 l 1042 518 l 1042 721 l 1713 721 l 1713 640 l 1299 81 l 1632 81 l 1632 211 l 1713 211 l 1713 0 l 1020 0 m 1284 856 l 1110 1111 l 1221 1111 l 1366 957 l 1510 1111 l 1622 1111 l 1448 856 l 1284 856 m 596 325 l 596 396 q 564 578 596 522 q 460 635 531 635 q 355 575 385 635 q 325 361 325 516 q 355 146 325 205 q 460 86 386 86 q 564 142 531 86 q 596 325 596 199 m 836 82 l 939 82 l 939 0 l 596 0 l 596 92 q 514 8 566 35 q 386 -20 462 -20 q 145 82 233 -20 q 57 361 57 184 q 145 640 57 538 q 386 741 233 741 q 514 713 462 741 q 596 629 566 686 l 596 974 l 493 974 l 493 1055 l 836 1055 l 836 82 z "},"Ǉ":{"ha":1634,"x_min":65,"x_max":1581,"o":"m 875 -243 l 875 -83 l 963 -83 q 993 -177 967 -147 q 1071 -207 1019 -207 q 1163 -156 1137 -207 q 1189 33 1189 -106 l 1189 930 l 1042 930 l 1042 1013 l 1581 1013 l 1581 930 l 1451 930 l 1451 28 q 1368 -213 1451 -137 q 1104 -289 1285 -289 q 991 -277 1048 -289 q 875 -243 934 -266 m 65 0 l 65 82 l 195 82 l 195 930 l 65 930 l 65 1013 l 586 1013 l 586 930 l 456 930 l 456 93 l 854 93 l 854 253 l 946 253 l 946 0 l 65 0 z "},"ǈ":{"ha":1479,"x_min":65,"x_max":1365,"o":"m 1097 925 q 1135 1018 1097 980 q 1228 1055 1173 1055 q 1319 1017 1281 1055 q 1357 925 1357 979 q 1319 834 1357 871 q 1228 796 1282 796 q 1135 833 1173 796 q 1097 925 1097 871 m 1125 639 l 1023 639 l 1023 721 l 1365 721 l 1365 -85 q 1287 -252 1365 -195 q 1056 -309 1208 -309 q 969 -302 1015 -309 q 873 -282 923 -295 l 873 -129 l 950 -130 q 971 -208 951 -184 q 1036 -232 991 -232 q 1105 -200 1086 -232 q 1125 -85 1125 -168 l 1125 639 m 65 0 l 65 82 l 195 82 l 195 930 l 65 930 l 65 1013 l 586 1013 l 586 930 l 456 930 l 456 93 l 854 93 l 854 253 l 946 253 l 946 0 l 65 0 z "},"ǉ":{"ha":1030,"x_min":47,"x_max":916,"o":"m 648 925 q 686 1018 648 980 q 779 1055 724 1055 q 870 1017 832 1055 q 908 925 908 979 q 870 834 908 871 q 779 796 833 796 q 686 833 724 796 q 648 925 648 871 m 676 639 l 574 639 l 574 721 l 916 721 l 916 -85 q 838 -252 916 -195 q 607 -309 760 -309 q 520 -302 566 -309 q 425 -282 474 -295 l 425 -129 l 501 -130 q 523 -208 503 -184 q 587 -232 543 -232 q 656 -200 637 -232 q 676 -85 676 -168 l 676 639 m 390 82 l 493 82 l 493 0 l 47 0 l 47 82 l 150 82 l 150 974 l 47 974 l 47 1055 l 390 1055 l 390 82 z "},"Ǌ":{"ha":1927,"x_min":61,"x_max":1874,"o":"m 1168 -243 l 1168 -83 l 1256 -83 q 1286 -177 1260 -147 q 1364 -207 1312 -207 q 1456 -156 1430 -207 q 1482 33 1482 -106 l 1482 930 l 1335 930 l 1335 1013 l 1874 1013 l 1874 930 l 1744 930 l 1744 28 q 1661 -213 1744 -137 q 1397 -289 1578 -289 q 1284 -277 1341 -289 q 1168 -243 1227 -266 m 61 0 l 61 82 l 191 82 l 191 930 l 61 930 l 61 1013 l 378 1013 l 989 296 l 989 930 l 860 930 l 860 1013 l 1214 1013 l 1214 930 l 1084 930 l 1084 0 l 907 0 l 286 732 l 286 82 l 415 82 l 415 0 l 61 0 z "},"ǋ":{"ha":1772,"x_min":61,"x_max":1658,"o":"m 1390 925 q 1428 1018 1390 980 q 1521 1055 1466 1055 q 1612 1017 1574 1055 q 1650 925 1650 979 q 1612 834 1650 871 q 1521 796 1575 796 q 1428 833 1466 796 q 1390 925 1390 871 m 1418 639 l 1316 639 l 1316 721 l 1658 721 l 1658 -85 q 1580 -252 1658 -195 q 1349 -309 1501 -309 q 1262 -302 1308 -309 q 1166 -282 1216 -295 l 1166 -129 l 1243 -130 q 1264 -208 1244 -184 q 1329 -232 1284 -232 q 1398 -200 1379 -232 q 1418 -85 1418 -168 l 1418 639 m 61 0 l 61 82 l 191 82 l 191 930 l 61 930 l 61 1013 l 378 1013 l 989 296 l 989 930 l 860 930 l 860 1013 l 1214 1013 l 1214 930 l 1084 930 l 1084 0 l 907 0 l 286 732 l 286 82 l 415 82 l 415 0 l 61 0 z "},"ǌ":{"ha":1512,"x_min":47,"x_max":1398,"o":"m 1131 925 q 1168 1018 1131 980 q 1261 1055 1206 1055 q 1352 1017 1314 1055 q 1390 925 1390 979 q 1353 834 1390 871 q 1261 796 1315 796 q 1168 833 1206 796 q 1131 925 1131 871 m 1158 639 l 1056 639 l 1056 721 l 1398 721 l 1398 -85 q 1320 -252 1398 -195 q 1089 -309 1242 -309 q 1002 -302 1048 -309 q 907 -282 956 -295 l 907 -129 l 983 -130 q 1005 -208 985 -184 q 1069 -232 1025 -232 q 1139 -200 1119 -232 q 1158 -85 1158 -168 l 1158 639 m 47 0 l 47 82 l 150 82 l 150 639 l 47 639 l 47 721 l 390 721 l 390 619 q 489 712 433 684 q 629 741 545 741 q 813 669 751 741 q 875 458 875 597 l 875 82 l 978 82 l 978 0 l 547 0 l 547 82 l 635 82 l 635 465 q 611 592 635 557 q 530 628 588 628 q 424 575 458 628 q 390 406 390 522 l 390 82 l 478 82 l 478 0 l 47 0 z "},"Ǎ":{"ha":1078,"x_min":-11,"x_max":1093,"o":"m -11 0 l -11 82 l 72 82 l 453 1013 l 615 1013 l 997 82 l 1093 82 l 1093 0 l 619 0 l 619 82 l 718 82 l 635 289 l 254 289 l 170 82 l 290 82 l 290 0 l -11 0 m 288 371 l 602 371 l 446 758 l 288 371 m 419 1109 l 268 1288 l 379 1288 l 524 1178 l 668 1288 l 779 1288 l 628 1109 l 419 1109 z "},"ǎ":{"ha":900,"x_min":57,"x_max":868,"o":"m 765 443 l 765 82 l 868 82 l 868 0 l 525 0 l 525 92 q 419 7 477 35 q 286 -20 361 -20 q 116 40 176 -20 q 57 210 57 99 q 142 391 57 331 q 399 452 227 452 l 525 452 l 525 494 q 484 624 525 582 q 355 665 442 665 q 244 636 283 665 q 189 539 205 606 l 113 539 l 113 694 q 246 729 177 718 q 392 741 315 741 q 675 669 585 741 q 765 443 765 597 m 525 227 l 525 371 l 435 371 q 332 334 368 371 q 296 229 296 298 q 322 127 296 161 q 401 93 348 93 q 491 130 457 93 q 525 227 525 166 m 326 856 l 153 1111 l 264 1111 l 408 957 l 553 1111 l 664 1111 l 490 856 l 326 856 z "},"Ǐ":{"ha":650,"x_min":65,"x_max":586,"o":"m 65 0 l 65 82 l 195 82 l 195 930 l 65 930 l 65 1013 l 586 1013 l 586 930 l 456 930 l 456 82 l 586 82 l 586 0 l 65 0 m 222 1109 l 71 1288 l 182 1288 l 327 1178 l 471 1288 l 583 1288 l 431 1109 l 222 1109 z "},"ǐ":{"ha":528,"x_min":9,"x_max":520,"o":"m 390 82 l 493 82 l 493 0 l 47 0 l 47 82 l 150 82 l 150 639 l 47 639 l 47 721 l 390 721 l 390 82 m 182 856 l 9 1111 l 120 1111 l 264 957 l 409 1111 l 520 1111 l 347 856 l 182 856 z "},"Ǒ":{"ha":1210,"x_min":58,"x_max":1150,"o":"m 604 62 q 797 172 734 62 q 860 505 860 281 q 797 840 860 730 q 604 949 734 949 q 412 839 475 949 q 349 505 349 728 q 412 173 349 283 q 604 62 475 62 m 604 -20 q 203 120 349 -20 q 58 505 58 260 q 204 891 58 751 q 604 1031 349 1031 q 1005 891 860 1031 q 1150 505 1150 751 q 1005 120 1150 260 q 604 -20 859 -20 m 502 1109 l 351 1288 l 462 1288 l 606 1178 l 751 1288 l 862 1288 l 711 1109 l 502 1109 z "},"ǒ":{"ha":926,"x_min":57,"x_max":871,"o":"m 464 57 q 571 122 540 57 q 602 361 602 187 q 571 599 602 534 q 464 664 541 664 q 356 598 387 664 q 325 361 325 533 q 356 123 325 189 q 464 57 387 57 m 464 -20 q 165 82 273 -20 q 57 361 57 183 q 165 640 57 539 q 464 741 273 741 q 763 640 655 741 q 871 361 871 539 q 763 82 871 183 q 464 -20 654 -20 m 382 856 l 208 1111 l 319 1111 l 464 957 l 608 1111 l 720 1111 l 546 856 l 382 856 z "},"Ǔ":{"ha":1211,"x_min":47,"x_max":1181,"o":"m 176 930 l 47 930 l 47 1013 l 568 1013 l 568 930 l 439 930 l 439 424 q 498 159 439 235 q 700 83 557 83 q 898 160 840 83 q 957 424 957 236 l 957 930 l 828 930 l 828 1013 l 1181 1013 l 1181 930 l 1051 930 l 1051 410 q 951 79 1051 178 q 614 -20 850 -20 q 277 80 378 -20 q 176 411 176 180 l 176 930 m 536 1109 l 385 1288 l 496 1288 l 640 1178 l 785 1288 l 896 1288 l 745 1109 l 536 1109 z "},"ǔ":{"ha":1010,"x_min":32,"x_max":962,"o":"m 860 721 l 860 82 l 962 82 l 962 0 l 619 0 l 619 102 q 521 9 576 37 q 380 -20 465 -20 q 197 52 259 -20 q 135 262 135 123 l 135 639 l 32 639 l 32 721 l 375 721 l 375 300 q 397 129 375 165 q 479 93 420 93 q 586 146 552 93 q 619 317 619 200 l 619 639 l 532 639 l 532 721 l 860 721 m 395 856 l 222 1111 l 333 1111 l 477 957 l 622 1111 l 733 1111 l 559 856 l 395 856 z "},"Ǖ":{"ha":1211,"x_min":47,"x_max":1181,"o":"m 176 930 l 47 930 l 47 1013 l 568 1013 l 568 930 l 439 930 l 439 424 q 498 159 439 235 q 700 83 557 83 q 898 160 840 83 q 957 424 957 236 l 957 930 l 828 930 l 828 1013 l 1181 1013 l 1181 930 l 1051 930 l 1051 410 q 951 79 1051 178 q 614 -20 850 -20 q 277 80 378 -20 q 176 411 176 180 l 176 930 m 389 1204 q 418 1275 389 1245 q 489 1304 448 1304 q 558 1275 529 1304 q 587 1204 587 1245 q 558 1135 587 1164 q 489 1105 530 1105 q 418 1135 448 1105 q 389 1204 389 1164 m 692 1204 q 721 1275 692 1245 q 791 1304 751 1304 q 862 1275 832 1304 q 892 1204 892 1245 q 862 1135 892 1164 q 791 1105 832 1105 q 721 1135 751 1105 q 692 1204 692 1164 z "},"ǖ":{"ha":1010,"x_min":32,"x_max":962,"o":"m 266 1270 l 693 1270 l 693 1142 l 266 1142 l 266 1270 m 860 721 l 860 82 l 962 82 l 962 0 l 619 0 l 619 102 q 521 9 576 37 q 380 -20 465 -20 q 197 52 259 -20 q 135 262 135 123 l 135 639 l 32 639 l 32 721 l 375 721 l 375 300 q 397 129 375 165 q 479 93 420 93 q 586 146 552 93 q 619 317 619 200 l 619 639 l 532 639 l 532 721 l 860 721 m 228 996 q 258 1065 228 1036 q 328 1095 288 1095 q 398 1065 369 1095 q 427 996 427 1036 q 397 925 427 955 q 328 896 368 896 q 258 926 288 896 q 228 996 228 956 m 531 996 q 561 1065 531 1036 q 631 1095 590 1095 q 701 1065 671 1095 q 731 996 731 1036 q 701 926 731 956 q 631 896 671 896 q 561 926 590 896 q 531 996 531 956 z "},"Ǘ":{"ha":1211,"x_min":47,"x_max":1181,"o":"m 651 1500 l 840 1500 l 639 1321 l 528 1321 l 651 1500 m 176 930 l 47 930 l 47 1013 l 568 1013 l 568 930 l 439 930 l 439 424 q 498 159 439 235 q 700 83 557 83 q 898 160 840 83 q 957 424 957 236 l 957 930 l 828 930 l 828 1013 l 1181 1013 l 1181 930 l 1051 930 l 1051 410 q 951 79 1051 178 q 614 -20 850 -20 q 277 80 378 -20 q 176 411 176 180 l 176 930 m 389 1204 q 418 1275 389 1245 q 489 1304 448 1304 q 558 1275 529 1304 q 587 1204 587 1245 q 558 1135 587 1164 q 489 1105 530 1105 q 418 1135 448 1105 q 389 1204 389 1164 m 692 1204 q 721 1275 692 1245 q 791 1304 751 1304 q 862 1275 832 1304 q 892 1204 892 1245 q 862 1135 892 1164 q 791 1105 832 1105 q 721 1135 751 1105 q 692 1204 692 1164 z "},"ǘ":{"ha":1010,"x_min":32,"x_max":962,"o":"m 860 721 l 860 82 l 962 82 l 962 0 l 619 0 l 619 102 q 521 9 576 37 q 380 -20 465 -20 q 197 52 259 -20 q 135 262 135 123 l 135 639 l 32 639 l 32 721 l 375 721 l 375 300 q 397 129 375 165 q 479 93 420 93 q 586 146 552 93 q 619 317 619 200 l 619 639 l 532 639 l 532 721 l 860 721 m 228 996 q 258 1065 228 1036 q 328 1095 288 1095 q 398 1065 369 1095 q 427 996 427 1036 q 397 925 427 955 q 328 896 368 896 q 258 926 288 896 q 228 996 228 956 m 531 996 q 561 1065 531 1036 q 631 1095 590 1095 q 701 1065 671 1095 q 731 996 731 1036 q 701 926 731 956 q 631 896 671 896 q 561 926 590 896 q 531 996 531 956 z "},"Ǚ":{"ha":1211,"x_min":47,"x_max":1181,"o":"m 536 1321 l 385 1500 l 496 1500 l 640 1390 l 785 1500 l 896 1500 l 745 1321 l 536 1321 m 176 930 l 47 930 l 47 1013 l 568 1013 l 568 930 l 439 930 l 439 424 q 498 159 439 235 q 700 83 557 83 q 898 160 840 83 q 957 424 957 236 l 957 930 l 828 930 l 828 1013 l 1181 1013 l 1181 930 l 1051 930 l 1051 410 q 951 79 1051 178 q 614 -20 850 -20 q 277 80 378 -20 q 176 411 176 180 l 176 930 m 389 1204 q 418 1275 389 1245 q 489 1304 448 1304 q 558 1275 529 1304 q 587 1204 587 1245 q 558 1135 587 1164 q 489 1105 530 1105 q 418 1135 448 1105 q 389 1204 389 1164 m 692 1204 q 721 1275 692 1245 q 791 1304 751 1304 q 862 1275 832 1304 q 892 1204 892 1245 q 862 1135 892 1164 q 791 1105 832 1105 q 721 1135 751 1105 q 692 1204 692 1164 z "},"ǚ":{"ha":1010,"x_min":32,"x_max":962,"o":"m 860 721 l 860 82 l 962 82 l 962 0 l 619 0 l 619 102 q 521 9 576 37 q 380 -20 465 -20 q 197 52 259 -20 q 135 262 135 123 l 135 639 l 32 639 l 32 721 l 375 721 l 375 300 q 397 129 375 165 q 479 93 420 93 q 586 146 552 93 q 619 317 619 200 l 619 639 l 532 639 l 532 721 l 860 721 m 228 996 q 258 1065 228 1036 q 328 1095 288 1095 q 398 1065 369 1095 q 427 996 427 1036 q 397 925 427 955 q 328 896 368 896 q 258 926 288 896 q 228 996 228 956 m 531 996 q 561 1065 531 1036 q 631 1095 590 1095 q 701 1065 671 1095 q 731 996 731 1036 q 701 926 731 956 q 631 896 671 896 q 561 926 590 896 q 531 996 531 956 z "},"Ǜ":{"ha":1211,"x_min":47,"x_max":1181,"o":"m 629 1500 l 753 1321 l 642 1321 l 440 1500 l 629 1500 m 176 930 l 47 930 l 47 1013 l 568 1013 l 568 930 l 439 930 l 439 424 q 498 159 439 235 q 700 83 557 83 q 898 160 840 83 q 957 424 957 236 l 957 930 l 828 930 l 828 1013 l 1181 1013 l 1181 930 l 1051 930 l 1051 410 q 951 79 1051 178 q 614 -20 850 -20 q 277 80 378 -20 q 176 411 176 180 l 176 930 m 389 1204 q 418 1275 389 1245 q 489 1304 448 1304 q 558 1275 529 1304 q 587 1204 587 1245 q 558 1135 587 1164 q 489 1105 530 1105 q 418 1135 448 1105 q 389 1204 389 1164 m 692 1204 q 721 1275 692 1245 q 791 1304 751 1304 q 862 1275 832 1304 q 892 1204 892 1245 q 862 1135 892 1164 q 791 1105 832 1105 q 721 1135 751 1105 q 692 1204 692 1164 z "},"ǜ":{"ha":1010,"x_min":32,"x_max":962,"o":"m 860 721 l 860 82 l 962 82 l 962 0 l 619 0 l 619 102 q 521 9 576 37 q 380 -20 465 -20 q 197 52 259 -20 q 135 262 135 123 l 135 639 l 32 639 l 32 721 l 375 721 l 375 300 q 397 129 375 165 q 479 93 420 93 q 586 146 552 93 q 619 317 619 200 l 619 639 l 532 639 l 532 721 l 860 721 m 228 996 q 258 1065 228 1036 q 328 1095 288 1095 q 398 1065 369 1095 q 427 996 427 1036 q 397 925 427 955 q 328 896 368 896 q 258 926 288 896 q 228 996 228 956 m 531 996 q 561 1065 531 1036 q 631 1095 590 1095 q 701 1065 671 1095 q 731 996 731 1036 q 701 926 731 956 q 631 896 671 896 q 561 926 590 896 q 531 996 531 956 z "},"ǝ":{"ha":884,"x_min":57,"x_max":821,"o":"m 321 314 q 347 114 321 172 q 437 57 374 57 q 526 113 499 57 q 553 302 553 170 l 553 314 l 321 314 m 57 395 l 553 395 l 553 400 q 511 602 553 540 q 375 664 469 664 q 249 623 297 664 q 187 503 201 581 l 75 503 q 191 683 104 625 q 433 741 277 741 q 721 642 621 741 q 821 360 821 543 q 718 81 821 181 q 433 -20 616 -20 q 159 86 254 -20 q 57 395 63 191 z "},"Ǟ":{"ha":1078,"x_min":-11,"x_max":1093,"o":"m -11 0 l -11 82 l 72 82 l 453 1013 l 615 1013 l 997 82 l 1093 82 l 1093 0 l 619 0 l 619 82 l 718 82 l 635 289 l 254 289 l 170 82 l 290 82 l 290 0 l -11 0 m 288 371 l 602 371 l 446 758 l 288 371 m 272 1204 q 302 1275 272 1245 q 372 1304 332 1304 q 441 1275 412 1304 q 471 1204 471 1245 q 442 1135 471 1164 q 372 1105 413 1105 q 302 1135 332 1105 q 272 1204 272 1164 m 575 1204 q 605 1275 575 1245 q 675 1304 634 1304 q 745 1275 715 1304 q 775 1204 775 1245 q 745 1135 775 1164 q 675 1105 715 1105 q 605 1135 634 1105 q 575 1204 575 1164 z "},"ǟ":{"ha":900,"x_min":57,"x_max":868,"o":"m 193 1270 l 621 1270 l 621 1142 l 193 1142 l 193 1270 m 765 443 l 765 82 l 868 82 l 868 0 l 525 0 l 525 92 q 419 7 477 35 q 286 -20 361 -20 q 116 40 176 -20 q 57 210 57 99 q 142 391 57 331 q 399 452 227 452 l 525 452 l 525 494 q 484 624 525 582 q 355 665 442 665 q 244 636 283 665 q 189 539 205 606 l 113 539 l 113 694 q 246 729 177 718 q 392 741 315 741 q 675 669 585 741 q 765 443 765 597 m 525 227 l 525 371 l 435 371 q 332 334 368 371 q 296 229 296 298 q 322 127 296 161 q 401 93 348 93 q 491 130 457 93 q 525 227 525 166 m 155 996 q 185 1065 155 1036 q 256 1095 215 1095 q 325 1065 296 1095 q 354 996 354 1036 q 325 925 354 955 q 256 896 296 896 q 185 926 215 896 q 155 996 155 956 m 458 996 q 488 1065 458 1036 q 558 1095 517 1095 q 629 1065 599 1095 q 659 996 659 1036 q 629 926 659 956 q 558 896 599 896 q 488 926 517 896 q 458 996 458 956 z "},"Ǡ":{"ha":1078,"x_min":-11,"x_max":1093,"o":"m -11 0 l -11 82 l 72 82 l 453 1013 l 615 1013 l 997 82 l 1093 82 l 1093 0 l 619 0 l 619 82 l 718 82 l 635 289 l 254 289 l 170 82 l 290 82 l 290 0 l -11 0 m 288 371 l 602 371 l 446 758 l 288 371 z "},"ǡ":{"ha":900,"x_min":57,"x_max":868,"o":"m 765 443 l 765 82 l 868 82 l 868 0 l 525 0 l 525 92 q 419 7 477 35 q 286 -20 361 -20 q 116 40 176 -20 q 57 210 57 99 q 142 391 57 331 q 399 452 227 452 l 525 452 l 525 494 q 484 624 525 582 q 355 665 442 665 q 244 636 283 665 q 189 539 205 606 l 113 539 l 113 694 q 246 729 177 718 q 392 741 315 741 q 675 669 585 741 q 765 443 765 597 m 525 227 l 525 371 l 435 371 q 332 334 368 371 q 296 229 296 298 q 322 127 296 161 q 401 93 348 93 q 491 130 457 93 q 525 227 525 166 z "},"Ǣ":{"ha":1436,"x_min":-43,"x_max":1364,"o":"m 612 1270 l 1040 1270 l 1040 1142 l 612 1142 l 612 1270 m 272 370 l 587 370 l 587 930 l 536 930 l 272 370 m 458 0 l 458 82 l 587 82 l 587 288 l 233 288 l 136 82 l 248 82 l 248 0 l -43 0 l -43 82 l 35 82 l 436 930 l 300 930 l 300 1013 l 1352 1013 l 1352 774 l 1258 774 l 1258 920 l 850 920 l 850 595 l 1099 595 l 1099 724 l 1190 724 l 1190 374 l 1099 374 l 1099 503 l 850 503 l 850 93 l 1272 93 l 1272 239 l 1364 239 l 1364 0 l 458 0 z "},"ǣ":{"ha":1354,"x_min":57,"x_max":1290,"o":"m 439 1059 l 867 1059 l 867 932 l 439 932 l 439 1059 m 1026 407 q 1000 607 1026 549 q 909 664 973 664 q 821 608 848 664 q 794 419 794 551 l 794 407 l 1026 407 m 661 635 q 776 714 713 688 q 914 741 839 741 q 1188 635 1093 741 q 1290 326 1284 530 l 794 326 l 794 321 q 836 119 794 181 q 972 57 878 57 q 1097 98 1050 57 q 1158 218 1145 139 l 1272 218 q 1157 38 1243 96 q 914 -20 1070 -20 q 753 6 823 -20 q 629 86 682 33 q 497 7 569 33 q 342 -20 426 -20 q 130 39 202 -20 q 57 210 57 98 q 143 392 57 332 q 406 452 230 452 l 532 452 l 532 494 q 484 618 532 573 q 353 664 436 664 q 244 634 283 664 q 189 539 205 605 l 113 539 l 113 694 q 246 729 177 718 q 392 741 315 741 q 551 714 485 741 q 661 635 618 688 m 532 224 l 532 371 l 441 371 q 332 334 368 371 q 296 220 296 296 q 322 111 296 143 q 410 78 349 78 q 500 116 468 78 q 532 224 532 154 z "},"Ǥ":{"ha":1244,"x_min":58,"x_max":1211,"o":"m 956 694 q 854 889 925 829 q 653 949 783 949 q 422 842 496 949 q 349 505 349 735 q 419 170 349 277 q 639 62 490 62 q 745 75 696 62 q 833 114 793 88 l 833 211 l 583 211 l 583 292 l 833 292 l 833 392 l 711 392 l 711 473 l 1076 473 l 1076 292 l 1211 292 l 1211 211 l 1076 211 l 1076 85 q 849 6 962 32 q 616 -20 735 -20 q 207 121 356 -20 q 58 505 58 261 q 207 890 58 750 q 616 1031 356 1031 q 830 1009 725 1031 q 1042 943 935 987 l 1042 694 l 956 694 z "},"ǥ":{"ha":971,"x_min":57,"x_max":939,"o":"m 596 322 l 456 322 l 456 404 l 596 404 q 564 578 595 524 q 460 635 531 635 q 355 575 385 635 q 325 361 325 516 q 355 146 325 205 q 460 86 386 86 q 564 142 531 86 q 596 322 595 198 m 836 322 l 836 9 q 728 -225 836 -142 q 422 -309 620 -309 q 277 -297 351 -309 q 125 -264 203 -286 l 125 -92 l 201 -92 q 259 -197 212 -163 q 393 -232 306 -232 q 550 -179 505 -232 q 596 9 596 -125 l 596 92 q 514 8 566 35 q 386 -20 462 -20 q 145 82 233 -20 q 57 361 57 184 q 145 640 57 538 q 386 741 233 741 q 514 713 462 741 q 596 629 566 686 l 596 721 l 939 721 l 939 639 l 836 639 l 836 404 l 939 404 l 939 322 l 836 322 z "},"Ǧ":{"ha":1186,"x_min":58,"x_max":1076,"o":"m 513 1109 l 361 1288 l 473 1288 l 617 1178 l 762 1288 l 873 1288 l 722 1109 l 513 1109 m 956 694 q 854 889 925 829 q 653 949 783 949 q 422 842 496 949 q 349 505 349 735 q 419 170 349 277 q 639 62 490 62 q 745 75 696 62 q 833 114 793 88 l 833 392 l 711 392 l 711 473 l 1076 473 l 1076 85 q 849 6 962 32 q 616 -20 735 -20 q 207 121 356 -20 q 58 505 58 261 q 207 890 58 750 q 616 1031 356 1031 q 830 1009 725 1031 q 1042 943 935 987 l 1042 694 l 956 694 z "},"ǧ":{"ha":971,"x_min":57,"x_max":939,"o":"m 836 639 l 836 9 q 728 -225 836 -142 q 422 -309 620 -309 q 277 -297 351 -309 q 125 -264 203 -286 l 125 -92 l 201 -92 q 259 -197 212 -163 q 393 -232 306 -232 q 550 -179 505 -232 q 596 9 596 -125 l 596 92 q 514 8 566 35 q 386 -20 462 -20 q 145 82 233 -20 q 57 361 57 184 q 145 640 57 538 q 386 741 233 741 q 514 713 462 741 q 596 629 566 686 l 596 721 l 939 721 l 939 639 l 836 639 m 596 396 q 564 578 596 522 q 460 635 531 635 q 355 575 385 635 q 325 361 325 516 q 355 146 325 205 q 460 86 386 86 q 564 142 531 86 q 596 325 596 199 l 596 396 z "},"Ǩ":{"ha":1207,"x_min":65,"x_max":1250,"o":"m 594 1109 l 443 1288 l 554 1288 l 699 1178 l 843 1288 l 954 1288 l 803 1109 l 594 1109 m 65 0 l 65 82 l 195 82 l 195 930 l 65 930 l 65 1013 l 586 1013 l 586 930 l 456 930 l 456 561 l 885 930 l 777 930 l 777 1013 l 1154 1013 l 1154 930 l 1019 930 l 656 618 l 1150 82 l 1250 82 l 1250 0 l 907 0 l 456 492 l 456 82 l 586 82 l 586 0 l 65 0 z "},"ǩ":{"ha":962,"x_min":-33,"x_max":986,"o":"m 118 1109 l -33 1288 l 78 1288 l 222 1178 l 367 1288 l 478 1288 l 327 1109 l 118 1109 m 481 0 l 47 0 l 47 82 l 150 82 l 150 974 l 47 974 l 47 1055 l 390 1055 l 390 378 l 681 639 l 595 639 l 595 721 l 924 721 l 924 639 l 790 639 l 604 472 l 908 82 l 986 82 l 986 0 l 572 0 l 572 82 l 657 82 l 457 339 l 390 279 l 390 82 l 481 82 l 481 0 z "},"Ǫ":{"ha":1210,"x_min":58,"x_max":1150,"o":"m 562 -11 l 646 -11 q 600 -80 613 -55 q 587 -125 587 -105 q 606 -168 587 -153 q 661 -183 625 -183 q 714 -178 687 -183 q 768 -162 742 -172 l 767 -268 q 698 -279 730 -275 q 637 -283 665 -283 q 518 -252 560 -283 q 475 -163 475 -220 q 496 -91 475 -128 q 562 -11 517 -54 m 604 62 q 797 172 734 62 q 860 505 860 281 q 797 840 860 730 q 604 949 734 949 q 412 839 475 949 q 349 505 349 728 q 412 173 349 283 q 604 62 475 62 m 604 -20 q 203 120 349 -20 q 58 505 58 260 q 204 891 58 751 q 604 1031 349 1031 q 1005 891 860 1031 q 1150 505 1150 751 q 1005 120 1150 260 q 604 -20 859 -20 z "},"ǫ":{"ha":926,"x_min":57,"x_max":871,"o":"m 422 -11 l 507 -11 q 460 -80 473 -55 q 447 -125 447 -105 q 466 -168 447 -153 q 521 -183 486 -183 q 575 -178 547 -183 q 628 -162 602 -172 l 627 -268 q 558 -279 591 -275 q 497 -283 526 -283 q 378 -252 420 -283 q 336 -163 336 -220 q 357 -91 336 -128 q 422 -11 378 -54 m 464 57 q 571 122 540 57 q 602 361 602 187 q 571 599 602 534 q 464 664 541 664 q 356 598 387 664 q 325 361 325 533 q 356 123 325 189 q 464 57 387 57 m 464 -20 q 165 82 273 -20 q 57 361 57 183 q 165 640 57 539 q 464 741 273 741 q 763 640 655 741 q 871 361 871 539 q 763 82 871 183 q 464 -20 654 -20 z "},"Ǭ":{"ha":1210,"x_min":58,"x_max":1150,"o":"m 391 1270 l 818 1270 l 818 1142 l 391 1142 l 391 1270 m 562 -11 l 646 -11 q 600 -80 613 -55 q 587 -125 587 -105 q 606 -168 587 -153 q 661 -183 625 -183 q 714 -178 687 -183 q 768 -162 742 -172 l 767 -268 q 698 -279 730 -275 q 637 -283 665 -283 q 518 -252 560 -283 q 475 -163 475 -220 q 496 -91 475 -128 q 562 -11 517 -54 m 604 62 q 797 172 734 62 q 860 505 860 281 q 797 840 860 730 q 604 949 734 949 q 412 839 475 949 q 349 505 349 728 q 412 173 349 283 q 604 62 475 62 m 604 -20 q 203 120 349 -20 q 58 505 58 260 q 204 891 58 751 q 604 1031 349 1031 q 1005 891 860 1031 q 1150 505 1150 751 q 1005 120 1150 260 q 604 -20 859 -20 z "},"ǭ":{"ha":926,"x_min":57,"x_max":871,"o":"m 250 1059 l 677 1059 l 677 932 l 250 932 l 250 1059 m 422 -11 l 507 -11 q 460 -80 473 -55 q 447 -125 447 -105 q 466 -168 447 -153 q 521 -183 486 -183 q 575 -178 547 -183 q 628 -162 602 -172 l 627 -268 q 558 -279 591 -275 q 497 -283 526 -283 q 378 -252 420 -283 q 336 -163 336 -220 q 357 -91 336 -128 q 422 -11 378 -54 m 464 57 q 571 122 540 57 q 602 361 602 187 q 571 599 602 534 q 464 664 541 664 q 356 598 387 664 q 325 361 325 533 q 356 123 325 189 q 464 57 387 57 m 464 -20 q 165 82 273 -20 q 57 361 57 183 q 165 640 57 539 q 464 741 273 741 q 763 640 655 741 q 871 361 871 539 q 763 82 871 183 q 464 -20 654 -20 z "},"Ǯ":{"ha":789,"x_min":48,"x_max":829,"o":"m 342 1109 l 191 1288 l 302 1288 l 446 1178 l 591 1288 l 702 1288 l 551 1109 l 342 1109 m 495 569 q 720 498 645 555 q 829 273 829 416 q 716 56 829 132 q 391 -20 604 -20 q 226 -6 311 -20 q 48 35 141 7 l 48 257 l 130 257 q 191 110 138 161 q 337 60 243 60 q 496 117 440 60 q 553 279 553 174 q 494 449 553 389 q 328 509 435 509 l 283 509 l 283 661 l 463 920 l 171 920 l 171 768 l 78 768 l 78 1013 l 742 1013 l 742 920 l 495 569 z "},"ǯ":{"ha":789,"x_min":48,"x_max":829,"o":"m 495 307 q 720 235 645 292 q 829 11 829 153 q 716 -207 829 -131 q 391 -282 604 -282 q 226 -269 311 -282 q 48 -228 141 -255 l 48 -5 l 130 -5 q 191 -152 138 -102 q 337 -203 243 -203 q 496 -145 440 -203 q 553 17 553 -88 q 494 186 553 127 q 328 246 435 246 l 283 246 l 283 399 l 463 642 l 151 642 l 151 518 l 71 518 l 71 721 l 742 721 l 742 640 l 495 307 z "},"ǰ":{"ha":528,"x_min":-103,"x_max":520,"o":"m 149 639 l 46 639 l 46 721 l 389 721 l 389 -85 q 310 -252 389 -195 q 79 -309 232 -309 q -7 -302 39 -309 q -103 -282 -54 -295 l -103 -129 l -26 -130 q -5 -208 -25 -184 q 60 -232 15 -232 q 129 -200 109 -232 q 149 -85 149 -168 l 149 639 m 182 856 l 9 1111 l 120 1111 l 264 957 l 409 1111 l 520 1111 l 347 856 l 182 856 z "},"Ǳ":{"ha":2218,"x_min":65,"x_max":2168,"o":"m 1256 0 l 1256 96 l 1860 920 l 1375 920 l 1375 768 l 1282 768 l 1282 1013 l 2161 1013 l 2161 917 l 1564 93 l 2075 93 l 2075 235 l 2168 235 l 2168 0 l 1256 0 m 456 82 l 550 82 q 782 184 709 82 q 856 507 856 286 q 783 829 856 728 q 550 930 709 930 l 456 930 l 456 82 m 65 0 l 65 82 l 195 82 l 195 930 l 65 930 l 65 1013 l 585 1013 q 1002 882 857 1013 q 1146 507 1146 752 q 1001 131 1146 261 q 585 0 857 0 l 65 0 z "},"ǲ":{"ha":1993,"x_min":65,"x_max":1946,"o":"m 1253 0 l 1253 82 l 1667 642 l 1356 642 l 1356 518 l 1275 518 l 1275 721 l 1946 721 l 1946 640 l 1532 81 l 1866 81 l 1866 211 l 1946 211 l 1946 0 l 1253 0 m 456 82 l 550 82 q 782 184 709 82 q 856 507 856 286 q 783 829 856 728 q 550 930 709 930 l 456 930 l 456 82 m 65 0 l 65 82 l 195 82 l 195 930 l 65 930 l 65 1013 l 585 1013 q 1002 882 857 1013 q 1146 507 1146 752 q 1001 131 1146 261 q 585 0 857 0 l 65 0 z "},"ǳ":{"ha":1760,"x_min":57,"x_max":1713,"o":"m 1020 0 l 1020 82 l 1434 642 l 1122 642 l 1122 518 l 1042 518 l 1042 721 l 1713 721 l 1713 640 l 1299 81 l 1632 81 l 1632 211 l 1713 211 l 1713 0 l 1020 0 m 596 325 l 596 396 q 564 578 596 522 q 460 635 531 635 q 355 575 385 635 q 325 361 325 516 q 355 146 325 205 q 460 86 386 86 q 564 142 531 86 q 596 325 596 199 m 836 82 l 939 82 l 939 0 l 596 0 l 596 92 q 514 8 566 35 q 386 -20 462 -20 q 145 82 233 -20 q 57 361 57 184 q 145 640 57 538 q 386 741 233 741 q 514 713 462 741 q 596 629 566 686 l 596 974 l 493 974 l 493 1055 l 836 1055 l 836 82 z "},"Ǵ":{"ha":1186,"x_min":58,"x_max":1076,"o":"m 628 1289 l 817 1289 l 616 1109 l 505 1109 l 628 1289 m 956 694 q 854 889 925 829 q 653 949 783 949 q 422 842 496 949 q 349 505 349 735 q 419 170 349 277 q 639 62 490 62 q 745 75 696 62 q 833 114 793 88 l 833 392 l 711 392 l 711 473 l 1076 473 l 1076 85 q 849 6 962 32 q 616 -20 735 -20 q 207 121 356 -20 q 58 505 58 261 q 207 890 58 750 q 616 1031 356 1031 q 830 1009 725 1031 q 1042 943 935 987 l 1042 694 l 956 694 z "},"ǵ":{"ha":971,"x_min":57,"x_max":939,"o":"m 836 639 l 836 9 q 728 -225 836 -142 q 422 -309 620 -309 q 277 -297 351 -309 q 125 -264 203 -286 l 125 -92 l 201 -92 q 259 -197 212 -163 q 393 -232 306 -232 q 550 -179 505 -232 q 596 9 596 -125 l 596 92 q 514 8 566 35 q 386 -20 462 -20 q 145 82 233 -20 q 57 361 57 184 q 145 640 57 538 q 386 741 233 741 q 514 713 462 741 q 596 629 566 686 l 596 721 l 939 721 l 939 639 l 836 639 m 596 396 q 564 578 596 522 q 460 635 531 635 q 355 575 385 635 q 325 361 325 516 q 355 146 325 205 q 460 86 386 86 q 564 142 531 86 q 596 325 596 199 l 596 396 z "},"Ƕ":{"ha":1696,"x_min":65,"x_max":1649,"o":"m 1120 424 q 1154 159 1120 201 q 1318 83 1215 83 q 1496 160 1437 83 q 1554 424 1554 236 l 1554 640 l 1426 640 l 1426 721 l 1649 721 l 1649 410 q 1548 79 1649 176 q 1232 -20 1445 -20 q 933 80 1022 -20 q 859 410 859 163 l 859 497 l 456 497 l 456 82 l 586 82 l 586 0 l 65 0 l 65 82 l 195 82 l 195 930 l 65 930 l 65 1013 l 586 1013 l 586 930 l 456 930 l 456 590 l 859 590 l 859 930 l 729 930 l 729 1013 l 1250 1013 l 1250 930 l 1120 930 l 1120 424 z "},"Ǹ":{"ha":1270,"x_min":61,"x_max":1214,"o":"m 615 1288 l 739 1109 l 627 1109 l 426 1288 l 615 1288 m 61 0 l 61 82 l 191 82 l 191 930 l 61 930 l 61 1013 l 378 1013 l 989 296 l 989 930 l 860 930 l 860 1013 l 1214 1013 l 1214 930 l 1084 930 l 1084 0 l 907 0 l 286 732 l 286 82 l 415 82 l 415 0 l 61 0 z "},"ǹ":{"ha":1010,"x_min":47,"x_max":978,"o":"m 47 0 l 47 82 l 150 82 l 150 639 l 47 639 l 47 721 l 390 721 l 390 619 q 489 712 433 684 q 629 741 545 741 q 813 669 751 741 q 875 458 875 597 l 875 82 l 978 82 l 978 0 l 547 0 l 547 82 l 635 82 l 635 465 q 611 592 635 557 q 530 628 588 628 q 424 575 458 628 q 390 406 390 522 l 390 82 l 478 82 l 478 0 l 47 0 z "},"Ǻ":{"ha":1078,"x_min":-11,"x_max":1093,"o":"m 288 371 l 602 371 l 447 758 l 288 371 m 472 1033 q 459 1019 472 1033 q 446 970 446 1006 q 472 907 446 933 q 534 881 498 881 q 598 907 572 881 q 624 970 624 933 q 597 1033 624 1006 q 534 1059 571 1059 q 472 1033 498 1059 m 593 1289 l 782 1289 l 619 1144 q 671 1106 647 1130 q 728 970 728 1049 q 707 880 728 920 q 684 846 697 861 l 997 82 l 1093 82 l 1093 0 l 619 0 l 619 82 l 718 82 l 635 289 l 254 289 l 170 82 l 290 82 l 290 0 l -11 0 l -11 82 l 72 82 l 386 846 q 363 879 372 861 q 342 970 342 920 q 399 1106 342 1049 q 505 1161 444 1152 l 593 1289 z "},"ǻ":{"ha":900,"x_min":57,"x_max":868,"o":"m 465 1289 l 654 1289 l 492 1144 q 544 1107 519 1131 q 600 970 600 1050 q 544 833 600 890 q 407 777 487 777 q 270 833 327 777 q 214 970 214 890 q 270 1107 214 1050 q 377 1161 316 1152 l 465 1289 m 318 970 q 344 907 318 932 q 407 881 370 881 q 470 907 444 881 q 496 970 496 933 q 470 1033 496 1006 q 407 1059 444 1059 q 344 1033 370 1059 q 318 970 318 1006 m 765 443 l 765 82 l 868 82 l 868 0 l 525 0 l 525 92 q 419 7 477 35 q 286 -20 361 -20 q 116 40 176 -20 q 57 210 57 99 q 142 391 57 331 q 399 452 227 452 l 525 452 l 525 494 q 484 624 525 582 q 355 665 442 665 q 244 636 283 665 q 189 539 205 606 l 113 539 l 113 694 q 246 729 177 718 q 392 741 315 741 q 675 669 585 741 q 765 443 765 597 m 525 227 l 525 371 l 435 371 q 332 334 368 371 q 296 229 296 298 q 322 127 296 161 q 401 93 348 93 q 491 130 457 93 q 525 227 525 166 z "},"Ǽ":{"ha":1436,"x_min":-43,"x_max":1364,"o":"m 835 1289 l 1024 1289 l 823 1109 l 711 1109 l 835 1289 m 272 370 l 587 370 l 587 930 l 536 930 l 272 370 m 458 0 l 458 82 l 587 82 l 587 288 l 233 288 l 136 82 l 248 82 l 248 0 l -43 0 l -43 82 l 35 82 l 436 930 l 300 930 l 300 1013 l 1352 1013 l 1352 774 l 1258 774 l 1258 920 l 850 920 l 850 595 l 1099 595 l 1099 724 l 1190 724 l 1190 374 l 1099 374 l 1099 503 l 850 503 l 850 93 l 1272 93 l 1272 239 l 1364 239 l 1364 0 l 458 0 z "},"ǽ":{"ha":1354,"x_min":57,"x_max":1290,"o":"m 1026 407 q 1000 607 1026 549 q 909 664 973 664 q 821 608 848 664 q 794 419 794 551 l 794 407 l 1026 407 m 661 635 q 776 714 713 688 q 914 741 839 741 q 1188 635 1093 741 q 1290 326 1284 530 l 794 326 l 794 321 q 836 119 794 181 q 972 57 878 57 q 1097 98 1050 57 q 1158 218 1145 139 l 1272 218 q 1157 38 1243 96 q 914 -20 1070 -20 q 753 6 823 -20 q 629 86 682 33 q 497 7 569 33 q 342 -20 426 -20 q 130 39 202 -20 q 57 210 57 98 q 143 392 57 332 q 406 452 230 452 l 532 452 l 532 494 q 484 618 532 573 q 353 664 436 664 q 244 634 283 664 q 189 539 205 605 l 113 539 l 113 694 q 246 729 177 718 q 392 741 315 741 q 551 714 485 741 q 661 635 618 688 m 532 224 l 532 371 l 441 371 q 332 334 368 371 q 296 220 296 296 q 322 111 296 143 q 410 78 349 78 q 500 116 468 78 q 532 224 532 154 z "},"Ǿ":{"ha":1210,"x_min":46,"x_max":1162,"o":"m 612 1289 l 801 1289 l 600 1109 l 488 1109 l 612 1289 m 363 325 l 822 785 q 738 907 793 865 q 604 949 683 949 q 412 839 475 949 q 349 505 349 728 q 352 409 349 454 q 363 325 355 364 m 387 227 q 472 103 418 144 q 604 62 526 62 q 799 176 736 62 q 861 532 861 289 q 857 610 861 576 q 844 673 853 644 l 387 227 m 1028 868 q 1120 707 1089 798 q 1150 505 1150 616 q 1005 120 1150 260 q 604 -20 859 -20 q 407 7 497 -20 q 245 86 317 33 l 107 -53 l 46 8 l 182 144 q 89 304 120 214 q 58 505 58 395 q 204 891 58 751 q 604 1031 349 1031 q 803 1005 713 1031 q 964 926 893 979 l 1101 1064 l 1162 1003 l 1028 868 z "},"ǿ":{"ha":926,"x_min":35,"x_max":892,"o":"m 326 282 l 589 543 q 547 634 577 604 q 464 664 516 664 q 358 599 389 664 q 326 375 326 534 l 326 282 m 339 178 q 380 87 349 117 q 464 57 412 57 q 569 121 538 57 q 600 345 600 184 l 600 440 l 339 178 m 781 619 q 848 506 825 570 q 871 361 871 441 q 763 82 871 183 q 464 -20 654 -20 q 326 -3 389 -20 q 208 47 262 14 l 92 -69 l 35 -11 l 146 100 q 79 216 102 151 q 57 361 57 281 q 165 640 57 539 q 464 741 273 741 q 607 724 543 741 q 720 673 671 707 l 833 787 l 892 729 l 781 619 z "},"Ȁ":{"ha":1078,"x_min":-11,"x_max":1093,"o":"m 384 1291 l 507 1112 l 396 1112 l 195 1291 l 384 1291 m 609 1291 l 732 1112 l 621 1112 l 420 1291 l 609 1291 m -11 0 l -11 82 l 72 82 l 453 1013 l 615 1013 l 997 82 l 1093 82 l 1093 0 l 619 0 l 619 82 l 718 82 l 635 289 l 254 289 l 170 82 l 290 82 l 290 0 l -11 0 m 288 371 l 602 371 l 446 758 l 288 371 z "},"ȁ":{"ha":900,"x_min":57,"x_max":868,"o":"m 243 1111 l 395 856 l 284 856 l 83 1111 l 243 1111 m 491 1111 l 619 856 l 509 856 l 344 1111 l 491 1111 m 765 443 l 765 82 l 868 82 l 868 0 l 525 0 l 525 92 q 419 7 477 35 q 286 -20 361 -20 q 116 40 176 -20 q 57 210 57 99 q 142 391 57 331 q 399 452 227 452 l 525 452 l 525 494 q 484 624 525 582 q 355 665 442 665 q 244 636 283 665 q 189 539 205 606 l 113 539 l 113 694 q 246 729 177 718 q 392 741 315 741 q 675 669 585 741 q 765 443 765 597 m 525 227 l 525 371 l 435 371 q 332 334 368 371 q 296 229 296 298 q 322 127 296 161 q 401 93 348 93 q 491 130 457 93 q 525 227 525 166 z "},"Ȃ":{"ha":1078,"x_min":-11,"x_max":1093,"o":"m -11 0 l -11 82 l 72 82 l 453 1013 l 615 1013 l 997 82 l 1093 82 l 1093 0 l 619 0 l 619 82 l 718 82 l 635 289 l 254 289 l 170 82 l 290 82 l 290 0 l -11 0 m 288 371 l 602 371 l 446 758 l 288 371 z "},"ȃ":{"ha":900,"x_min":57,"x_max":868,"o":"m 765 443 l 765 82 l 868 82 l 868 0 l 525 0 l 525 92 q 419 7 477 35 q 286 -20 361 -20 q 116 40 176 -20 q 57 210 57 99 q 142 391 57 331 q 399 452 227 452 l 525 452 l 525 494 q 484 624 525 582 q 355 665 442 665 q 244 636 283 665 q 189 539 205 606 l 113 539 l 113 694 q 246 729 177 718 q 392 741 315 741 q 675 669 585 741 q 765 443 765 597 m 525 227 l 525 371 l 435 371 q 332 334 368 371 q 296 229 296 298 q 322 127 296 161 q 401 93 348 93 q 491 130 457 93 q 525 227 525 166 z "},"Ȅ":{"ha":1059,"x_min":65,"x_max":987,"o":"m 416 1291 l 540 1112 l 429 1112 l 227 1291 l 416 1291 m 642 1291 l 765 1112 l 654 1112 l 452 1291 l 642 1291 m 65 0 l 65 82 l 195 82 l 195 930 l 65 930 l 65 1013 l 975 1013 l 975 774 l 882 774 l 882 920 l 456 920 l 456 595 l 721 595 l 721 724 l 814 724 l 814 374 l 721 374 l 721 503 l 456 503 l 456 93 l 895 93 l 895 239 l 987 239 l 987 0 l 65 0 z "},"ȅ":{"ha":884,"x_min":57,"x_max":821,"o":"m 277 1111 l 430 856 l 319 856 l 117 1111 l 277 1111 m 526 1111 l 654 856 l 544 856 l 378 1111 l 526 1111 m 557 407 q 530 607 557 549 q 440 664 504 664 q 352 608 378 664 q 325 419 325 551 l 325 407 l 557 407 m 821 326 l 325 326 l 325 321 q 367 119 325 181 q 503 57 409 57 q 629 98 581 57 q 690 218 677 140 l 803 218 q 687 38 774 96 q 444 -20 600 -20 q 157 79 257 -20 q 57 361 57 178 q 159 640 57 540 q 444 741 262 741 q 719 635 623 741 q 821 326 814 530 z "},"Ȇ":{"ha":1059,"x_min":65,"x_max":987,"o":"m 65 0 l 65 82 l 195 82 l 195 930 l 65 930 l 65 1013 l 975 1013 l 975 774 l 882 774 l 882 920 l 456 920 l 456 595 l 721 595 l 721 724 l 814 724 l 814 374 l 721 374 l 721 503 l 456 503 l 456 93 l 895 93 l 895 239 l 987 239 l 987 0 l 65 0 z "},"ȇ":{"ha":884,"x_min":57,"x_max":821,"o":"m 557 407 q 530 607 557 549 q 440 664 504 664 q 352 608 378 664 q 325 419 325 551 l 325 407 l 557 407 m 821 326 l 325 326 l 325 321 q 367 119 325 181 q 503 57 409 57 q 629 98 581 57 q 690 218 677 140 l 803 218 q 687 38 774 96 q 444 -20 600 -20 q 157 79 257 -20 q 57 361 57 178 q 159 640 57 540 q 444 741 262 741 q 719 635 623 741 q 821 326 814 530 z "},"Ȉ":{"ha":650,"x_min":2,"x_max":586,"o":"m 191 1291 l 315 1112 l 203 1112 l 2 1291 l 191 1291 m 416 1291 l 540 1112 l 429 1112 l 227 1291 l 416 1291 m 65 0 l 65 82 l 195 82 l 195 930 l 65 930 l 65 1013 l 586 1013 l 586 930 l 456 930 l 456 82 l 586 82 l 586 0 l 65 0 z "},"ȉ":{"ha":528,"x_min":-66,"x_max":493,"o":"m 390 82 l 493 82 l 493 0 l 47 0 l 47 82 l 150 82 l 150 639 l 47 639 l 47 721 l 390 721 l 390 82 m 94 1113 l 247 858 l 136 858 l -66 1113 l 94 1113 m 342 1113 l 471 858 l 361 858 l 195 1113 l 342 1113 z "},"Ȋ":{"ha":650,"x_min":65,"x_max":586,"o":"m 65 0 l 65 82 l 195 82 l 195 930 l 65 930 l 65 1013 l 586 1013 l 586 930 l 456 930 l 456 82 l 586 82 l 586 0 l 65 0 z "},"ȋ":{"ha":528,"x_min":26,"x_max":493,"o":"m 390 82 l 493 82 l 493 0 l 47 0 l 47 82 l 150 82 l 150 639 l 47 639 l 47 721 l 390 721 l 390 82 z "}}}
